SplineFontDB: 3.0
FontName: Luna-SemiBold
FullName: Luna Semi Bold Regular
FamilyName: Luna Semi Bold
Weight: Semibold
Copyright: Copyright (c) 2013 - 2016, Juan Pablo del Peral [huertatipografica.com.ar], Cristiano Sobral [cssobral2013@gmail.com].
Version: 1.501;PS 001.000;hotconv 1.0.70;makeotf.lib2.5.58329 DEVELOPMENT
ItalicAngle: 0
UnderlinePosition: -272
UnderlineWidth: 98
Ascent: 1638
Descent: 410
sfntRevision: 0x00010000
LayerCount: 2
Layer: 0 1 "Back"  1
Layer: 1 1 "Fore"  0
XUID: [1021 633 1153022450 10087072]
FSType: 4
OS2Version: 3
OS2_WeightWidthSlopeOnly: 0
OS2_UseTypoMetrics: 1
CreationTime: 1386077540
ModificationTime: 1462129566
PfmFamily: 81
TTFWeight: 600
TTFWidth: 5
LineGap: 0
VLineGap: 0
Panose: 0 0 6 0 0 0 0 0 0 0
OS2TypoAscent: 1638
OS2TypoAOffset: 0
OS2TypoDescent: -410
OS2TypoDOffset: 0
OS2TypoLinegap: 0
OS2WinAscent: 2344
OS2WinAOffset: 0
OS2WinDescent: 639
OS2WinDOffset: 0
HheadAscent: 2344
HheadAOffset: 0
HheadDescent: -639
HheadDOffset: 0
OS2SubXSize: 1331
OS2SubYSize: 1229
OS2SubXOff: 0
OS2SubYOff: 154
OS2SupXSize: 1331
OS2SupYSize: 1229
OS2SupXOff: 0
OS2SupYOff: 717
OS2StrikeYSize: 98
OS2StrikeYPos: 565
OS2Vendor: 'UKWN'
OS2CodePages: 20000193.00000000
OS2UnicodeRanges: 20000007.00000000.00000000.00000000
Lookup: 1 0 0 "'aalt' Access All Alternates lookup 0"  {"'aalt' Access All Alternates lookup 0 subtable"  } ['aalt' ('DFLT' <'dflt' > 'grek' <'dflt' > 'latn' <'CAT ' 'ESP ' 'MOL ' 'NLD ' 'ROM ' 'TRK ' 'dflt' > ) ]
Lookup: 3 0 0 "'aalt' Access All Alternates lookup 1"  {"'aalt' Access All Alternates lookup 1 subtable"  } ['aalt' ('DFLT' <'dflt' > 'grek' <'dflt' > 'latn' <'CAT ' 'ESP ' 'MOL ' 'NLD ' 'ROM ' 'TRK ' 'dflt' > ) ]
Lookup: 6 0 0 "'locl' Localized Forms in Latin lookup 2"  {"'locl' Localized Forms in Latin lookup 2 contextual 0"  "'locl' Localized Forms in Latin lookup 2 contextual 1"  } ['locl' ('latn' <'CAT ' > ) ]

StartChar: exclam
Encoding: 33 33 4
Width: 595
GlyphClass: 2
Flags: W
LayerCount: 2
Fore
SplineSet
436 1491 m 1,0,-1
 372 519 l 1,1,-1
 236 500 l 1,2,-1
 211 528 l 1,3,-1
 204 1482 l 1,4,-1
 225 1510 l 1,5,-1
 409 1521 l 1,6,-1
 436 1491 l 1,0,-1
278 248 m 0,7,8
 336 248 336 248 367.5 214.5 c 128,-1,9
 399 181 399 181 399 122 c 0,10,11
 399 60 399 60 364.5 23.5 c 128,-1,12
 330 -13 330 -13 271 -13 c 0,13,14
 211 -13 211 -13 177.5 20.5 c 128,-1,15
 144 54 144 54 144 114.5 c 128,-1,16
 144 175 144 175 180.5 211.5 c 128,-1,17
 217 248 217 248 278 248 c 0,7,8
EndSplineSet
EndChar

StartChar: quotedbl
Encoding: 34 34 5
Width: 710
GlyphClass: 2
Flags: W
LayerCount: 2
Fore
SplineSet
324 1449 m 1,0,-1
 259 996 l 1,1,-1
 144 979 l 1,2,-1
 127 996 l 1,3,-1
 129 1454 l 1,4,-1
 307 1468 l 1,5,-1
 324 1449 l 1,0,-1
617 1449 m 1,6,-1
 551 996 l 1,7,-1
 436 979 l 1,8,-1
 418 996 l 1,9,-1
 422 1454 l 1,10,-1
 601 1468 l 1,11,-1
 617 1449 l 1,6,-1
EndSplineSet
EndChar

StartChar: numbersign
Encoding: 35 35 6
Width: 1212
GlyphClass: 2
Flags: W
LayerCount: 2
Fore
SplineSet
902 828 m 1,0,-1
 847 573 l 1,1,-1
 1073 573 l 1,2,-1
 1090 558 l 1,3,-1
 1079 433 l 1,4,-1
 816 433 l 1,5,-1
 741 74 l 1,6,-1
 606 74 l 1,7,-1
 591 92 l 1,8,-1
 665 433 l 1,9,-1
 422 433 l 1,10,-1
 346 74 l 1,11,-1
 208 74 l 1,12,-1
 197 92 l 1,13,-1
 271 433 l 1,14,-1
 62 433 l 1,15,-1
 46 449 l 1,16,-1
 57 573 l 1,17,-1
 298 573 l 1,18,-1
 353 828 l 1,19,-1
 140 828 l 1,20,-1
 124 844 l 1,21,-1
 136 968 l 1,22,-1
 383 968 l 1,23,-1
 457 1317 l 1,24,-1
 589 1317 l 1,25,-1
 606 1296 l 1,26,-1
 536 968 l 1,27,-1
 777 968 l 1,28,-1
 851 1317 l 1,29,-1
 984 1317 l 1,30,-1
 1000 1296 l 1,31,-1
 931 968 l 1,32,-1
 1154 968 l 1,33,-1
 1167 952 l 1,34,-1
 1156 828 l 1,35,-1
 902 828 l 1,0,-1
748 828 m 1,36,-1
 507 828 l 1,37,-1
 451 573 l 1,38,-1
 692 573 l 1,39,-1
 748 828 l 1,36,-1
EndSplineSet
EndChar

StartChar: dollar
Encoding: 36 36 7
Width: 1011
GlyphClass: 2
Flags: W
LayerCount: 2
Fore
SplineSet
888 330 m 0,0,1
 888 249 888 249 849 178.5 c 128,-1,2
 810 108 810 108 728 57 c 128,-1,3
 646 6 646 6 534 -9 c 1,4,-1
 512 -302 l 1,5,-1
 396 -302 l 1,6,-1
 379 -282 l 1,7,-1
 399 -11 l 1,8,9
 236 0 236 0 99 59 c 1,10,-1
 124 256 l 1,11,-1
 149 269 l 1,12,13
 203 218 203 218 273 184 c 128,-1,14
 343 150 343 150 411 140 c 1,15,-1
 438 503 l 1,16,17
 400 519 400 519 373.5 530.5 c 128,-1,18
 347 542 347 542 312.5 561 c 128,-1,19
 278 580 278 580 254 597.5 c 128,-1,20
 230 615 230 615 205 639.5 c 128,-1,21
 180 664 180 664 165 690.5 c 128,-1,22
 150 717 150 717 140.5 751 c 128,-1,23
 131 785 131 785 131 823 c 0,24,25
 131 953 131 953 227.5 1045 c 128,-1,26
 324 1137 324 1137 488 1154 c 1,27,-1
 512 1475 l 1,28,-1
 626 1475 l 1,29,-1
 650 1454 l 1,30,-1
 626 1156 l 1,31,32
 745 1145 745 1145 856 1101 c 1,33,-1
 823 917 l 1,34,-1
 792 911 l 1,35,36
 707 976 707 976 615 998 c 1,37,-1
 587 650 l 1,38,39
 639 628 639 628 675.5 610 c 128,-1,40
 712 592 712 592 755.5 562.5 c 128,-1,41
 799 533 799 533 825.5 502 c 128,-1,42
 852 471 852 471 870 426.5 c 128,-1,43
 888 382 888 382 888 330 c 0,0,1
324 851 m 0,44,45
 324 827 324 827 333.5 806 c 128,-1,46
 343 785 343 785 361 767.5 c 128,-1,47
 379 750 379 750 401.5 736 c 128,-1,48
 424 722 424 722 455 707 c 1,49,-1
 477 1002 l 1,50,51
 405 990 405 990 364.5 946 c 128,-1,52
 324 902 324 902 324 851 c 0,44,45
569 442 m 1,53,-1
 545 140 l 1,54,55
 590 151 590 151 624.5 175 c 128,-1,56
 659 199 659 199 677.5 230.5 c 128,-1,57
 696 262 696 262 696 296 c 0,58,59
 696 342 696 342 663 377 c 128,-1,60
 630 412 630 412 569 442 c 1,53,-1
EndSplineSet
EndChar

StartChar: percent
Encoding: 37 37 8
Width: 1917
GlyphClass: 2
Flags: W
LayerCount: 2
Fore
SplineSet
1497 1502 m 1,0,-1
 1514 1468 l 1,1,-1
 438 -208 l 1,2,-1
 335 -149 l 1,3,-1
 324 -119 l 1,4,-1
 1399 1562 l 1,5,-1
 1497 1502 l 1,0,-1
442 1486 m 0,6,7
 602 1486 602 1486 687.5 1383.5 c 128,-1,8
 773 1281 773 1281 773 1090 c 0,9,10
 773 882 773 882 682.5 773.5 c 128,-1,11
 592 665 592 665 418 665 c 0,12,13
 256 665 256 665 169.5 768 c 128,-1,14
 83 871 83 871 83 1062 c 0,15,16
 83 1199 83 1199 124.5 1294 c 128,-1,17
 166 1389 166 1389 246.5 1437.5 c 128,-1,18
 327 1486 327 1486 442 1486 c 0,6,7
427 1324 m 0,19,20
 239 1324 239 1324 239 1079 c 0,21,22
 239 946 239 946 285.5 881 c 128,-1,23
 332 816 332 816 429 816 c 0,24,25
 619 816 619 816 619 1066 c 0,26,27
 619 1324 619 1324 427 1324 c 0,19,20
1502 810 m 0,28,29
 1581 810 1581 810 1643 783.5 c 128,-1,30
 1705 757 1705 757 1747 707 c 128,-1,31
 1789 657 1789 657 1810.5 582.5 c 128,-1,32
 1832 508 1832 508 1832 413 c 0,33,34
 1832 206 1832 206 1741.5 97.5 c 128,-1,35
 1651 -11 1651 -11 1477 -11 c 0,36,37
 1315 -11 1315 -11 1228.5 92 c 128,-1,38
 1142 195 1142 195 1142 388 c 0,39,40
 1142 490 1142 490 1166 569 c 128,-1,41
 1190 648 1190 648 1235.5 701.5 c 128,-1,42
 1281 755 1281 755 1348 782.5 c 128,-1,43
 1415 810 1415 810 1502 810 c 0,28,29
1486 647 m 0,44,45
 1392 647 1392 647 1346 586 c 128,-1,46
 1300 525 1300 525 1300 401 c 0,47,48
 1300 268 1300 268 1346 204 c 128,-1,49
 1392 140 1392 140 1488 140 c 0,50,51
 1679 140 1679 140 1679 390 c 0,52,53
 1679 520 1679 520 1631 583.5 c 128,-1,54
 1583 647 1583 647 1486 647 c 0,44,45
EndSplineSet
EndChar

StartChar: ampersand
Encoding: 38 38 9
Width: 1607
GlyphClass: 2
Flags: W
LayerCount: 2
Fore
SplineSet
1236 810 m 1,0,-1
 1230 792 l 1,1,2
 1271 669 1271 669 1271 548 c 0,3,4
 1271 406 1271 406 1215 287 c 1,5,-1
 1519 18 l 1,6,-1
 1519 2 l 1,7,8
 1454 -66 1454 -66 1388 -103 c 1,9,-1
 1372 -101 l 1,10,-1
 1108 138 l 1,11,12
 938 -18 938 -18 654 -18 c 0,13,14
 495 -18 495 -18 374 30.5 c 128,-1,15
 253 79 253 79 186 172 c 128,-1,16
 119 265 119 265 119 390 c 0,17,18
 119 641 119 641 383 775 c 1,19,-1
 383 786 l 1,20,21
 302 867 302 867 264.5 947.5 c 128,-1,22
 227 1028 227 1028 227 1121 c 0,23,24
 227 1233 227 1233 279 1314.5 c 128,-1,25
 331 1396 331 1396 433.5 1441 c 128,-1,26
 536 1486 536 1486 681 1486 c 0,27,28
 885 1486 885 1486 1048 1411 c 1,29,-1
 996 1239 l 1,30,-1
 963 1239 l 1,31,32
 821 1322 821 1322 676 1322 c 0,33,34
 556 1322 556 1322 492.5 1266 c 128,-1,35
 429 1210 429 1210 429 1108 c 0,36,37
 429 1042 429 1042 460.5 986 c 128,-1,38
 492 930 492 930 569 865 c 1,39,-1
 1088 403 l 1,40,41
 1114 479 1114 479 1114 576 c 0,42,43
 1114 703 1114 703 1062 810 c 1,44,-1
 908 810 l 1,45,-1
 897 825 l 1,46,-1
 915 974 l 1,47,-1
 1574 974 l 1,48,-1
 1587 959 l 1,49,-1
 1571 810 l 1,50,-1
 1236 810 l 1,0,-1
676 147 m 0,51,52
 866 147 866 147 982 248 c 1,53,-1
 486 696 l 1,54,55
 407 648 407 648 364 579.5 c 128,-1,56
 321 511 321 511 321 427 c 0,57,58
 321 294 321 294 416.5 220.5 c 128,-1,59
 512 147 512 147 676 147 c 0,51,52
EndSplineSet
EndChar

StartChar: quotesingle
Encoding: 39 39 10
Width: 416
GlyphClass: 2
Flags: W
LayerCount: 2
Fore
SplineSet
324 1449 m 1,0,-1
 259 996 l 1,1,-1
 144 979 l 1,2,-1
 127 996 l 1,3,-1
 129 1454 l 1,4,-1
 307 1468 l 1,5,-1
 324 1449 l 1,0,-1
EndSplineSet
Substitution2: "'locl' Localized Forms in Latin lookup 12 subtable" puso
Substitution2: "'locl' Localized Forms in Latin lookup 10 subtable" puso
Substitution2: "'aalt' Access All Alternates lookup 0 subtable" puso
EndChar

StartChar: parenleft
Encoding: 40 40 11
Width: 666
GlyphClass: 2
Flags: W
LayerCount: 2
Fore
SplineSet
656 1443 m 1,0,-1
 656 1422 l 1,1,2
 553 1336 553 1336 489.5 1222 c 128,-1,3
 426 1108 426 1108 396 954 c 128,-1,4
 366 800 366 800 365 587 c 1,5,6
 366 381 366 381 396 231.5 c 128,-1,7
 426 82 426 82 489 -29 c 128,-1,8
 552 -140 552 -140 656 -227 c 1,9,-1
 656 -248 l 1,10,-1
 573 -321 l 1,11,-1
 551 -321 l 1,12,13
 353 -177 353 -177 266 34.5 c 128,-1,14
 179 246 179 246 177 585 c 1,15,16
 179 936 179 936 266 1154.5 c 128,-1,17
 353 1373 353 1373 551 1519 c 1,18,-1
 573 1519 l 1,19,-1
 656 1443 l 1,0,-1
EndSplineSet
EndChar

StartChar: parenright
Encoding: 41 41 12
Width: 666
GlyphClass: 2
Flags: W
LayerCount: 2
Fore
SplineSet
11 -248 m 1,0,-1
 11 -227 l 1,1,2
 115 -141 115 -141 178 -27 c 128,-1,3
 241 87 241 87 271 241 c 128,-1,4
 301 395 301 395 302 608 c 1,5,6
 301 915 301 915 233.5 1104 c 128,-1,7
 166 1293 166 1293 11 1422 c 1,8,-1
 11 1443 l 1,9,-1
 94 1519 l 1,10,-1
 116 1519 l 1,11,12
 315 1373 315 1373 402 1161 c 128,-1,13
 489 949 489 949 491 610 c 1,14,15
 489 259 489 259 401.5 41 c 128,-1,16
 314 -177 314 -177 116 -321 c 1,17,-1
 94 -321 l 1,18,-1
 11 -248 l 1,0,-1
EndSplineSet
EndChar

StartChar: asterisk
Encoding: 42 42 13
Width: 866
GlyphClass: 2
Flags: W
LayerCount: 2
Fore
SplineSet
534 1674 m 1,0,-1
 475 1397 l 1,1,-1
 388 1388 l 1,2,-1
 374 1403 l 1,3,-1
 367 1665 l 1,4,5
 434 1690 434 1690 523 1690 c 1,6,-1
 534 1674 l 1,0,-1
342 1370 m 1,7,-1
 330 1285 l 1,8,-1
 309 1276 l 1,9,-1
 74 1351 l 1,10,11
 74 1447 74 1447 96 1510 c 1,12,-1
 112 1514 l 1,13,-1
 342 1370 l 1,7,-1
510 1374 m 1,14,-1
 741 1462 l 1,15,16
 788 1392 788 1392 814 1319 c 1,17,-1
 803 1305 l 1,18,-1
 539 1276 l 1,19,-1
 500 1353 l 1,20,-1
 510 1374 l 1,14,-1
528 1230 m 1,21,-1
 674 1020 l 1,22,23
 644 971 644 971 567 906 c 1,24,-1
 545 911 l 1,25,-1
 442 1177 l 1,26,-1
 505 1232 l 1,27,-1
 528 1230 l 1,21,-1
399 1191 m 1,28,-1
 401 1167 l 1,29,-1
 269 952 l 1,30,31
 218 966 218 966 124 1023 c 1,32,-1
 124 1042 l 1,33,-1
 324 1230 l 1,34,-1
 399 1191 l 1,28,-1
EndSplineSet
EndChar

StartChar: plus
Encoding: 43 43 14
Width: 1100
GlyphClass: 2
Flags: W
LayerCount: 2
Fore
SplineSet
631 1073 m 1,0,-1
 631 683 l 1,1,-1
 1020 683 l 1,2,-1
 1037 668 l 1,3,-1
 1025 523 l 1,4,-1
 631 523 l 1,5,-1
 631 129 l 1,6,-1
 488 116 l 1,7,-1
 470 133 l 1,8,-1
 470 523 l 1,9,-1
 81 523 l 1,10,-1
 64 539 l 1,11,-1
 76 683 l 1,12,-1
 470 683 l 1,13,-1
 470 1079 l 1,14,-1
 615 1092 l 1,15,-1
 631 1073 l 1,0,-1
EndSplineSet
EndChar

StartChar: comma
Encoding: 44 44 15
Width: 524
GlyphClass: 2
Flags: W
LayerCount: 2
Fore
SplineSet
307 243 m 1,0,1
 405 172 405 172 405 71 c 0,2,3
 405 -99 405 -99 162 -273 c 1,4,-1
 87 -204 l 1,5,-1
 85 -186 l 1,6,7
 211 -85 211 -85 211 26 c 0,8,9
 211 96 211 96 140 147 c 1,10,-1
 140 168 l 1,11,12
 224 222 224 222 307 243 c 1,0,1
EndSplineSet
EndChar

StartChar: hyphen
Encoding: 45 45 16
Width: 701
GlyphClass: 2
Flags: W
LayerCount: 2
Fore
SplineSet
635 688 m 1,0,-1
 635 541 l 1,1,-1
 85 459 l 1,2,-1
 64 479 l 1,3,-1
 64 626 l 1,4,-1
 615 707 l 1,5,-1
 635 688 l 1,0,-1
EndSplineSet
EndChar

StartChar: period
Encoding: 46 46 17
Width: 524
GlyphClass: 2
Flags: W
LayerCount: 2
Fore
SplineSet
267 248 m 0,0,1
 325 248 325 248 356.5 214.5 c 128,-1,2
 388 181 388 181 388 122 c 0,3,4
 388 60 388 60 353 23.5 c 128,-1,5
 318 -13 318 -13 259 -13 c 0,6,7
 198 -13 198 -13 165.5 20 c 128,-1,8
 133 53 133 53 133 114 c 0,9,10
 133 154 133 154 149 184.5 c 128,-1,11
 165 215 165 215 195.5 231.5 c 128,-1,12
 226 248 226 248 267 248 c 0,0,1
EndSplineSet
EndChar

StartChar: slash
Encoding: 47 47 18
Width: 655
GlyphClass: 2
Flags: W
LayerCount: 2
Fore
SplineSet
676 1534 m 1,0,-1
 206 -261 l 1,1,-1
 44 -261 l 1,2,-1
 30 -241 l 1,3,-1
 500 1558 l 1,4,-1
 659 1558 l 1,5,-1
 676 1534 l 1,0,-1
EndSplineSet
Substitution2: "'frac' Diagonal Fractions lookup 19 subtable" fraction
Substitution2: "'aalt' Access All Alternates lookup 0 subtable" fraction
EndChar

StartChar: zero
Encoding: 48 48 19
Width: 1088
GlyphClass: 2
Flags: W
LayerCount: 2
Fore
SplineSet
560 1357 m 0,0,1
 776 1357 776 1357 891.5 1183 c 128,-1,2
 1007 1009 1007 1009 1007 685 c 0,3,4
 1007 346 1007 346 884.5 164 c 128,-1,5
 762 -18 762 -18 532 -18 c 0,6,7
 314 -18 314 -18 197.5 156.5 c 128,-1,8
 81 331 81 331 81 656 c 0,9,10
 81 993 81 993 205.5 1175 c 128,-1,11
 330 1357 330 1357 560 1357 c 0,0,1
541 1140 m 0,12,13
 402 1140 402 1140 331.5 1021.5 c 128,-1,14
 261 903 261 903 261 672 c 0,15,16
 261 188 261 188 545 188 c 0,17,18
 685 188 685 188 755 307 c 128,-1,19
 825 426 825 426 825 659 c 0,20,21
 825 898 825 898 753.5 1019 c 128,-1,22
 682 1140 682 1140 541 1140 c 0,12,13
EndSplineSet
Substitution2: "'case' Case-Sensitive Forms lookup 28 subtable" zero.lf
Substitution2: "'tnum' Tabular Numbers lookup 25 subtable" zero.tosf
Substitution2: "'lnum' Lining Figures lookup 23 subtable" zero.lf
Substitution2: "'frac' Diagonal Fractions lookup 20 subtable" zero.numr
Substitution2: "'dnom' Denominators lookup 18 subtable" zero.dnom
Substitution2: "'numr' Numerators lookup 17 subtable" zero.numr
Substitution2: "'sups' Superscript lookup 16 subtable" zerosuperior
Substitution2: "'sinf' Scientific Inferiors lookup 15 subtable" zero.sinf
AlternateSubs2: "'aalt' Access All Alternates lookup 1 subtable" zero.sinf zerosuperior zero.numr zero.dnom zero.lf zero.tosf
EndChar

StartChar: one
Encoding: 49 49 20
Width: 1088
GlyphClass: 2
Flags: W
LayerCount: 2
Fore
SplineSet
704 1337 m 1,0,-1
 690 475 l 1,1,-1
 702 0 l 1,2,-1
 466 0 l 1,3,-1
 479 449 l 1,4,-1
 477 1094 l 1,5,-1
 103 1018 l 1,6,-1
 83 1030 l 1,7,-1
 83 1215 l 1,8,-1
 670 1363 l 1,9,-1
 704 1337 l 1,0,-1
EndSplineSet
Substitution2: "'ss02' Style Set 2 lookup 36 subtable" arrowleft
Substitution2: "'case' Case-Sensitive Forms lookup 28 subtable" one.lf
Substitution2: "'tnum' Tabular Numbers lookup 25 subtable" one.tosf
Substitution2: "'lnum' Lining Figures lookup 23 subtable" one.lf
Substitution2: "'frac' Diagonal Fractions lookup 20 subtable" one.numr
Substitution2: "'dnom' Denominators lookup 18 subtable" one.dnom
Substitution2: "'numr' Numerators lookup 17 subtable" one.numr
Substitution2: "'sups' Superscript lookup 16 subtable" onesuperior
Substitution2: "'sinf' Scientific Inferiors lookup 15 subtable" one.sinf
AlternateSubs2: "'aalt' Access All Alternates lookup 1 subtable" one.sinf onesuperior one.numr one.dnom one.lf one.tosf arrowleft
EndChar

StartChar: two
Encoding: 50 50 21
Width: 1088
GlyphClass: 2
Flags: W
LayerCount: 2
Fore
SplineSet
553 1360 m 0,0,1
 705 1360 705 1360 802 1276 c 128,-1,2
 899 1192 899 1192 899 1053 c 0,3,4
 899 949 899 949 835 826 c 128,-1,5
 771 703 771 703 624 507 c 1,6,-1
 394 195 l 1,7,-1
 399 186 l 1,8,-1
 814 186 l 1,9,-1
 1025 197 l 1,10,-1
 1039 177 l 1,11,-1
 1011 -11 l 1,12,-1
 748 0 l 1,13,-1
 199 0 l 1,14,-1
 108 -4 l 1,15,-1
 96 4 l 1,16,-1
 96 151 l 1,17,-1
 422 562 l 2,18,19
 478 634 478 634 507.5 674 c 128,-1,20
 537 714 537 714 573.5 767.5 c 128,-1,21
 610 821 610 821 627.5 856 c 128,-1,22
 645 891 645 891 657.5 929 c 128,-1,23
 670 967 670 967 670 1000 c 0,24,25
 670 1046 670 1046 650.5 1081.5 c 128,-1,26
 631 1117 631 1117 591.5 1138.5 c 128,-1,27
 552 1160 552 1160 497 1160 c 0,28,29
 415 1160 415 1160 330 1112.5 c 128,-1,30
 245 1065 245 1065 172 979 c 1,31,-1
 144 979 l 1,32,-1
 105 1160 l 1,33,34
 319 1360 319 1360 553 1360 c 0,0,1
EndSplineSet
Substitution2: "'ss02' Style Set 2 lookup 36 subtable" arrowup
Substitution2: "'case' Case-Sensitive Forms lookup 28 subtable" two.lf
Substitution2: "'tnum' Tabular Numbers lookup 25 subtable" two.tosf
Substitution2: "'lnum' Lining Figures lookup 23 subtable" two.lf
Substitution2: "'frac' Diagonal Fractions lookup 20 subtable" two.numr
Substitution2: "'dnom' Denominators lookup 18 subtable" two.dnom
Substitution2: "'numr' Numerators lookup 17 subtable" two.numr
Substitution2: "'sups' Superscript lookup 16 subtable" twosuperior
Substitution2: "'sinf' Scientific Inferiors lookup 15 subtable" two.sinf
AlternateSubs2: "'aalt' Access All Alternates lookup 1 subtable" two.sinf twosuperior two.numr two.dnom two.lf two.tosf arrowup
EndChar

StartChar: three
Encoding: 51 51 22
Width: 1088
GlyphClass: 2
Flags: W
LayerCount: 2
Fore
SplineSet
505 1365 m 0,0,1
 675 1365 675 1365 780.5 1282 c 128,-1,2
 886 1199 886 1199 886 1064 c 0,3,4
 886 970 886 970 827.5 880 c 128,-1,5
 769 790 769 790 652 729 c 1,6,-1
 652 720 l 1,7,8
 744 697 744 697 806.5 655.5 c 128,-1,9
 869 614 869 614 901.5 554 c 128,-1,10
 934 494 934 494 934 418 c 0,11,12
 934 291 934 291 864 192 c 128,-1,13
 794 93 794 93 666 38.5 c 128,-1,14
 538 -16 538 -16 374 -16 c 0,15,16
 254 -16 254 -16 131 7 c 1,17,-1
 116 197 l 1,18,-1
 133 213 l 1,19,20
 256 165 256 165 383 165 c 0,21,22
 532 165 532 165 620.5 228 c 128,-1,23
 709 291 709 291 709 399 c 0,24,25
 709 437 709 437 698 468.5 c 128,-1,26
 687 500 687 500 664.5 524.5 c 128,-1,27
 642 549 642 549 609.5 566.5 c 128,-1,28
 577 584 577 584 533 594 c 128,-1,29
 489 604 489 604 436 606 c 1,30,-1
 287 606 l 1,31,-1
 273 622 l 1,32,-1
 278 782 l 1,33,-1
 381 784 l 2,34,35
 418 784 418 784 456.5 794.5 c 128,-1,36
 495 805 495 805 529.5 826 c 128,-1,37
 564 847 564 847 591 874.5 c 128,-1,38
 618 902 618 902 634 939 c 128,-1,39
 650 976 650 976 650 1016 c 0,40,41
 650 1089 650 1089 598 1132 c 128,-1,42
 546 1175 546 1175 459 1175 c 0,43,44
 387 1175 387 1175 318.5 1143.5 c 128,-1,45
 250 1112 250 1112 168 1048 c 1,46,-1
 142 1048 l 1,47,-1
 108 1228 l 1,48,49
 293 1365 293 1365 505 1365 c 0,0,1
EndSplineSet
Substitution2: "'ss02' Style Set 2 lookup 36 subtable" arrowright
Substitution2: "'case' Case-Sensitive Forms lookup 28 subtable" three.lf
Substitution2: "'tnum' Tabular Numbers lookup 25 subtable" three.tosf
Substitution2: "'lnum' Lining Figures lookup 23 subtable" three.lf
Substitution2: "'frac' Diagonal Fractions lookup 20 subtable" three.numr
Substitution2: "'dnom' Denominators lookup 18 subtable" three.dnom
Substitution2: "'numr' Numerators lookup 17 subtable" three.numr
Substitution2: "'sups' Superscript lookup 16 subtable" threesuperior
Substitution2: "'sinf' Scientific Inferiors lookup 15 subtable" three.sinf
AlternateSubs2: "'aalt' Access All Alternates lookup 1 subtable" three.sinf threesuperior three.numr three.dnom three.lf three.tosf arrowright
EndChar

StartChar: four
Encoding: 52 52 23
Width: 1088
GlyphClass: 2
Flags: W
LayerCount: 2
Fore
SplineSet
1005 355 m 1,0,-1
 808 361 l 1,1,-1
 819 18 l 1,2,-1
 805 0 l 1,3,-1
 624 -13 l 1,4,-1
 610 2 l 1,5,-1
 617 361 l 1,6,-1
 232 361 l 1,7,-1
 64 355 l 1,8,-1
 50 376 l 1,9,-1
 50 525 l 1,10,-1
 599 1344 l 1,11,-1
 810 1344 l 1,12,-1
 805 541 l 1,13,-1
 1000 541 l 1,14,-1
 1016 519 l 1,15,-1
 1005 355 l 1,0,-1
252 541 m 1,16,-1
 619 541 l 1,17,-1
 619 1071 l 1,18,-1
 601 1071 l 1,19,-1
 252 541 l 1,16,-1
EndSplineSet
Substitution2: "'ss02' Style Set 2 lookup 36 subtable" arrowdown
Substitution2: "'case' Case-Sensitive Forms lookup 28 subtable" four.lf
Substitution2: "'tnum' Tabular Numbers lookup 25 subtable" four.tosf
Substitution2: "'lnum' Lining Figures lookup 23 subtable" four.lf
Substitution2: "'frac' Diagonal Fractions lookup 20 subtable" four.numr
Substitution2: "'dnom' Denominators lookup 18 subtable" four.dnom
Substitution2: "'numr' Numerators lookup 17 subtable" four.numr
Substitution2: "'sups' Superscript lookup 16 subtable" foursuperior
Substitution2: "'sinf' Scientific Inferiors lookup 15 subtable" four.sinf
AlternateSubs2: "'aalt' Access All Alternates lookup 1 subtable" four.sinf foursuperior four.numr four.dnom four.lf four.tosf arrowdown
EndChar

StartChar: five
Encoding: 53 53 24
Width: 1088
GlyphClass: 2
Flags: W
LayerCount: 2
Fore
SplineSet
961 1340 m 1,0,-1
 939 1160 l 1,1,-1
 922 1145 l 1,2,-1
 748 1160 l 1,3,-1
 390 1160 l 1,4,-1
 379 847 l 1,5,-1
 534 814 l 1,6,7
 748 770 748 770 850 679.5 c 128,-1,8
 952 589 952 589 952 445 c 0,9,10
 952 306 952 306 877.5 201 c 128,-1,11
 803 96 803 96 667.5 39 c 128,-1,12
 532 -18 532 -18 353 -18 c 0,13,14
 254 -18 254 -18 114 7 c 1,15,-1
 96 175 l 1,16,-1
 114 193 l 1,17,18
 242 162 242 162 353 162 c 0,19,20
 525 162 525 162 628 233.5 c 128,-1,21
 731 305 731 305 731 424 c 0,22,23
 731 509 731 509 659.5 562 c 128,-1,24
 588 615 588 615 433 644 c 2,25,-1
 216 685 l 1,26,-1
 199 707 l 1,27,-1
 206 1319 l 1,28,-1
 239 1348 l 1,29,-1
 374 1344 l 1,30,-1
 731 1344 l 1,31,-1
 945 1355 l 1,32,-1
 961 1340 l 1,0,-1
EndSplineSet
Substitution2: "'ss02' Style Set 2 lookup 36 subtable" arrowupleft
Substitution2: "'case' Case-Sensitive Forms lookup 28 subtable" five.lf
Substitution2: "'tnum' Tabular Numbers lookup 25 subtable" five.tosf
Substitution2: "'lnum' Lining Figures lookup 23 subtable" five.lf
Substitution2: "'frac' Diagonal Fractions lookup 20 subtable" five.numr
Substitution2: "'dnom' Denominators lookup 18 subtable" five.dnom
Substitution2: "'numr' Numerators lookup 17 subtable" five.numr
Substitution2: "'sups' Superscript lookup 16 subtable" fivesuperior
Substitution2: "'sinf' Scientific Inferiors lookup 15 subtable" five.sinf
AlternateSubs2: "'aalt' Access All Alternates lookup 1 subtable" five.sinf fivesuperior five.numr five.dnom five.lf five.tosf arrowupleft
EndChar

StartChar: six
Encoding: 54 54 25
Width: 1088
GlyphClass: 2
Flags: W
LayerCount: 2
Fore
SplineSet
624 812 m 0,0,1
 739 812 739 812 824 761 c 128,-1,2
 909 710 909 710 952.5 622 c 128,-1,3
 996 534 996 534 996 420 c 0,4,5
 996 328 996 328 965 248 c 128,-1,6
 934 168 934 168 876 108 c 128,-1,7
 818 48 818 48 729.5 14 c 128,-1,8
 641 -20 641 -20 532 -20 c 0,9,10
 315 -20 315 -20 203.5 112.5 c 128,-1,11
 92 245 92 245 92 486 c 0,12,13
 92 774 92 774 267 1003 c 128,-1,14
 442 1232 442 1232 762 1365 c 1,15,-1
 775 1365 l 1,16,-1
 950 1259 l 1,17,-1
 950 1236 l 1,18,19
 687 1143 687 1143 541 1026 c 128,-1,20
 395 909 395 909 339 746 c 1,21,-1
 355 727 l 1,22,23
 482 812 482 812 624 812 c 0,0,1
548 138 m 0,24,25
 659 138 659 138 722.5 202.5 c 128,-1,26
 786 267 786 267 786 388 c 0,27,28
 786 511 786 511 727 577.5 c 128,-1,29
 668 644 668 644 558 644 c 0,30,31
 434 644 434 644 305 545 c 1,32,-1
 302 491 l 1,33,34
 302 311 302 311 360 224.5 c 128,-1,35
 418 138 418 138 548 138 c 0,24,25
EndSplineSet
Substitution2: "'ss02' Style Set 2 lookup 36 subtable" arrowupright
Substitution2: "'case' Case-Sensitive Forms lookup 28 subtable" six.lf
Substitution2: "'tnum' Tabular Numbers lookup 25 subtable" six.tosf
Substitution2: "'lnum' Lining Figures lookup 23 subtable" six.lf
Substitution2: "'frac' Diagonal Fractions lookup 20 subtable" six.numr
Substitution2: "'dnom' Denominators lookup 18 subtable" six.dnom
Substitution2: "'numr' Numerators lookup 17 subtable" six.numr
Substitution2: "'sups' Superscript lookup 16 subtable" sixsuperior
Substitution2: "'sinf' Scientific Inferiors lookup 15 subtable" six.sinf
AlternateSubs2: "'aalt' Access All Alternates lookup 1 subtable" six.sinf sixsuperior six.numr six.dnom six.lf six.tosf arrowupright
EndChar

StartChar: seven
Encoding: 55 55 26
Width: 1088
GlyphClass: 2
Flags: W
LayerCount: 2
Fore
SplineSet
330 1344 m 1,0,-1
 878 1344 l 1,1,-1
 989 1346 l 1,2,-1
 991 1177 l 1,3,-1
 543 276 l 1,4,-1
 422 -26 l 1,5,-1
 234 28 l 1,6,-1
 221 64 l 1,7,-1
 764 1149 l 1,8,-1
 289 1149 l 1,9,-1
 94 1136 l 1,10,-1
 81 1158 l 1,11,-1
 96 1348 l 1,12,-1
 330 1344 l 1,0,-1
EndSplineSet
Substitution2: "'ss02' Style Set 2 lookup 36 subtable" arrowdownright
Substitution2: "'case' Case-Sensitive Forms lookup 28 subtable" seven.lf
Substitution2: "'tnum' Tabular Numbers lookup 25 subtable" seven.tosf
Substitution2: "'lnum' Lining Figures lookup 23 subtable" seven.lf
Substitution2: "'frac' Diagonal Fractions lookup 20 subtable" seven.numr
Substitution2: "'dnom' Denominators lookup 18 subtable" seven.dnom
Substitution2: "'numr' Numerators lookup 17 subtable" seven.numr
Substitution2: "'sups' Superscript lookup 16 subtable" sevensuperior
Substitution2: "'sinf' Scientific Inferiors lookup 15 subtable" seven.sinf
AlternateSubs2: "'aalt' Access All Alternates lookup 1 subtable" seven.sinf sevensuperior seven.numr seven.dnom seven.lf seven.tosf arrowdownright
EndChar

StartChar: eight
Encoding: 56 56 27
Width: 1088
GlyphClass: 2
Flags: W
LayerCount: 2
Fore
SplineSet
567 1360 m 0,0,1
 740 1360 740 1360 839.5 1273 c 128,-1,2
 939 1186 939 1186 939 1035 c 0,3,4
 939 922 939 922 878 846 c 128,-1,5
 817 770 817 770 707 716 c 1,6,-1
 707 702 l 1,7,8
 754 681 754 681 789 662 c 128,-1,9
 824 643 824 643 861.5 613.5 c 128,-1,10
 899 584 899 584 922.5 551 c 128,-1,11
 946 518 946 518 961.5 471.5 c 128,-1,12
 977 425 977 425 977 370 c 0,13,14
 977 192 977 192 851.5 87 c 128,-1,15
 726 -18 726 -18 516 -18 c 0,16,17
 320 -18 320 -18 208 78 c 128,-1,18
 96 174 96 174 96 328 c 0,19,20
 96 381 96 381 111 427 c 128,-1,21
 126 473 126 473 150.5 508 c 128,-1,22
 175 543 175 543 211.5 573 c 128,-1,23
 248 603 248 603 287 624.5 c 128,-1,24
 326 646 326 646 374 665 c 1,25,-1
 374 676 l 1,26,27
 324 700 324 700 285.5 728 c 128,-1,28
 247 756 247 756 214.5 794 c 128,-1,29
 182 832 182 832 164.5 884 c 128,-1,30
 147 936 147 936 147 998 c 0,31,32
 147 1166 147 1166 262.5 1263 c 128,-1,33
 378 1360 378 1360 567 1360 c 0,0,1
553 1195 m 0,34,35
 455 1195 455 1195 397 1143.5 c 128,-1,36
 339 1092 339 1092 339 1005 c 0,37,38
 339 967 339 967 351.5 934.5 c 128,-1,39
 364 902 364 902 383 879.5 c 128,-1,40
 402 857 402 857 432.5 836.5 c 128,-1,41
 463 816 463 816 491.5 802.5 c 128,-1,42
 520 789 520 789 560 773 c 1,43,44
 603 793 603 793 634 813 c 128,-1,45
 665 833 665 833 693 861 c 128,-1,46
 721 889 721 889 735.5 927 c 128,-1,47
 750 965 750 965 750 1011 c 0,48,49
 750 1097 750 1097 698 1146 c 128,-1,50
 646 1195 646 1195 553 1195 c 0,34,35
521 601 m 1,51,52
 471 583 471 583 435.5 564 c 128,-1,53
 400 545 400 545 365.5 516 c 128,-1,54
 331 487 331 487 313.5 446.5 c 128,-1,55
 296 406 296 406 296 355 c 0,56,57
 296 259 296 259 360 201.5 c 128,-1,58
 424 144 424 144 536 144 c 0,59,60
 652 144 652 144 717 202.5 c 128,-1,61
 782 261 782 261 782 353 c 0,62,63
 782 383 782 383 774 409 c 128,-1,64
 766 435 766 435 754.5 454.5 c 128,-1,65
 743 474 743 474 721 493.5 c 128,-1,66
 699 513 699 513 681.5 525 c 128,-1,67
 664 537 664 537 631.5 553 c 128,-1,68
 599 569 599 569 579 577.5 c 128,-1,69
 559 586 559 586 521 601 c 1,51,52
EndSplineSet
Substitution2: "'ss02' Style Set 2 lookup 36 subtable" arrowdownleft
Substitution2: "'case' Case-Sensitive Forms lookup 28 subtable" eight.lf
Substitution2: "'tnum' Tabular Numbers lookup 25 subtable" eight.tosf
Substitution2: "'lnum' Lining Figures lookup 23 subtable" eight.lf
Substitution2: "'frac' Diagonal Fractions lookup 20 subtable" eight.numr
Substitution2: "'dnom' Denominators lookup 18 subtable" eight.dnom
Substitution2: "'numr' Numerators lookup 17 subtable" eight.numr
Substitution2: "'sups' Superscript lookup 16 subtable" eightsuperior
Substitution2: "'sinf' Scientific Inferiors lookup 15 subtable" eight.sinf
AlternateSubs2: "'aalt' Access All Alternates lookup 1 subtable" eight.sinf eightsuperior eight.numr eight.dnom eight.lf eight.tosf arrowdownleft
EndChar

StartChar: nine
Encoding: 57 57 28
Width: 1088
GlyphClass: 2
Flags: W
LayerCount: 2
Fore
SplineSet
562 1365 m 0,0,1
 707 1365 707 1365 807 1304.5 c 128,-1,2
 907 1244 907 1244 956 1131 c 128,-1,3
 1005 1018 1005 1018 1005 858 c 0,4,5
 1005 572 1005 572 828.5 343.5 c 128,-1,6
 652 115 652 115 333 -18 c 1,7,-1
 321 -18 l 1,8,-1
 147 87 l 1,9,-1
 147 110 l 1,10,11
 409 203 409 203 554.5 320.5 c 128,-1,12
 700 438 700 438 755 601 c 1,13,-1
 738 619 l 1,14,15
 615 534 615 534 470 534 c 0,16,17
 355 534 355 534 270.5 585 c 128,-1,18
 186 636 186 636 143.5 724 c 128,-1,19
 101 812 101 812 101 926 c 0,20,21
 101 1019 101 1019 131.5 1098.5 c 128,-1,22
 162 1178 162 1178 219.5 1237.5 c 128,-1,23
 277 1297 277 1297 365 1331 c 128,-1,24
 453 1365 453 1365 562 1365 c 0,0,1
536 702 m 0,25,26
 667 702 667 702 790 799 c 1,27,-1
 792 856 l 1,28,29
 792 1035 792 1035 734 1121.5 c 128,-1,30
 676 1208 676 1208 545 1208 c 0,31,32
 434 1208 434 1208 371.5 1143.5 c 128,-1,33
 309 1079 309 1079 309 959 c 0,34,35
 309 835 309 835 368 768.5 c 128,-1,36
 427 702 427 702 536 702 c 0,25,26
EndSplineSet
Substitution2: "'case' Case-Sensitive Forms lookup 28 subtable" nine.lf
Substitution2: "'tnum' Tabular Numbers lookup 25 subtable" nine.tosf
Substitution2: "'lnum' Lining Figures lookup 23 subtable" nine.lf
Substitution2: "'frac' Diagonal Fractions lookup 20 subtable" nine.numr
Substitution2: "'dnom' Denominators lookup 18 subtable" nine.dnom
Substitution2: "'numr' Numerators lookup 17 subtable" nine.numr
Substitution2: "'sups' Superscript lookup 16 subtable" ninesuperior
Substitution2: "'sinf' Scientific Inferiors lookup 15 subtable" nine.sinf
AlternateSubs2: "'aalt' Access All Alternates lookup 1 subtable" nine.sinf ninesuperior nine.numr nine.dnom nine.lf nine.tosf
EndChar

StartChar: colon
Encoding: 58 58 29
Width: 524
GlyphClass: 2
Flags: W
LayerCount: 2
Fore
SplineSet
256 860 m 0,0,1
 315 860 315 860 347 826.5 c 128,-1,2
 379 793 379 793 379 734 c 0,3,4
 379 692 379 692 363 662 c 128,-1,5
 347 632 347 632 317.5 615.5 c 128,-1,6
 288 599 288 599 248 599 c 0,7,8
 218 599 218 599 195 607.5 c 128,-1,9
 172 616 172 616 156.5 632.5 c 128,-1,10
 141 649 141 649 132.5 672 c 128,-1,11
 124 695 124 695 124 725 c 0,12,13
 124 787 124 787 159.5 823.5 c 128,-1,14
 195 860 195 860 256 860 c 0,0,1
256 248 m 0,15,16
 295 248 295 248 322.5 232.5 c 128,-1,17
 350 217 350 217 364.5 189 c 128,-1,18
 379 161 379 161 379 122 c 0,19,20
 379 60 379 60 343.5 23.5 c 128,-1,21
 308 -13 308 -13 248 -13 c 0,22,23
 189 -13 189 -13 156.5 20.5 c 128,-1,24
 124 54 124 54 124 114 c 0,25,26
 124 144 124 144 133 169 c 128,-1,27
 142 194 142 194 159 211.5 c 128,-1,28
 176 229 176 229 201 238.5 c 128,-1,29
 226 248 226 248 256 248 c 0,15,16
EndSplineSet
EndChar

StartChar: semicolon
Encoding: 59 59 30
Width: 524
GlyphClass: 2
Flags: W
LayerCount: 2
Fore
SplineSet
256 860 m 0,0,1
 315 860 315 860 347 826.5 c 128,-1,2
 379 793 379 793 379 734 c 0,3,4
 379 692 379 692 363 662 c 128,-1,5
 347 632 347 632 317.5 615.5 c 128,-1,6
 288 599 288 599 248 599 c 0,7,8
 218 599 218 599 195 607.5 c 128,-1,9
 172 616 172 616 156.5 632.5 c 128,-1,10
 141 649 141 649 132.5 672 c 128,-1,11
 124 695 124 695 124 725 c 0,12,13
 124 787 124 787 159.5 823.5 c 128,-1,14
 195 860 195 860 256 860 c 0,0,1
298 243 m 1,15,16
 396 172 396 172 396 71 c 0,17,18
 396 -99 396 -99 153 -273 c 1,19,-1
 76 -204 l 1,20,-1
 76 -186 l 1,21,22
 202 -83 202 -83 202 26 c 0,23,24
 202 93 202 93 131 147 c 1,25,-1
 131 168 l 1,26,27
 215 222 215 222 298 243 c 1,15,16
EndSplineSet
EndChar

StartChar: less
Encoding: 60 60 31
Width: 1100
GlyphClass: 2
Flags: W
LayerCount: 2
Fore
SplineSet
1016 936 m 1,0,-1
 1005 915 l 1,1,-1
 254 615 l 1,2,-1
 254 601 l 1,3,-1
 1009 317 l 1,4,-1
 974 184 l 1,5,-1
 952 168 l 1,6,-1
 81 507 l 1,7,-1
 81 698 l 1,8,-1
 99 720 l 1,9,-1
 965 1068 l 1,10,-1
 1016 936 l 1,0,-1
EndSplineSet
EndChar

StartChar: equal
Encoding: 61 61 32
Width: 1100
GlyphClass: 2
Flags: W
LayerCount: 2
Fore
SplineSet
1037 867 m 1,0,-1
 1025 725 l 1,1,-1
 81 725 l 1,2,-1
 64 741 l 1,3,-1
 76 883 l 1,4,-1
 1020 883 l 1,5,-1
 1037 867 l 1,0,-1
1037 466 m 1,6,-1
 1025 321 l 1,7,-1
 81 321 l 1,8,-1
 64 337 l 1,9,-1
 76 482 l 1,10,-1
 1020 482 l 1,11,-1
 1037 466 l 1,6,-1
EndSplineSet
EndChar

StartChar: greater
Encoding: 62 62 33
Width: 1100
GlyphClass: 2
Flags: W
LayerCount: 2
Fore
SplineSet
1002 720 m 1,0,-1
 1020 698 l 1,1,-1
 1020 507 l 1,2,-1
 149 168 l 1,3,-1
 127 184 l 1,4,-1
 92 317 l 1,5,-1
 847 601 l 1,6,-1
 847 615 l 1,7,-1
 96 915 l 1,8,-1
 85 936 l 1,9,-1
 136 1068 l 1,10,-1
 1002 720 l 1,0,-1
EndSplineSet
EndChar

StartChar: question
Encoding: 63 63 34
Width: 768
GlyphClass: 2
Flags: W
LayerCount: 2
Fore
SplineSet
170 1512 m 1,0,-1
 195 1523 l 1,1,2
 480 1508 480 1508 636 1413 c 128,-1,3
 792 1318 792 1318 792 1158 c 0,4,5
 792 1067 792 1067 740 987.5 c 128,-1,6
 688 908 688 908 591 849 c 1,7,-1
 413 734 l 1,8,-1
 409 725 l 1,9,-1
 422 514 l 1,10,-1
 256 493 l 1,11,-1
 239 512 l 1,12,-1
 221 780 l 1,13,-1
 232 803 l 1,14,-1
 445 922 l 1,15,16
 580 1000 580 1000 580 1121 c 0,17,18
 580 1226 580 1226 473.5 1285 c 128,-1,19
 367 1344 367 1344 142 1357 c 1,20,-1
 127 1381 l 1,21,-1
 170 1512 l 1,0,-1
346 248 m 0,22,23
 405 248 405 248 437.5 214.5 c 128,-1,24
 470 181 470 181 470 122 c 0,25,26
 470 60 470 60 435 23.5 c 128,-1,27
 400 -13 400 -13 339 -13 c 0,28,29
 279 -13 279 -13 247.5 20 c 128,-1,30
 216 53 216 53 216 114 c 128,-1,31
 216 175 216 175 251 211.5 c 128,-1,32
 286 248 286 248 346 248 c 0,22,23
EndSplineSet
EndChar

StartChar: at
Encoding: 64 64 35
Width: 1909
GlyphClass: 2
Flags: W
LayerCount: 2
Fore
SplineSet
1849 698 m 0,0,1
 1849 368 1849 368 1638.5 186.5 c 128,-1,2
 1428 5 1428 5 1035 -7 c 1,3,-1
 1094 418 l 1,4,-1
 1068 418 l 1,5,6
 904 140 904 140 741 -18 c 1,7,-1
 704 -18 l 1,8,9
 636 15 636 15 591.5 66.5 c 128,-1,10
 547 118 547 118 526 187.5 c 128,-1,11
 505 257 505 257 505 348 c 0,12,13
 505 441 505 441 526 533 c 128,-1,14
 547 625 547 625 591 712 c 128,-1,15
 635 799 635 799 698 870 c 128,-1,16
 761 941 761 941 851 992.5 c 128,-1,17
 941 1044 941 1044 1048 1064 c 1,18,-1
 1060 1064 l 1,19,-1
 1217 1014 l 1,20,-1
 1348 1066 l 1,21,-1
 1374 1055 l 1,22,-1
 1259 254 l 1,23,-1
 1254 160 l 1,24,25
 1461 188 1461 188 1576.5 327.5 c 128,-1,26
 1692 467 1692 467 1692 690 c 0,27,28
 1692 823 1692 823 1646 933.5 c 128,-1,29
 1600 1044 1600 1044 1516.5 1121.5 c 128,-1,30
 1433 1199 1433 1199 1310.5 1240 c 128,-1,31
 1188 1281 1188 1281 1039 1278 c 0,32,33
 860 1275 860 1275 709 1213 c 128,-1,34
 558 1151 558 1151 454 1043 c 128,-1,35
 350 935 350 935 292 784 c 128,-1,36
 234 633 234 633 234 457 c 0,37,38
 234 274 234 274 297 125.5 c 128,-1,39
 360 -23 360 -23 474 -123 c 128,-1,40
 588 -223 588 -223 750.5 -276.5 c 128,-1,41
 913 -330 913 -330 1110 -330 c 1,42,-1
 1119 -353 l 1,43,-1
 1051 -466 l 1,44,45
 832 -463 832 -463 652 -401.5 c 128,-1,46
 472 -340 472 -340 344 -227 c 128,-1,47
 216 -114 216 -114 146 53 c 128,-1,48
 76 220 76 220 76 427 c 0,49,50
 76 571 76 571 108 703 c 128,-1,51
 140 835 140 835 199.5 945.5 c 128,-1,52
 259 1056 259 1056 346.5 1146 c 128,-1,53
 434 1236 434 1236 542.5 1298.5 c 128,-1,54
 651 1361 651 1361 784 1395 c 128,-1,55
 917 1429 917 1429 1064 1429 c 0,56,57
 1240 1429 1240 1429 1386.5 1377 c 128,-1,58
 1533 1325 1533 1325 1635 1230.5 c 128,-1,59
 1737 1136 1737 1136 1793 999.5 c 128,-1,60
 1849 863 1849 863 1849 698 c 0,0,1
764 208 m 0,61,62
 777 208 777 208 799 224.5 c 128,-1,63
 821 241 821 241 849.5 272.5 c 128,-1,64
 878 304 878 304 913.5 354.5 c 128,-1,65
 949 405 949 405 987 467.5 c 128,-1,66
 1025 530 1025 530 1067.5 615 c 128,-1,67
 1110 700 1110 700 1149 794 c 1,68,-1
 1151 812 l 1,69,-1
 1154 842 l 1,70,-1
 1007 897 l 1,71,72
 912 897 912 897 841.5 832.5 c 128,-1,73
 771 768 771 768 735.5 659.5 c 128,-1,74
 700 551 700 551 700 416 c 0,75,76
 700 357 700 357 705.5 315 c 128,-1,77
 711 273 711 273 720.5 250.5 c 128,-1,78
 730 228 730 228 741 218 c 128,-1,79
 752 208 752 208 764 208 c 0,61,62
EndSplineSet
EndChar

StartChar: A
Encoding: 65 65 36
Width: 1346
GlyphClass: 2
Flags: W
AnchorPoint: "Anchor-1" 0 0 basechar 0
AnchorPoint: "Anchor-0" 676 1472 basechar 0
LayerCount: 2
Fore
SplineSet
1303 0 m 1,0,-1
 1060 0 l 1,1,-1
 1025 165 l 1,2,-1
 961 370 l 1,3,-1
 650 376 l 1,4,-1
 367 370 l 1,5,-1
 298 177 l 1,6,-1
 261 0 l 1,7,-1
 26 0 l 1,8,-1
 551 1473 l 1,9,-1
 828 1473 l 1,10,-1
 1303 0 l 1,0,-1
902 562 m 1,11,-1
 690 1241 l 1,12,-1
 674 1241 l 1,13,-1
 433 562 l 1,14,-1
 665 558 l 1,15,-1
 902 562 l 1,11,-1
EndSplineSet
Position2: "'cpsp' Capital Spacing lookup 0 subtable" dx=16 dy=0 dh=33 dv=0
EndChar

StartChar: B
Encoding: 66 66 37
Width: 1270
GlyphClass: 2
Flags: W
LayerCount: 2
Fore
SplineSet
886 766 m 1,0,1
 1040 733 1040 733 1114 646 c 128,-1,2
 1188 559 1188 559 1188 413 c 0,3,4
 1188 -9 1188 -9 558 -9 c 0,5,6
 340 -9 340 -9 199 0 c 1,7,-1
 197 0 l 1,8,-1
 213 442 l 1,9,-1
 197 1473 l 1,10,-1
 656 1475 l 2,11,12
 741 1475 741 1475 811.5 1460.5 c 128,-1,13
 882 1446 882 1446 936.5 1416 c 128,-1,14
 991 1386 991 1386 1028.5 1343 c 128,-1,15
 1066 1300 1066 1300 1085.5 1241.5 c 128,-1,16
 1105 1183 1105 1183 1105 1112 c 0,17,18
 1105 989 1105 989 1048 900 c 128,-1,19
 991 811 991 811 886 766 c 1,0,1
862 1085 m 0,20,21
 862 1196 862 1196 800 1243.5 c 128,-1,22
 738 1291 738 1291 591 1291 c 2,23,-1
 436 1291 l 1,24,-1
 429 840 l 1,25,-1
 665 832 l 1,26,27
 765 857 765 857 813.5 918 c 128,-1,28
 862 979 862 979 862 1085 c 0,20,21
596 175 m 0,29,30
 766 175 766 175 858 239.5 c 128,-1,31
 950 304 950 304 950 427 c 0,32,33
 950 494 950 494 921 542 c 128,-1,34
 892 590 892 590 836 618.5 c 128,-1,35
 780 647 780 647 696 659 c 1,36,-1
 427 656 l 1,37,-1
 424 464 l 1,38,-1
 431 181 l 1,39,40
 520 175 520 175 596 175 c 0,29,30
EndSplineSet
Position2: "'cpsp' Capital Spacing lookup 0 subtable" dx=16 dy=0 dh=33 dv=0
EndChar

StartChar: C
Encoding: 67 67 38
Width: 1189
GlyphClass: 2
Flags: W
AnchorPoint: "Anchor-1" 711 0 basechar 0
AnchorPoint: "Anchor-0" 720 1472 basechar 0
LayerCount: 2
Fore
SplineSet
750 1488 m 0,0,1
 974 1488 974 1488 1147 1388 c 1,2,-1
 1103 1179 l 1,3,-1
 1081 1173 l 1,4,5
 930 1291 930 1291 741 1291 c 0,6,7
 538 1291 538 1291 432 1154.5 c 128,-1,8
 326 1018 326 1018 326 748 c 0,9,10
 326 470 326 470 433.5 325.5 c 128,-1,11
 541 181 541 181 741 181 c 0,12,13
 806 181 806 181 870 195.5 c 128,-1,14
 934 210 934 210 994.5 238.5 c 128,-1,15
 1055 267 1055 267 1108 307 c 1,16,-1
 1131 293 l 1,17,-1
 1112 78 l 1,18,19
 914 -18 914 -18 722 -18 c 0,20,21
 412 -18 412 -18 245 174 c 128,-1,22
 78 366 78 366 78 722 c 0,23,24
 78 1090 78 1090 254 1289 c 128,-1,25
 430 1488 430 1488 750 1488 c 0,0,1
EndSplineSet
Substitution2: "Single Substitution lookup 41 subtable" C.ss01
Substitution2: "'ss01' Style Set 1 lookup 35 subtable" C.ss01
Substitution2: "'aalt' Access All Alternates lookup 0 subtable" C.ss01
Position2: "'cpsp' Capital Spacing lookup 0 subtable" dx=16 dy=0 dh=33 dv=0
EndChar

StartChar: D
Encoding: 68 68 39
Width: 1490
GlyphClass: 2
Flags: W
AnchorPoint: "Anchor-1" 0 0 basechar 0
AnchorPoint: "Anchor-0" 726 1472 basechar 0
LayerCount: 2
Fore
SplineSet
199 1473 m 1,0,-1
 757 1482 l 1,1,2
 1074 1482 1074 1482 1243.5 1303 c 128,-1,3
 1413 1124 1413 1124 1413 790 c 0,4,5
 1413 401 1413 401 1226.5 194 c 128,-1,6
 1040 -13 1040 -13 692 -13 c 0,7,8
 470 -13 470 -13 199 0 c 1,9,-1
 197 0 l 1,10,-1
 213 442 l 1,11,-1
 197 1473 l 1,12,-1
 199 1473 l 1,0,-1
734 175 m 0,13,14
 944 175 944 175 1055.5 314 c 128,-1,15
 1167 453 1167 453 1167 736 c 256,16,17
 1167 1019 1167 1019 1061 1154 c 128,-1,18
 955 1289 955 1289 738 1289 c 0,19,20
 613 1289 613 1289 438 1280 c 1,21,-1
 427 464 l 1,22,-1
 433 190 l 1,23,24
 614 175 614 175 734 175 c 0,13,14
EndSplineSet
Substitution2: "Single Substitution lookup 41 subtable" D.ss01
Substitution2: "'ss01' Style Set 1 lookup 35 subtable" D.ss01
Substitution2: "'aalt' Access All Alternates lookup 0 subtable" D.ss01
Position2: "'cpsp' Capital Spacing lookup 0 subtable" dx=16 dy=0 dh=33 dv=0
EndChar

StartChar: E
Encoding: 69 69 40
Width: 1130
GlyphClass: 2
Flags: W
AnchorPoint: "Anchor-1" 656 0 basechar 0
AnchorPoint: "Anchor-0" 637 1472 basechar 0
LayerCount: 2
Fore
SplineSet
1068 202 m 1,0,-1
 1083 181 l 1,1,-1
 1066 0 l 1,2,-1
 197 0 l 1,3,-1
 213 442 l 1,4,-1
 197 1473 l 1,5,-1
 1071 1473 l 1,6,-1
 1085 1452 l 1,7,-1
 1066 1271 l 1,8,-1
 718 1280 l 1,9,-1
 438 1278 l 1,10,-1
 431 849 l 1,11,-1
 698 844 l 1,12,-1
 941 851 l 1,13,-1
 956 832 l 1,14,-1
 939 652 l 1,15,-1
 679 659 l 1,16,-1
 429 654 l 1,17,-1
 427 464 l 1,18,-1
 433 193 l 1,19,-1
 713 190 l 1,20,-1
 1068 202 l 1,0,-1
EndSplineSet
Position2: "'cpsp' Capital Spacing lookup 0 subtable" dx=16 dy=0 dh=33 dv=0
EndChar

StartChar: F
Encoding: 70 70 41
Width: 1015
GlyphClass: 2
Flags: W
LayerCount: 2
Fore
SplineSet
438 1278 m 1,0,-1
 431 814 l 1,1,-1
 663 810 l 1,2,-1
 906 816 l 1,3,-1
 922 796 l 1,4,-1
 904 617 l 1,5,-1
 642 624 l 1,6,-1
 429 622 l 1,7,-1
 427 464 l 1,8,-1
 438 0 l 1,9,-1
 197 0 l 1,10,-1
 213 442 l 1,11,-1
 197 1473 l 1,12,-1
 1020 1473 l 1,13,-1
 1037 1452 l 1,14,-1
 1018 1266 l 1,15,-1
 674 1280 l 1,16,-1
 438 1278 l 1,0,-1
EndSplineSet
Position2: "'cpsp' Capital Spacing lookup 0 subtable" dx=16 dy=0 dh=33 dv=0
EndChar

StartChar: G
Encoding: 71 71 42
Width: 1373
GlyphClass: 2
Flags: W
AnchorPoint: "Anchor-1" 702 0 basechar 0
AnchorPoint: "Anchor-0" 748 1472 basechar 0
LayerCount: 2
Fore
SplineSet
816 1488 m 0,0,1
 1046 1488 1046 1488 1248 1390 c 1,2,-1
 1200 1169 l 1,3,-1
 1175 1167 l 1,4,5
 1061 1234 1061 1234 970 1262.5 c 128,-1,6
 879 1291 879 1291 777 1291 c 0,7,8
 549 1291 549 1291 436.5 1152.5 c 128,-1,9
 324 1014 324 1014 324 716 c 0,10,11
 324 432 324 432 429.5 304.5 c 128,-1,12
 535 177 535 177 764 177 c 0,13,14
 803 177 803 177 839 181.5 c 128,-1,15
 875 186 875 186 917.5 195.5 c 128,-1,16
 960 205 960 205 1018 223 c 1,17,-1
 1025 372 l 1,18,-1
 1018 591 l 1,19,-1
 1241 608 l 1,20,-1
 1236 409 l 1,21,-1
 1243 71 l 1,22,23
 960 -18 960 -18 750 -18 c 0,24,25
 581 -18 581 -18 453 30.5 c 128,-1,26
 325 79 325 79 242.5 172 c 128,-1,27
 160 265 160 265 119 398.5 c 128,-1,28
 78 532 78 532 78 704 c 0,29,30
 78 895 78 895 127.5 1042.5 c 128,-1,31
 177 1190 177 1190 271 1288.5 c 128,-1,32
 365 1387 365 1387 502.5 1437.5 c 128,-1,33
 640 1488 640 1488 816 1488 c 0,0,1
EndSplineSet
Position2: "'cpsp' Capital Spacing lookup 0 subtable" dx=16 dy=0 dh=33 dv=0
EndChar

StartChar: H
Encoding: 72 72 43
Width: 1578
GlyphClass: 2
Flags: W
AnchorPoint: "Anchor-1" 0 0 basechar 0
AnchorPoint: "Anchor-0" 781 1472 basechar 0
LayerCount: 2
Fore
SplineSet
1368 464 m 1,0,-1
 1376 0 l 1,1,-1
 1138 0 l 1,2,-1
 1154 442 l 1,3,-1
 1151 642 l 1,4,-1
 771 650 l 1,5,-1
 429 642 l 1,6,-1
 427 464 l 1,7,-1
 438 0 l 1,8,-1
 197 0 l 1,9,-1
 213 442 l 1,10,-1
 197 1473 l 1,11,-1
 440 1473 l 1,12,-1
 431 842 l 1,13,-1
 790 834 l 1,14,-1
 1147 842 l 1,15,-1
 1138 1473 l 1,16,-1
 1381 1473 l 1,17,-1
 1368 464 l 1,0,-1
EndSplineSet
Position2: "'cpsp' Capital Spacing lookup 0 subtable" dx=16 dy=0 dh=33 dv=0
EndChar

StartChar: I
Encoding: 73 73 44
Width: 639
GlyphClass: 2
Flags: W
AnchorPoint: "Anchor-1" 0 0 basechar 0
AnchorPoint: "Anchor-0" 319 1472 basechar 0
LayerCount: 2
Fore
SplineSet
427 464 m 1,0,-1
 438 0 l 1,1,-1
 197 0 l 1,2,-1
 213 442 l 1,3,-1
 197 1473 l 1,4,-1
 440 1473 l 1,5,-1
 427 464 l 1,0,-1
EndSplineSet
Substitution2: "Single Substitution lookup 41 subtable" I.ss01
Substitution2: "'ss01' Style Set 1 lookup 35 subtable" I.ss01
Substitution2: "'aalt' Access All Alternates lookup 0 subtable" I.ss01
Position2: "'cpsp' Capital Spacing lookup 0 subtable" dx=16 dy=0 dh=33 dv=0
EndChar

StartChar: J
Encoding: 74 74 45
Width: 735
GlyphClass: 2
Flags: W
AnchorPoint: "Anchor-1" 0 0 basechar 0
AnchorPoint: "Anchor-0" 319 1472 basechar 0
LayerCount: 2
Fore
SplineSet
525 486 m 1,0,-1
 530 273 l 1,1,2
 530 94 530 94 436.5 -21.5 c 128,-1,3
 343 -137 343 -137 114 -239 c 1,4,-1
 32 -108 l 1,5,-1
 32 -83 l 1,6,7
 186 -4 186 -4 249 74.5 c 128,-1,8
 312 153 312 153 312 273 c 2,9,-1
 312 464 l 1,10,-1
 302 1289 l 1,11,-1
 35 1287 l 1,12,-1
 13 1305 l 1,13,-1
 28 1473 l 1,14,-1
 539 1473 l 1,15,-1
 525 486 l 1,0,-1
EndSplineSet
Position2: "'cpsp' Capital Spacing lookup 0 subtable" dx=16 dy=0 dh=33 dv=0
EndChar

StartChar: K
Encoding: 75 75 46
Width: 1288
GlyphClass: 2
Flags: W
AnchorPoint: "Anchor-1" 669 0 basechar 0
AnchorPoint: "Anchor-0" 647 1472 basechar 0
LayerCount: 2
Fore
SplineSet
424 464 m 1,0,-1
 436 0 l 1,1,-1
 195 0 l 1,2,-1
 211 442 l 1,3,-1
 195 1473 l 1,4,-1
 438 1473 l 1,5,-1
 424 464 l 1,0,-1
1254 1473 m 1,6,-1
 690 780 l 1,7,8
 966 409 966 409 1298 50 c 1,9,-1
 1294 22 l 1,10,11
 1185 -6 1185 -6 1064 -20 c 1,12,-1
 1039 -7 l 1,13,14
 677 433 677 433 445 768 c 1,15,-1
 445 782 l 1,16,-1
 906 1340 l 1,17,-1
 993 1473 l 1,18,-1
 1254 1473 l 1,6,-1
EndSplineSet
Position2: "'cpsp' Capital Spacing lookup 0 subtable" dx=16 dy=0 dh=33 dv=0
EndChar

StartChar: L
Encoding: 76 76 47
Width: 969
GlyphClass: 2
Flags: W
AnchorPoint: "Anchor-1" 538 0 basechar 0
AnchorPoint: "Anchor-0" 477 1472 basechar 0
LayerCount: 2
Fore
SplineSet
965 177 m 1,0,-1
 948 0 l 1,1,-1
 190 0 l 1,2,-1
 206 442 l 1,3,-1
 190 1473 l 1,4,-1
 433 1473 l 1,5,-1
 420 464 l 1,6,-1
 424 197 l 1,7,-1
 950 197 l 1,8,-1
 965 177 l 1,0,-1
EndSplineSet
Substitution2: "Single Substitution lookup 41 subtable" L.ss01
Substitution2: "'ss01' Style Set 1 lookup 35 subtable" L.ss01
Substitution2: "'aalt' Access All Alternates lookup 0 subtable" L.ss01
Position2: "'cpsp' Capital Spacing lookup 0 subtable" dx=16 dy=0 dh=33 dv=0
EndChar

StartChar: M
Encoding: 77 77 48
Width: 1816
GlyphClass: 2
Flags: W
LayerCount: 2
Fore
SplineSet
1690 0 m 1,0,-1
 1480 0 l 1,1,-1
 1449 447 l 1,2,-1
 1381 1112 l 1,3,-1
 1365 1112 l 1,4,-1
 987 162 l 1,5,-1
 799 162 l 1,6,-1
 447 1112 l 1,7,-1
 427 1112 l 1,8,-1
 357 468 l 1,9,-1
 321 0 l 1,10,-1
 122 0 l 1,11,-1
 276 1473 l 1,12,-1
 545 1473 l 1,13,-1
 615 1252 l 1,14,-1
 897 470 l 1,15,-1
 915 470 l 1,16,-1
 1213 1259 l 1,17,-1
 1282 1473 l 1,18,-1
 1550 1473 l 1,19,-1
 1690 0 l 1,0,-1
EndSplineSet
Substitution2: "Single Substitution lookup 41 subtable" M.ss01
Substitution2: "'ss01' Style Set 1 lookup 35 subtable" M.ss01
Substitution2: "'aalt' Access All Alternates lookup 0 subtable" M.ss01
Position2: "'cpsp' Capital Spacing lookup 0 subtable" dx=16 dy=0 dh=33 dv=0
EndChar

StartChar: N
Encoding: 78 78 49
Width: 1578
GlyphClass: 2
Flags: W
AnchorPoint: "Anchor-1" 781 0 basechar 0
AnchorPoint: "Anchor-0" 784 1472 basechar 0
LayerCount: 2
Fore
SplineSet
1365 440 m 1,0,-1
 1374 0 l 1,1,-1
 1119 0 l 1,2,-1
 429 1103 l 1,3,-1
 411 1103 l 1,4,-1
 409 493 l 1,5,-1
 420 0 l 1,6,-1
 197 0 l 1,7,-1
 213 436 l 1,8,-1
 202 1473 l 1,9,-1
 455 1473 l 1,10,-1
 1147 370 l 1,11,-1
 1165 370 l 1,12,-1
 1158 1462 l 1,13,-1
 1381 1477 l 1,14,-1
 1365 440 l 1,0,-1
EndSplineSet
Position2: "'cpsp' Capital Spacing lookup 0 subtable" dx=16 dy=0 dh=33 dv=0
EndChar

StartChar: O
Encoding: 79 79 50
Width: 1464
GlyphClass: 2
Flags: W
AnchorPoint: "Anchor-1" 0 0 basechar 0
AnchorPoint: "Anchor-0" 733 1472 basechar 0
LayerCount: 2
Fore
SplineSet
755 1491 m 0,0,1
 1059 1491 1059 1491 1223.5 1302.5 c 128,-1,2
 1388 1114 1388 1114 1388 766 c 0,3,4
 1388 389 1388 389 1211.5 184.5 c 128,-1,5
 1035 -20 1035 -20 711 -20 c 0,6,7
 408 -20 408 -20 243 173.5 c 128,-1,8
 78 367 78 367 78 722 c 0,9,10
 78 1092 78 1092 254 1291.5 c 128,-1,11
 430 1491 430 1491 755 1491 c 0,0,1
734 1296 m 0,12,13
 523 1296 523 1296 422 1164 c 128,-1,14
 321 1032 321 1032 321 753 c 0,15,16
 321 451 321 451 420.5 310.5 c 128,-1,17
 520 170 520 170 729 170 c 0,18,19
 939 170 939 170 1040.5 304.5 c 128,-1,20
 1142 439 1142 439 1142 722 c 0,21,22
 1142 1020 1142 1020 1042.5 1158 c 128,-1,23
 943 1296 943 1296 734 1296 c 0,12,13
EndSplineSet
Position2: "'cpsp' Capital Spacing lookup 0 subtable" dx=16 dy=0 dh=33 dv=0
EndChar

StartChar: P
Encoding: 80 80 51
Width: 1224
GlyphClass: 2
Flags: W
LayerCount: 2
Fore
SplineSet
197 1473 m 1,0,-1
 698 1475 l 2,1,2
 845 1475 845 1475 948.5 1424.5 c 128,-1,3
 1052 1374 1052 1374 1106 1275 c 128,-1,4
 1160 1176 1160 1176 1160 1035 c 0,5,6
 1160 786 1160 786 1007.5 641.5 c 128,-1,7
 855 497 855 497 589 497 c 2,8,-1
 427 497 l 1,9,-1
 427 464 l 1,10,-1
 438 0 l 1,11,-1
 197 0 l 1,12,-1
 213 442 l 1,13,-1
 197 1473 l 1,0,-1
429 685 m 1,14,-1
 659 681 l 1,15,16
 785 705 785 705 850 789 c 128,-1,17
 915 873 915 873 915 1014 c 0,18,19
 915 1151 915 1151 845 1217.5 c 128,-1,20
 775 1284 775 1284 633 1289 c 1,21,-1
 438 1282 l 1,22,-1
 429 685 l 1,14,-1
EndSplineSet
Position2: "'cpsp' Capital Spacing lookup 0 subtable" dx=16 dy=0 dh=33 dv=0
EndChar

StartChar: Q
Encoding: 81 81 52
Width: 1473
GlyphClass: 2
Flags: W
LayerCount: 2
Fore
SplineSet
1674 -261 m 1,0,-1
 1683 -289 l 1,1,2
 1635 -384 1635 -384 1576 -440 c 1,3,-1
 1556 -449 l 1,4,5
 1114 -313 1114 -313 766 -18 c 1,6,-1
 716 -20 l 1,7,8
 510 -20 510 -20 367 67 c 128,-1,9
 224 154 224 154 151 320 c 128,-1,10
 78 486 78 486 78 722 c 0,11,12
 78 1092 78 1092 254 1291.5 c 128,-1,13
 430 1491 430 1491 755 1491 c 0,14,15
 1059 1491 1059 1491 1223.5 1302.5 c 128,-1,16
 1388 1114 1388 1114 1388 762 c 0,17,18
 1388 478 1388 478 1283 289 c 128,-1,19
 1178 100 1178 100 982 26 c 1,20,21
 1305 -188 1305 -188 1674 -261 c 1,0,-1
321 746 m 0,22,23
 321 450 321 450 422 310 c 128,-1,24
 523 170 523 170 734 170 c 0,25,26
 938 170 938 170 1040 306.5 c 128,-1,27
 1142 443 1142 443 1142 729 c 0,28,29
 1142 1021 1142 1021 1041.5 1158.5 c 128,-1,30
 941 1296 941 1296 731 1296 c 256,31,32
 521 1296 521 1296 421 1163.5 c 128,-1,33
 321 1031 321 1031 321 746 c 0,22,23
EndSplineSet
Substitution2: "Single Substitution lookup 41 subtable" Q.corta
Position2: "'cpsp' Capital Spacing lookup 0 subtable" dx=16 dy=0 dh=33 dv=0
EndChar

StartChar: R
Encoding: 82 82 53
Width: 1307
GlyphClass: 2
Flags: W
AnchorPoint: "Anchor-1" 654 0 basechar 0
AnchorPoint: "Anchor-0" 654 1472 basechar 0
LayerCount: 2
Fore
SplineSet
871 589 m 1,0,1
 1020 348 1020 348 1241 55 c 1,2,-1
 1239 28 l 1,3,4
 1130 -10 1130 -10 1011 -20 c 1,5,-1
 984 -2 l 1,6,7
 780 333 780 333 676 525 c 1,8,-1
 427 525 l 1,9,-1
 427 464 l 1,10,-1
 438 0 l 1,11,-1
 197 0 l 1,12,-1
 213 442 l 1,13,-1
 197 1473 l 1,14,-1
 698 1475 l 2,15,16
 845 1475 845 1475 949 1426 c 128,-1,17
 1053 1377 1053 1377 1108 1280.5 c 128,-1,18
 1163 1184 1163 1184 1163 1046 c 0,19,20
 1163 899 1163 899 1086.5 780.5 c 128,-1,21
 1010 662 1010 662 871 589 c 1,0,1
431 718 m 1,22,-1
 683 711 l 1,23,24
 915 782 915 782 915 1028 c 0,25,26
 915 1157 915 1157 844.5 1220.5 c 128,-1,27
 774 1284 774 1284 633 1289 c 1,28,-1
 438 1282 l 1,29,-1
 431 718 l 1,22,-1
EndSplineSet
Position2: "'cpsp' Capital Spacing lookup 0 subtable" dx=16 dy=0 dh=33 dv=0
EndChar

StartChar: S
Encoding: 83 83 54
Width: 1107
GlyphClass: 2
Flags: W
AnchorPoint: "Anchor-1" 536 0 basechar 0
AnchorPoint: "Anchor-0" 580 1472 basechar 0
LayerCount: 2
Fore
SplineSet
628 1488 m 0,0,1
 803 1488 803 1488 977 1416 c 1,2,-1
 939 1200 l 1,3,-1
 902 1186 l 1,4,5
 854 1221 854 1221 802.5 1246.5 c 128,-1,6
 751 1272 751 1272 699.5 1285 c 128,-1,7
 648 1298 648 1298 601 1298 c 0,8,9
 544 1298 544 1298 496.5 1280 c 128,-1,10
 449 1262 449 1262 418.5 1232.5 c 128,-1,11
 388 1203 388 1203 371.5 1166.5 c 128,-1,12
 355 1130 355 1130 355 1092 c 0,13,14
 355 1053 355 1053 373.5 1019 c 128,-1,15
 392 985 392 985 424 959 c 128,-1,16
 456 933 456 933 498.5 907.5 c 128,-1,17
 541 882 541 882 588.5 861 c 128,-1,18
 636 840 636 840 686.5 814 c 128,-1,19
 737 788 737 788 784.5 762.5 c 128,-1,20
 832 737 832 737 874.5 701.5 c 128,-1,21
 917 666 917 666 949 626.5 c 128,-1,22
 981 587 981 587 999.5 533.5 c 128,-1,23
 1018 480 1018 480 1018 418 c 0,24,25
 1018 347 1018 347 994.5 281 c 128,-1,26
 971 215 971 215 925.5 161 c 128,-1,27
 880 107 880 107 817.5 67 c 128,-1,28
 755 27 755 27 673 4.5 c 128,-1,29
 591 -18 591 -18 500 -18 c 0,30,31
 290 -18 290 -18 87 81 c 1,32,-1
 116 315 l 1,33,-1
 147 328 l 1,34,35
 231 249 231 249 333 208.5 c 128,-1,36
 435 168 435 168 523 168 c 0,37,38
 643 168 643 168 713.5 231.5 c 128,-1,39
 784 295 784 295 784 381 c 0,40,41
 784 422 784 422 765.5 458 c 128,-1,42
 747 494 747 494 715.5 520.5 c 128,-1,43
 684 547 684 547 641.5 572.5 c 128,-1,44
 599 598 599 598 551.5 619 c 128,-1,45
 504 640 504 640 454 666 c 128,-1,46
 404 692 404 692 356.5 717 c 128,-1,47
 309 742 309 742 267 777 c 128,-1,48
 225 812 225 812 193 851 c 128,-1,49
 161 890 161 890 142.5 943.5 c 128,-1,50
 124 997 124 997 124 1060 c 0,51,52
 124 1149 124 1149 161 1228 c 128,-1,53
 198 1307 198 1307 263.5 1364.5 c 128,-1,54
 329 1422 329 1422 423.5 1455 c 128,-1,55
 518 1488 518 1488 628 1488 c 0,0,1
EndSplineSet
Position2: "'cpsp' Capital Spacing lookup 0 subtable" dx=16 dy=0 dh=33 dv=0
EndChar

StartChar: T
Encoding: 84 84 55
Width: 1134
GlyphClass: 2
Flags: W
AnchorPoint: "Anchor-1" 560 0 basechar 0
AnchorPoint: "Anchor-0" 575 1472 basechar 0
LayerCount: 2
Fore
SplineSet
1094 1452 m 1,0,-1
 1081 1273 l 1,1,-1
 814 1287 l 1,2,-1
 690 1287 l 1,3,-1
 679 464 l 1,4,-1
 690 0 l 1,5,-1
 451 0 l 1,6,-1
 466 442 l 1,7,-1
 455 1287 l 1,8,-1
 330 1287 l 1,9,-1
 59 1273 l 1,10,-1
 44 1294 l 1,11,-1
 62 1473 l 1,12,-1
 1081 1473 l 1,13,-1
 1094 1452 l 1,0,-1
EndSplineSet
Position2: "'cpsp' Capital Spacing lookup 0 subtable" dx=16 dy=0 dh=33 dv=0
EndChar

StartChar: U
Encoding: 85 85 56
Width: 1447
GlyphClass: 2
Flags: W
AnchorPoint: "Anchor-1" 0 0 basechar 0
AnchorPoint: "Anchor-0" 729 1472 basechar 0
LayerCount: 2
Fore
SplineSet
1285 725 m 1,0,-1
 1282 551 l 1,1,2
 1287 281 1287 281 1136.5 131.5 c 128,-1,3
 986 -18 986 -18 707 -18 c 0,4,5
 438 -18 438 -18 295.5 125 c 128,-1,6
 153 268 153 268 158 532 c 2,7,-1
 162 736 l 1,8,-1
 158 1473 l 1,9,-1
 392 1473 l 1,10,-1
 383 564 l 2,11,12
 381 372 381 372 465.5 278 c 128,-1,13
 550 184 550 184 722 184 c 0,14,15
 893 184 893 184 979.5 273 c 128,-1,16
 1066 362 1066 362 1064 541 c 2,17,-1
 1053 1473 l 1,18,-1
 1291 1473 l 1,19,-1
 1285 725 l 1,0,-1
EndSplineSet
Position2: "'cpsp' Capital Spacing lookup 0 subtable" dx=16 dy=0 dh=33 dv=0
EndChar

StartChar: V
Encoding: 86 86 57
Width: 1313
GlyphClass: 2
Flags: W
LayerCount: 2
Fore
SplineSet
784 0 m 1,0,-1
 505 0 l 1,1,-1
 28 1473 l 1,2,-1
 271 1473 l 1,3,-1
 305 1305 l 1,4,-1
 642 230 l 1,5,-1
 659 230 l 1,6,-1
 1033 1294 l 1,7,-1
 1068 1473 l 1,8,-1
 1305 1473 l 1,9,-1
 784 0 l 1,0,-1
EndSplineSet
Substitution2: "Single Substitution lookup 41 subtable" V.ss01
Substitution2: "'ss01' Style Set 1 lookup 35 subtable" V.ss01
Substitution2: "'aalt' Access All Alternates lookup 0 subtable" V.ss01
Position2: "'cpsp' Capital Spacing lookup 0 subtable" dx=16 dy=0 dh=33 dv=0
EndChar

StartChar: W
Encoding: 87 87 58
Width: 2057
GlyphClass: 2
Flags: W
AnchorPoint: "Anchor-1" 0 0 basechar 0
AnchorPoint: "Anchor-0" 1013 1472 basechar 0
LayerCount: 2
Fore
SplineSet
1532 0 m 1,0,-1
 1285 0 l 1,1,-1
 1025 792 l 1,2,-1
 1009 792 l 1,3,-1
 741 0 l 1,4,-1
 491 0 l 1,5,-1
 46 1473 l 1,6,-1
 280 1473 l 1,7,-1
 305 1315 l 1,8,-1
 622 252 l 1,9,-1
 640 252 l 1,10,-1
 928 1105 l 1,11,-1
 812 1473 l 1,12,-1
 1053 1473 l 1,13,-1
 1090 1291 l 1,14,-1
 1411 252 l 1,15,-1
 1429 252 l 1,16,-1
 1784 1300 l 1,17,-1
 1821 1473 l 1,18,-1
 2042 1473 l 1,19,-1
 1532 0 l 1,0,-1
EndSplineSet
Position2: "'cpsp' Capital Spacing lookup 0 subtable" dx=16 dy=0 dh=33 dv=0
EndChar

StartChar: X
Encoding: 88 88 59
Width: 1370
GlyphClass: 2
Flags: W
LayerCount: 2
Fore
SplineSet
828 768 m 1,0,-1
 1322 0 l 1,1,-1
 1035 0 l 1,2,-1
 968 131 l 1,3,-1
 668 582 l 1,4,-1
 353 116 l 1,5,-1
 291 0 l 1,6,-1
 44 0 l 1,7,-1
 530 736 l 1,8,-1
 55 1473 l 1,9,-1
 342 1473 l 1,10,-1
 405 1344 l 1,11,-1
 685 917 l 1,12,-1
 972 1348 l 1,13,-1
 1033 1473 l 1,14,-1
 1287 1473 l 1,15,-1
 828 768 l 1,0,-1
EndSplineSet
Substitution2: "Single Substitution lookup 41 subtable" X.ss01
Substitution2: "'ss01' Style Set 1 lookup 35 subtable" X.ss01
Substitution2: "'aalt' Access All Alternates lookup 0 subtable" X.ss01
Position2: "'cpsp' Capital Spacing lookup 0 subtable" dx=16 dy=0 dh=33 dv=0
EndChar

StartChar: Y
Encoding: 89 89 60
Width: 1239
GlyphClass: 2
Flags: W
AnchorPoint: "Anchor-1" 0 0 basechar 0
AnchorPoint: "Anchor-0" 610 1472 basechar 0
LayerCount: 2
Fore
SplineSet
709 422 m 1,0,-1
 720 0 l 1,1,-1
 482 0 l 1,2,-1
 495 422 l 1,3,-1
 493 516 l 1,4,-1
 26 1473 l 1,5,-1
 278 1473 l 1,6,-1
 307 1381 l 1,7,-1
 599 764 l 1,8,-1
 619 764 l 1,9,-1
 941 1376 l 1,10,-1
 977 1473 l 1,11,-1
 1225 1473 l 1,12,-1
 711 514 l 1,13,-1
 709 422 l 1,0,-1
EndSplineSet
Position2: "'cpsp' Capital Spacing lookup 0 subtable" dx=16 dy=0 dh=33 dv=0
EndChar

StartChar: Z
Encoding: 90 90 61
Width: 1228
GlyphClass: 2
Flags: W
AnchorPoint: "Anchor-1" 0 0 basechar 0
AnchorPoint: "Anchor-0" 623 1472 basechar 0
LayerCount: 2
Fore
SplineSet
1138 1300 m 1,0,-1
 353 186 l 1,1,-1
 913 186 l 1,2,-1
 1145 204 l 1,3,-1
 1156 190 l 1,4,-1
 1136 -4 l 1,5,-1
 840 0 l 1,6,-1
 221 0 l 1,7,-1
 71 -7 l 1,8,-1
 71 165 l 1,9,-1
 860 1285 l 1,10,-1
 339 1285 l 1,11,-1
 103 1266 l 1,12,-1
 90 1280 l 1,13,-1
 108 1475 l 1,14,-1
 1014 1473 l 1,15,-1
 1138 1475 l 1,16,-1
 1138 1300 l 1,0,-1
EndSplineSet
Position2: "'cpsp' Capital Spacing lookup 0 subtable" dx=16 dy=0 dh=33 dv=0
EndChar

StartChar: bracketleft
Encoding: 91 91 62
Width: 666
GlyphClass: 2
Flags: W
LayerCount: 2
Fore
SplineSet
659 1471 m 1,0,-1
 659 1363 l 1,1,-1
 399 1333 l 1,2,-1
 399 -144 l 1,3,-1
 659 -172 l 1,4,-1
 659 -280 l 1,5,-1
 647 -293 l 1,6,-1
 206 -271 l 1,7,-1
 218 596 l 1,8,-1
 206 1462 l 1,9,-1
 647 1484 l 1,10,-1
 659 1471 l 1,0,-1
EndSplineSet
EndChar

StartChar: backslash
Encoding: 92 92 63
Width: 655
GlyphClass: 2
Flags: W
LayerCount: 2
Fore
SplineSet
175 1558 m 1,0,-1
 647 -241 l 1,1,-1
 631 -261 l 1,2,-1
 470 -261 l 1,3,-1
 -2 1534 l 1,4,-1
 16 1558 l 1,5,-1
 175 1558 l 1,0,-1
EndSplineSet
EndChar

StartChar: bracketright
Encoding: 93 93 64
Width: 666
GlyphClass: 2
Flags: W
LayerCount: 2
Fore
SplineSet
9 -280 m 1,0,-1
 9 -172 l 1,1,-1
 269 -142 l 1,2,-1
 269 1335 l 1,3,-1
 9 1363 l 1,4,-1
 9 1473 l 1,5,-1
 20 1484 l 1,6,-1
 461 1462 l 1,7,-1
 449 596 l 1,8,-1
 461 -271 l 1,9,-1
 20 -293 l 1,10,-1
 9 -280 l 1,0,-1
EndSplineSet
EndChar

StartChar: asciicircum
Encoding: 94 94 65
Width: 987
GlyphClass: 2
Flags: W
LayerCount: 2
Fore
SplineSet
948 319 m 1,0,-1
 928 298 l 1,1,-1
 799 267 l 1,2,-1
 512 963 l 1,3,-1
 497 963 l 1,4,-1
 197 269 l 1,5,-1
 177 256 l 1,6,-1
 44 307 l 1,7,-1
 392 1119 l 1,8,-1
 416 1133 l 1,9,-1
 606 1133 l 1,10,-1
 948 319 l 1,0,-1
EndSplineSet
EndChar

StartChar: underscore
Encoding: 95 95 66
Width: 1024
GlyphClass: 2
Flags: W
LayerCount: 2
Fore
SplineSet
1060 -221 m 1,0,-1
 1048 -353 l 1,1,-1
 -18 -353 l 1,2,-1
 -35 -335 l 1,3,-1
 -20 -202 l 1,4,-1
 1044 -202 l 1,5,-1
 1060 -221 l 1,0,-1
EndSplineSet
EndChar

StartChar: grave
Encoding: 96 96 67
Width: 891
GlyphClass: 2
Flags: W
LayerCount: 2
Fore
SplineSet
282 1622 m 1,0,-1
 305 1624 l 1,1,2
 455 1481 455 1481 698 1285 c 1,3,-1
 637 1193 l 1,4,-1
 615 1191 l 1,5,6
 381 1343 381 1343 199 1475 c 1,7,-1
 195 1497 l 1,8,-1
 282 1622 l 1,0,-1
EndSplineSet
EndChar

StartChar: a
Encoding: 97 97 68
Width: 1077
GlyphClass: 2
Flags: W
AnchorPoint: "Anchor-1" 0 0 basechar 0
AnchorPoint: "Anchor-0" 520 1057 basechar 0
LayerCount: 2
Fore
SplineSet
543 1079 m 0,0,1
 647 1079 647 1079 724 1045 c 128,-1,2
 801 1011 801 1011 843.5 946 c 128,-1,3
 886 881 886 881 886 792 c 0,4,5
 886 751 886 751 872 518.5 c 128,-1,6
 858 286 858 286 858 248 c 0,7,8
 858 204 858 204 872.5 187 c 128,-1,9
 887 170 887 170 924 170 c 0,10,11
 947 170 947 170 993 179 c 1,12,-1
 1014 162 l 1,13,-1
 991 35 l 1,14,15
 927 -5 927 -5 847 -16 c 1,16,17
 776 -9 776 -9 731.5 35.5 c 128,-1,18
 687 80 687 80 679 153 c 1,19,-1
 663 153 l 1,20,21
 548 31 548 31 424 -18 c 1,22,23
 265 -16 265 -16 175 64 c 128,-1,24
 85 144 85 144 85 282 c 0,25,26
 85 388 85 388 141 449.5 c 128,-1,27
 197 511 197 511 307 536 c 2,28,-1
 670 617 l 1,29,-1
 672 741 l 2,30,31
 672 798 672 798 652.5 836.5 c 128,-1,32
 633 875 633 875 596.5 894 c 128,-1,33
 560 913 560 913 507 913 c 0,34,35
 456 913 456 913 404 897 c 128,-1,36
 352 881 352 881 297 849 c 128,-1,37
 242 817 242 817 179 766 c 1,38,-1
 160 777 l 1,39,-1
 131 941 l 1,40,41
 333 1079 333 1079 543 1079 c 0,0,1
670 482 m 1,42,-1
 372 411 l 2,43,44
 330 402 330 402 311.5 380 c 128,-1,45
 293 358 293 358 293 312 c 0,46,47
 293 243 293 243 331 204 c 128,-1,48
 369 165 369 165 433 165 c 0,49,50
 491 165 491 165 547 200.5 c 128,-1,51
 603 236 603 236 663 305 c 1,52,-1
 670 482 l 1,42,-1
EndSplineSet
Substitution2: "'ss02' Style Set 2 lookup 36 subtable" left
Substitution2: "'case' Case-Sensitive Forms lookup 28 subtable" A
Substitution2: "'ordn' Ordinals lookup 22 subtable" a.sups
Substitution2: "'sups' Superscript lookup 16 subtable" a.sups
AlternateSubs2: "'aalt' Access All Alternates lookup 1 subtable" a.sups A left
EndChar

StartChar: b
Encoding: 98 98 69
Width: 1182
GlyphClass: 2
Flags: W
LayerCount: 2
Fore
SplineSet
688 1068 m 1,0,1
 888 1068 888 1068 993.5 935.5 c 128,-1,2
 1099 803 1099 803 1099 562 c 0,3,4
 1099 283 1099 283 963 131.5 c 128,-1,5
 827 -20 827 -20 587 -20 c 0,6,7
 468 -20 468 -20 353 32 c 1,8,-1
 208 -28 l 1,9,-1
 172 -4 l 1,10,-1
 188 440 l 1,11,-1
 175 1592 l 1,12,-1
 409 1611 l 1,13,-1
 399 911 l 1,14,-1
 413 911 l 1,15,16
 487 973 487 973 547.5 1007.5 c 128,-1,17
 608 1042 608 1042 688 1068 c 1,0,1
596 140 m 0,18,19
 730 140 730 140 806 237 c 128,-1,20
 882 334 882 334 880 530 c 1,21,22
 877 699 877 699 818.5 789.5 c 128,-1,23
 760 880 760 880 650 880 c 0,24,25
 527 880 527 880 396 744 c 1,26,-1
 392 468 l 1,27,-1
 399 202 l 1,28,29
 500 140 500 140 596 140 c 0,18,19
EndSplineSet
Substitution2: "'ss02' Style Set 2 lookup 36 subtable" up
Substitution2: "'case' Case-Sensitive Forms lookup 28 subtable" B
Substitution2: "'ordn' Ordinals lookup 22 subtable" b.sups
Substitution2: "'sups' Superscript lookup 16 subtable" b.sups
AlternateSubs2: "'aalt' Access All Alternates lookup 1 subtable" b.sups B up
EndChar

StartChar: c
Encoding: 99 99 70
Width: 882
GlyphClass: 2
Flags: W
AnchorPoint: "Anchor-1" 518 0 basechar 0
AnchorPoint: "Anchor-0" 545 1057 basechar 0
LayerCount: 2
Fore
SplineSet
569 1079 m 0,0,1
 606 1079 606 1079 644 1074.5 c 128,-1,2
 682 1070 682 1070 718.5 1062 c 128,-1,3
 755 1054 755 1054 789 1043 c 128,-1,4
 823 1032 823 1032 851 1018 c 1,5,-1
 812 823 l 1,6,-1
 790 814 l 1,7,8
 668 886 668 886 564 886 c 0,9,10
 442 886 442 886 373.5 794.5 c 128,-1,11
 305 703 305 703 305 536 c 0,12,13
 305 360 305 360 376 262.5 c 128,-1,14
 447 165 447 165 578 165 c 0,15,16
 692 165 692 165 823 234 c 1,17,-1
 844 221 l 1,18,-1
 821 32 l 1,19,20
 683 -20 683 -20 541 -20 c 0,21,22
 327 -20 327 -20 206 123.5 c 128,-1,23
 85 267 85 267 85 519 c 0,24,25
 85 779 85 779 214 929 c 128,-1,26
 343 1079 343 1079 569 1079 c 0,0,1
EndSplineSet
Substitution2: "Single Substitution lookup 41 subtable" C.ss01
Substitution2: "'ss02' Style Set 2 lookup 36 subtable" right
Substitution2: "'ss01' Style Set 1 lookup 35 subtable" C.ss01
Substitution2: "'case' Case-Sensitive Forms lookup 28 subtable" C
Substitution2: "'ordn' Ordinals lookup 22 subtable" c.sups
Substitution2: "'sups' Superscript lookup 16 subtable" c.sups
AlternateSubs2: "'aalt' Access All Alternates lookup 1 subtable" c.sups C C.ss01 right
EndChar

StartChar: d
Encoding: 100 100 71
Width: 1191
GlyphClass: 2
Flags: W
LayerCount: 2
Fore
SplineSet
991 466 m 1,0,-1
 998 245 l 2,1,2
 1000 202 1000 202 1012.5 186 c 128,-1,3
 1025 170 1025 170 1057 170 c 0,4,5
 1086 170 1086 170 1129 179 c 1,6,-1
 1149 162 l 1,7,-1
 1129 35 l 1,8,9
 1064 -6 1064 -6 982 -16 c 1,10,11
 911 -9 911 -9 867.5 33.5 c 128,-1,12
 824 76 824 76 812 144 c 1,13,-1
 794 144 l 1,14,15
 725 86 725 86 673 51 c 128,-1,16
 621 16 621 16 556 -13 c 1,17,18
 327 -13 327 -13 204 128 c 128,-1,19
 81 269 81 269 81 525 c 0,20,21
 81 788 81 788 219 932 c 128,-1,22
 357 1076 357 1076 601 1076 c 0,23,24
 679 1076 679 1076 780 1057 c 1,25,-1
 775 1592 l 1,26,-1
 1009 1611 l 1,27,-1
 991 466 l 1,0,-1
578 915 m 0,28,29
 445 915 445 915 371 824 c 128,-1,30
 297 733 297 733 300 553 c 1,31,32
 302 371 302 371 370.5 274 c 128,-1,33
 439 177 439 177 560 177 c 0,34,35
 617 177 617 177 671 203.5 c 128,-1,36
 725 230 725 230 784 296 c 1,37,-1
 790 445 l 1,38,-1
 782 862 l 1,39,40
 670 915 670 915 578 915 c 0,28,29
EndSplineSet
Substitution2: "Single Substitution lookup 41 subtable" D.ss01
Substitution2: "'ss02' Style Set 2 lookup 36 subtable" down
Substitution2: "'ss01' Style Set 1 lookup 35 subtable" D.ss01
Substitution2: "'case' Case-Sensitive Forms lookup 28 subtable" D
Substitution2: "'ordn' Ordinals lookup 22 subtable" d.sups
Substitution2: "'sups' Superscript lookup 16 subtable" d.sups
AlternateSubs2: "'aalt' Access All Alternates lookup 1 subtable" d.sups D D.ss01 down
EndChar

StartChar: e
Encoding: 101 101 72
Width: 1055
GlyphClass: 2
Flags: W
AnchorPoint: "Anchor-1" 94 0 basechar 0
AnchorPoint: "Anchor-0" 568 1057 basechar 0
LayerCount: 2
Fore
SplineSet
928 519 m 1,0,-1
 300 519 l 1,1,2
 304 345 304 345 379.5 252.5 c 128,-1,3
 455 160 455 160 604 160 c 0,4,5
 674 160 674 160 755 185 c 128,-1,6
 836 210 836 210 913 256 c 1,7,-1
 934 243 l 1,8,-1
 906 57 l 1,9,10
 748 -20 748 -20 585 -20 c 0,11,12
 349 -20 349 -20 217 125 c 128,-1,13
 85 270 85 270 85 523 c 0,14,15
 85 779 85 779 222.5 927.5 c 128,-1,16
 360 1076 360 1076 591 1076 c 0,17,18
 774 1076 774 1076 875.5 968 c 128,-1,19
 977 860 977 860 977 670 c 0,20,21
 977 612 977 612 968 556 c 1,22,-1
 928 519 l 1,0,-1
764 672 m 1,23,-1
 768 700 l 1,24,25
 768 808 768 808 717.5 861.5 c 128,-1,26
 667 915 667 915 578 915 c 0,27,28
 473 915 473 915 404 849 c 128,-1,29
 335 783 335 783 312 661 c 1,30,-1
 764 672 l 1,23,-1
EndSplineSet
Substitution2: "'ss02' Style Set 2 lookup 36 subtable" square1
Substitution2: "'case' Case-Sensitive Forms lookup 28 subtable" E
Substitution2: "'ordn' Ordinals lookup 22 subtable" e.sups
Substitution2: "'sups' Superscript lookup 16 subtable" e.sups
AlternateSubs2: "'aalt' Access All Alternates lookup 1 subtable" e.sups E square1
EndChar

StartChar: f
Encoding: 102 102 73
Width: 720
GlyphClass: 2
Flags: W
LayerCount: 2
Fore
SplineSet
654 1615 m 0,0,1
 739 1615 739 1615 840 1594 c 1,2,-1
 825 1418 l 1,3,-1
 810 1403 l 1,4,5
 710 1447 710 1447 633 1447 c 0,6,7
 551 1447 551 1447 507 1398 c 128,-1,8
 463 1349 463 1349 461 1250 c 2,9,-1
 459 1053 l 1,10,-1
 729 1053 l 1,11,-1
 736 1037 l 1,12,-1
 722 904 l 1,13,-1
 457 904 l 1,14,-1
 449 466 l 1,15,-1
 466 0 l 1,16,-1
 232 0 l 1,17,-1
 245 445 l 1,18,-1
 241 904 l 1,19,-1
 83 904 l 1,20,-1
 74 917 l 1,21,-1
 85 1053 l 1,22,-1
 241 1053 l 1,23,-1
 239 1211 l 2,24,25
 237 1405 237 1405 346 1510 c 128,-1,26
 455 1615 455 1615 654 1615 c 0,0,1
EndSplineSet
Substitution2: "Single Substitution lookup 41 subtable" f.t
Substitution2: "Single Substitution lookup 40 subtable" f.l
Substitution2: "Single Substitution lookup 39 subtable" f.f
Substitution2: "'ss02' Style Set 2 lookup 36 subtable" square2
Substitution2: "'case' Case-Sensitive Forms lookup 28 subtable" F
Substitution2: "'ordn' Ordinals lookup 22 subtable" f.sups
Substitution2: "'sups' Superscript lookup 16 subtable" f.sups
AlternateSubs2: "'aalt' Access All Alternates lookup 1 subtable" f.sups F square2
EndChar

StartChar: g
Encoding: 103 103 74
Width: 1127
GlyphClass: 2
Flags: W
AnchorPoint: "Anchor-1" 0 0 basechar 0
AnchorPoint: "Anchor-0" 571 1037 basechar 0
LayerCount: 2
Fore
SplineSet
1136 1099 m 1,0,-1
 1136 945 l 1,1,2
 1066 923 1066 923 939 902 c 1,3,-1
 934 893 l 1,4,5
 977 822 977 822 977 716 c 0,6,7
 977 604 977 604 925 520.5 c 128,-1,8
 873 437 873 437 774.5 391.5 c 128,-1,9
 676 346 676 346 543 346 c 0,10,11
 474 346 474 346 403 361 c 1,12,13
 376 338 376 338 365.5 321 c 128,-1,14
 355 304 355 304 355 284 c 0,15,16
 355 256 355 256 384 236.5 c 128,-1,17
 413 217 413 217 460.5 207.5 c 128,-1,18
 508 198 508 198 568.5 188.5 c 128,-1,19
 629 179 629 179 692.5 170.5 c 128,-1,20
 756 162 756 162 816.5 143 c 128,-1,21
 877 124 877 124 924.5 98 c 128,-1,22
 972 72 972 72 1001 25 c 128,-1,23
 1030 -22 1030 -22 1030 -85 c 0,24,25
 1030 -128 1030 -128 1017.5 -169 c 128,-1,26
 1005 -210 1005 -210 980.5 -245.5 c 128,-1,27
 956 -281 956 -281 922 -312 c 128,-1,28
 888 -343 888 -343 844 -367.5 c 128,-1,29
 800 -392 800 -392 750 -409 c 128,-1,30
 700 -426 700 -426 642 -435.5 c 128,-1,31
 584 -445 584 -445 523 -445 c 0,32,33
 329 -445 329 -445 222.5 -360 c 128,-1,34
 116 -275 116 -275 116 -138 c 1,35,36
 150 -82 150 -82 198.5 -38.5 c 128,-1,37
 247 5 247 5 315 48 c 1,38,-1
 315 59 l 1,39,40
 235 86 235 86 191 131.5 c 128,-1,41
 147 177 147 177 147 252 c 1,42,43
 206 336 206 336 293 392 c 1,44,-1
 293 403 l 1,45,46
 216 446 216 446 176 521.5 c 128,-1,47
 136 597 136 597 136 698 c 0,48,49
 136 873 136 873 252 972 c 128,-1,50
 368 1071 368 1071 564 1071 c 0,51,52
 687 1071 687 1071 775 1033 c 1,53,54
 950 1060 950 1060 1114 1112 c 1,55,-1
 1136 1099 l 1,0,-1
553 495 m 0,56,57
 623 495 623 495 671.5 521 c 128,-1,58
 720 547 720 547 745.5 596.5 c 128,-1,59
 771 646 771 646 771 716 c 0,60,61
 771 815 771 815 718.5 867.5 c 128,-1,62
 666 920 666 920 562 920 c 0,63,64
 491 920 491 920 442 896 c 128,-1,65
 393 872 393 872 367.5 824.5 c 128,-1,66
 342 777 342 777 342 709 c 0,67,68
 342 607 342 607 396.5 551 c 128,-1,69
 451 495 451 495 553 495 c 0,56,57
828 -129 m 0,70,71
 828 -109 828 -109 821.5 -92.5 c 128,-1,72
 815 -76 815 -76 801.5 -63 c 128,-1,73
 788 -50 788 -50 773.5 -40 c 128,-1,74
 759 -30 759 -30 734.5 -22 c 128,-1,75
 710 -14 710 -14 689.5 -8.5 c 128,-1,76
 669 -3 669 -3 637 2.5 c 128,-1,77
 605 8 605 8 582 11 c 128,-1,78
 559 14 559 14 523 19 c 128,-1,79
 487 24 487 24 464 28 c 1,80,81
 390 -18 390 -18 353.5 -61.5 c 128,-1,82
 317 -105 317 -105 317 -151 c 0,83,84
 317 -192 317 -192 342.5 -224 c 128,-1,85
 368 -256 368 -256 421.5 -274.5 c 128,-1,86
 475 -293 475 -293 551 -293 c 0,87,88
 672 -293 672 -293 750 -247.5 c 128,-1,89
 828 -202 828 -202 828 -129 c 0,70,71
EndSplineSet
Substitution2: "'ss02' Style Set 2 lookup 36 subtable" circle1
Substitution2: "'case' Case-Sensitive Forms lookup 28 subtable" G
Substitution2: "'ordn' Ordinals lookup 22 subtable" g.sups
Substitution2: "'sups' Superscript lookup 16 subtable" g.sups
AlternateSubs2: "'aalt' Access All Alternates lookup 1 subtable" g.sups G circle1
EndChar

StartChar: h
Encoding: 104 104 75
Width: 1201
GlyphClass: 2
Flags: W
AnchorPoint: "Anchor-1" 291 0 basechar 0
AnchorPoint: "Anchor-0" 286 1488 basechar 0
LayerCount: 2
Fore
SplineSet
819 0 m 1,0,-1
 834 696 l 2,1,2
 836 753 836 753 818 794 c 128,-1,3
 800 835 800 835 763 857.5 c 128,-1,4
 726 880 726 880 672 880 c 0,5,6
 537 880 537 880 396 744 c 1,7,-1
 392 466 l 1,8,-1
 409 0 l 1,9,-1
 175 0 l 1,10,-1
 188 445 l 1,11,-1
 177 1592 l 1,12,-1
 411 1611 l 1,13,-1
 399 908 l 1,14,-1
 413 908 l 1,15,16
 546 1025 546 1025 696 1071 c 1,17,18
 813 1071 813 1071 893 1034.5 c 128,-1,19
 973 998 973 998 1012.5 929 c 128,-1,20
 1052 860 1052 860 1051 762 c 1,21,-1
 1044 464 l 1,22,-1
 1055 0 l 1,23,-1
 819 0 l 1,0,-1
EndSplineSet
Substitution2: "'ss02' Style Set 2 lookup 36 subtable" circle2
Substitution2: "'case' Case-Sensitive Forms lookup 28 subtable" H
Substitution2: "'ordn' Ordinals lookup 22 subtable" h.sups
Substitution2: "'sups' Superscript lookup 16 subtable" h.sups
AlternateSubs2: "'aalt' Access All Alternates lookup 1 subtable" h.sups H circle2
EndChar

StartChar: i
Encoding: 105 105 76
Width: 561
GlyphClass: 2
Flags: W
AnchorPoint: "Anchor-1" 0 0 basechar 0
AnchorPoint: "Anchor-0" 284 1057 basechar 0
LayerCount: 2
Fore
SplineSet
289 1550 m 0,0,1
 318 1550 318 1550 341 1541.5 c 128,-1,2
 364 1533 364 1533 379.5 1517 c 128,-1,3
 395 1501 395 1501 403 1477.5 c 128,-1,4
 411 1454 411 1454 411 1425 c 0,5,6
 411 1384 411 1384 395 1353 c 128,-1,7
 379 1322 379 1322 350 1305.5 c 128,-1,8
 321 1289 321 1289 282 1289 c 0,9,10
 222 1289 222 1289 189 1323 c 128,-1,11
 156 1357 156 1357 156 1418 c 128,-1,12
 156 1479 156 1479 191.5 1514.5 c 128,-1,13
 227 1550 227 1550 289 1550 c 0,0,1
381 464 m 1,14,-1
 396 0 l 1,15,-1
 162 0 l 1,16,-1
 177 442 l 1,17,-1
 165 1042 l 1,18,-1
 399 1062 l 1,19,-1
 381 464 l 1,14,-1
EndSplineSet
Substitution2: "Single Substitution lookup 41 subtable" I.ss01
Substitution2: "'ss01' Style Set 1 lookup 35 subtable" I.ss01
Substitution2: "'case' Case-Sensitive Forms lookup 28 subtable" I
Substitution2: "'ordn' Ordinals lookup 22 subtable" i.sups
Substitution2: "'sups' Superscript lookup 16 subtable" i.sups
Substitution2: "'locl' Localized Forms in Latin lookup 9 subtable" idotaccent
Substitution2: "'locl' Localized Forms in Latin lookup 8 subtable" idotaccent
Substitution2: "'locl' Localized Forms in Latin lookup 7 subtable" idotaccent
Substitution2: "'locl' Localized Forms in Latin lookup 6 subtable" idotaccent
Substitution2: "'locl' Localized Forms in Latin lookup 5 subtable" idotaccent
AlternateSubs2: "'aalt' Access All Alternates lookup 1 subtable" idotaccent i.sups I I.ss01
EndChar

StartChar: j
Encoding: 106 106 77
Width: 630
GlyphClass: 2
Flags: W
AnchorPoint: "Anchor-1" 0 0 basechar 0
AnchorPoint: "Anchor-0" 302 1057 basechar 0
LayerCount: 2
Fore
SplineSet
307 1550 m 0,0,1
 336 1550 336 1550 359 1541.5 c 128,-1,2
 382 1533 382 1533 397.5 1517 c 128,-1,3
 413 1501 413 1501 421 1477.5 c 128,-1,4
 429 1454 429 1454 429 1425 c 0,5,6
 429 1384 429 1384 413 1353 c 128,-1,7
 397 1322 397 1322 368 1305.5 c 128,-1,8
 339 1289 339 1289 300 1289 c 0,9,10
 240 1289 240 1289 207.5 1323 c 128,-1,11
 175 1357 175 1357 175 1418 c 128,-1,12
 175 1479 175 1479 210 1514.5 c 128,-1,13
 245 1550 245 1550 307 1550 c 0,0,1
455 1057 m 1,14,-1
 438 464 l 1,15,-1
 449 50 l 1,16,17
 449 -130 449 -130 370.5 -242.5 c 128,-1,18
 292 -355 292 -355 105 -445 c 1,19,-1
 20 -342 l 1,20,-1
 20 -317 l 1,21,22
 137 -251 137 -251 184.5 -171 c 128,-1,23
 232 -91 232 -91 232 41 c 2,24,-1
 234 442 l 1,25,-1
 225 904 l 1,26,-1
 22 904 l 1,27,-1
 7 920 l 1,28,-1
 18 1053 l 1,29,-1
 230 1053 l 1,30,-1
 447 1062 l 1,31,-1
 455 1057 l 1,14,-1
EndSplineSet
Substitution2: "'case' Case-Sensitive Forms lookup 28 subtable" J
Substitution2: "'ordn' Ordinals lookup 22 subtable" j.sups
Substitution2: "'sups' Superscript lookup 16 subtable" j.sups
AlternateSubs2: "'aalt' Access All Alternates lookup 1 subtable" j.sups J
EndChar

StartChar: k
Encoding: 107 107 78
Width: 1081
GlyphClass: 2
Flags: W
AnchorPoint: "Anchor-1" 589 0 basechar 0
AnchorPoint: "Anchor-0" 291 1560 basechar 0
LayerCount: 2
Fore
SplineSet
392 466 m 1,0,-1
 409 0 l 1,1,-1
 175 0 l 1,2,-1
 188 445 l 1,3,-1
 177 1592 l 1,4,-1
 411 1611 l 1,5,-1
 392 466 l 1,0,-1
1042 1057 m 1,6,-1
 654 576 l 1,7,8
 804 365 804 365 1066 41 c 1,9,-1
 1066 13 l 1,10,11
 1046 8 1046 8 1025 4 c 128,-1,12
 1004 0 1004 0 980 -3.5 c 128,-1,13
 956 -7 956 -7 940 -9.5 c 128,-1,14
 924 -12 924 -12 894.5 -15.5 c 128,-1,15
 865 -19 865 -19 853 -20 c 1,16,-1
 825 -11 l 1,17,18
 597 284 597 284 427 556 c 1,19,-1
 427 571 l 1,20,-1
 729 956 l 1,21,-1
 786 1057 l 1,22,-1
 1042 1057 l 1,6,-1
EndSplineSet
Substitution2: "'case' Case-Sensitive Forms lookup 28 subtable" K
Substitution2: "'ordn' Ordinals lookup 22 subtable" k.sups
Substitution2: "'sups' Superscript lookup 16 subtable" k.sups
AlternateSubs2: "'aalt' Access All Alternates lookup 1 subtable" k.sups K
EndChar

StartChar: l
Encoding: 108 108 79
Width: 582
GlyphClass: 2
Flags: W
AnchorPoint: "Anchor-1" 291 0 basechar 0
AnchorPoint: "Anchor-0" 291 1560 basechar 0
LayerCount: 2
Fore
SplineSet
392 466 m 1,0,-1
 409 0 l 1,1,-1
 175 0 l 1,2,-1
 190 445 l 1,3,-1
 177 1592 l 1,4,-1
 411 1611 l 1,5,-1
 392 466 l 1,0,-1
EndSplineSet
Substitution2: "Single Substitution lookup 41 subtable" L.ss01
Substitution2: "'ss01' Style Set 1 lookup 35 subtable" L.ss01
Substitution2: "'case' Case-Sensitive Forms lookup 28 subtable" L
Substitution2: "'ordn' Ordinals lookup 22 subtable" l.sups
Substitution2: "'sups' Superscript lookup 16 subtable" l.sups
AlternateSubs2: "'aalt' Access All Alternates lookup 1 subtable" l.sups L L.ss01
EndChar

StartChar: m
Encoding: 109 109 80
Width: 1832
GlyphClass: 2
Flags: W
LayerCount: 2
Fore
SplineSet
1454 0 m 1,0,-1
 1471 696 l 1,1,2
 1471 738 1471 738 1461 772.5 c 128,-1,3
 1451 807 1451 807 1431 831 c 128,-1,4
 1411 855 1411 855 1379.5 867.5 c 128,-1,5
 1348 880 1348 880 1307 880 c 0,6,7
 1176 880 1176 880 1037 748 c 1,8,-1
 1033 464 l 1,9,-1
 1042 0 l 1,10,-1
 808 0 l 1,11,-1
 823 696 l 2,12,13
 825 783 825 783 783.5 831.5 c 128,-1,14
 742 880 742 880 661 880 c 0,15,16
 525 880 525 880 385 744 c 1,17,-1
 383 464 l 1,18,-1
 394 0 l 1,19,-1
 162 0 l 1,20,-1
 177 442 l 1,21,-1
 165 1042 l 1,22,-1
 388 1062 l 1,23,-1
 385 908 l 1,24,-1
 401 908 l 1,25,26
 536 1027 536 1027 683 1071 c 1,27,28
 811 1071 811 1071 895 1027 c 128,-1,29
 979 983 979 983 1014 899 c 1,30,-1
 1028 899 l 1,31,32
 1164 1020 1164 1020 1331 1071 c 1,33,34
 1448 1071 1448 1071 1528 1034.5 c 128,-1,35
 1608 998 1608 998 1647.5 929 c 128,-1,36
 1687 860 1687 860 1686 762 c 1,37,-1
 1679 464 l 1,38,-1
 1690 0 l 1,39,-1
 1454 0 l 1,0,-1
EndSplineSet
Substitution2: "Single Substitution lookup 41 subtable" M.ss01
Substitution2: "'ss01' Style Set 1 lookup 35 subtable" M.ss01
Substitution2: "'case' Case-Sensitive Forms lookup 28 subtable" M
Substitution2: "'ordn' Ordinals lookup 22 subtable" m.sups
Substitution2: "'sups' Superscript lookup 16 subtable" m.sups
AlternateSubs2: "'aalt' Access All Alternates lookup 1 subtable" m.sups M M.ss01
EndChar

StartChar: n
Encoding: 110 110 81
Width: 1191
GlyphClass: 2
Flags: W
AnchorPoint: "Anchor-1" 603 0 basechar 0
AnchorPoint: "Anchor-0" 632 1057 basechar 0
LayerCount: 2
Fore
SplineSet
808 0 m 1,0,-1
 823 696 l 2,1,2
 825 783 825 783 783.5 831.5 c 128,-1,3
 742 880 742 880 661 880 c 0,4,5
 525 880 525 880 385 744 c 1,6,-1
 383 464 l 1,7,-1
 396 0 l 1,8,-1
 162 0 l 1,9,-1
 177 442 l 1,10,-1
 165 1042 l 1,11,-1
 388 1062 l 1,12,-1
 385 908 l 1,13,-1
 401 908 l 1,14,15
 534 1025 534 1025 683 1071 c 1,16,17
 859 1071 859 1071 950 991 c 128,-1,18
 1041 911 1041 911 1039 762 c 2,19,-1
 1033 464 l 1,20,-1
 1044 0 l 1,21,-1
 808 0 l 1,0,-1
EndSplineSet
Substitution2: "'case' Case-Sensitive Forms lookup 28 subtable" N
Substitution2: "'ordn' Ordinals lookup 22 subtable" n.sups
Substitution2: "'sups' Superscript lookup 16 subtable" n.sups
AlternateSubs2: "'aalt' Access All Alternates lookup 1 subtable" n.sups N
EndChar

StartChar: o
Encoding: 111 111 82
Width: 1127
GlyphClass: 2
Flags: W
AnchorPoint: "Anchor-1" 0 0 basechar 0
AnchorPoint: "Anchor-0" 566 1057 basechar 0
LayerCount: 2
Fore
SplineSet
578 1079 m 0,0,1
 800 1079 800 1079 921 939.5 c 128,-1,2
 1042 800 1042 800 1042 545 c 0,3,4
 1042 273 1042 273 913.5 126.5 c 128,-1,5
 785 -20 785 -20 548 -20 c 0,6,7
 401 -20 401 -20 297 42 c 128,-1,8
 193 104 193 104 139 223.5 c 128,-1,9
 85 343 85 343 85 512 c 0,10,11
 85 784 85 784 212.5 931.5 c 128,-1,12
 340 1079 340 1079 578 1079 c 0,0,1
564 915 m 0,13,14
 302 915 302 915 302 562 c 0,15,16
 302 346 302 346 367 243 c 128,-1,17
 432 140 432 140 564 140 c 0,18,19
 695 140 695 140 759 226.5 c 128,-1,20
 823 313 823 313 823 493 c 0,21,22
 823 637 823 637 794 731 c 128,-1,23
 765 825 765 825 708 870 c 128,-1,24
 651 915 651 915 564 915 c 0,13,14
EndSplineSet
Substitution2: "'case' Case-Sensitive Forms lookup 28 subtable" O
Substitution2: "'ordn' Ordinals lookup 22 subtable" o.sups
Substitution2: "'sups' Superscript lookup 16 subtable" o.sups
AlternateSubs2: "'aalt' Access All Alternates lookup 1 subtable" o.sups O
EndChar

StartChar: p
Encoding: 112 112 83
Width: 1169
GlyphClass: 2
Flags: W
LayerCount: 2
Fore
SplineSet
676 1068 m 1,0,1
 877 1068 877 1068 982.5 935 c 128,-1,2
 1088 802 1088 802 1088 560 c 0,3,4
 1088 281 1088 281 951 130.5 c 128,-1,5
 814 -20 814 -20 567 -20 c 0,6,7
 486 -20 486 -20 388 -2 c 1,8,-1
 394 -424 l 1,9,-1
 162 -424 l 1,10,-1
 177 442 l 1,11,-1
 162 1042 l 1,12,-1
 388 1062 l 1,13,-1
 385 911 l 1,14,-1
 401 911 l 1,15,16
 451 953 451 953 493.5 982 c 128,-1,17
 536 1011 536 1011 579.5 1031.5 c 128,-1,18
 623 1052 623 1052 676 1068 c 1,0,1
585 140 m 0,19,20
 719 140 719 140 794.5 237.5 c 128,-1,21
 870 335 870 335 867 530 c 0,22,23
 865 698 865 698 806 789 c 128,-1,24
 747 880 747 880 637 880 c 0,25,26
 517 880 517 880 383 744 c 1,27,-1
 381 464 l 1,28,-1
 385 190 l 1,29,30
 484 140 484 140 585 140 c 0,19,20
EndSplineSet
Substitution2: "'case' Case-Sensitive Forms lookup 28 subtable" P
Substitution2: "'ordn' Ordinals lookup 22 subtable" p.sups
Substitution2: "'sups' Superscript lookup 16 subtable" p.sups
AlternateSubs2: "'aalt' Access All Alternates lookup 1 subtable" p.sups P
EndChar

StartChar: q
Encoding: 113 113 84
Width: 1169
GlyphClass: 2
Flags: W
LayerCount: 2
Fore
SplineSet
989 1073 m 1,0,-1
 1009 1060 l 1,1,-1
 991 464 l 1,2,-1
 1007 -424 l 1,3,-1
 775 -424 l 1,4,-1
 786 71 l 1,5,-1
 786 119 l 1,6,-1
 766 119 l 1,7,8
 711 75 711 75 662 45.5 c 128,-1,9
 613 16 613 16 545 -13 c 1,10,11
 321 -13 321 -13 201 127.5 c 128,-1,12
 81 268 81 268 81 519 c 0,13,14
 81 788 81 788 217.5 932 c 128,-1,15
 354 1076 354 1076 594 1076 c 0,16,17
 717 1076 717 1076 869 1033 c 1,18,-1
 989 1073 l 1,0,-1
576 913 m 0,19,20
 443 913 443 913 370 820.5 c 128,-1,21
 297 728 297 728 300 543 c 0,22,23
 302 369 302 369 368.5 273 c 128,-1,24
 435 177 435 177 551 177 c 0,25,26
 610 177 610 177 665.5 204 c 128,-1,27
 721 231 721 231 786 298 c 1,28,-1
 790 440 l 1,29,-1
 782 856 l 1,30,31
 671 913 671 913 576 913 c 0,19,20
EndSplineSet
Substitution2: "'case' Case-Sensitive Forms lookup 28 subtable" Q
Substitution2: "'ordn' Ordinals lookup 22 subtable" q.sups
Substitution2: "'sups' Superscript lookup 16 subtable" q.sups
AlternateSubs2: "'aalt' Access All Alternates lookup 1 subtable" q.sups Q
EndChar

StartChar: r
Encoding: 114 114 85
Width: 760
GlyphClass: 2
Flags: W
AnchorPoint: "Anchor-1" 280 0 basechar 0
AnchorPoint: "Anchor-0" 451 1057 basechar 0
LayerCount: 2
Fore
SplineSet
690 1060 m 0,0,1
 717 1060 717 1060 748 1055 c 1,2,-1
 748 832 l 1,3,-1
 722 825 l 1,4,5
 678 838 678 838 637 838 c 0,6,7
 566 838 566 838 504.5 785 c 128,-1,8
 443 732 443 732 383 615 c 1,9,-1
 381 464 l 1,10,-1
 396 0 l 1,11,-1
 162 0 l 1,12,-1
 179 442 l 1,13,-1
 165 1042 l 1,14,-1
 388 1062 l 1,15,-1
 385 851 l 1,16,-1
 401 851 l 1,17,18
 443 926 443 926 494.5 974.5 c 128,-1,19
 546 1023 546 1023 593.5 1041.5 c 128,-1,20
 641 1060 641 1060 690 1060 c 0,0,1
EndSplineSet
Substitution2: "'case' Case-Sensitive Forms lookup 28 subtable" R
Substitution2: "'ordn' Ordinals lookup 22 subtable" r.sups
Substitution2: "'sups' Superscript lookup 16 subtable" r.sups
AlternateSubs2: "'aalt' Access All Alternates lookup 1 subtable" r.sups R
EndChar

StartChar: s
Encoding: 115 115 86
Width: 862
GlyphClass: 2
Flags: W
AnchorPoint: "Anchor-1" 411 0 basechar 0
AnchorPoint: "Anchor-0" 431 1057 basechar 0
LayerCount: 2
Fore
SplineSet
482 1076 m 0,0,1
 619 1076 619 1076 750 1023 c 1,2,-1
 718 840 l 1,3,-1
 688 832 l 1,4,5
 566 913 566 913 455 913 c 0,6,7
 420 913 420 913 391.5 902.5 c 128,-1,8
 363 892 363 892 344 874.5 c 128,-1,9
 325 857 325 857 315 834 c 128,-1,10
 305 811 305 811 305 786 c 0,11,12
 305 752 305 752 325 724 c 128,-1,13
 345 696 345 696 378.5 676.5 c 128,-1,14
 412 657 412 657 455 636.5 c 128,-1,15
 498 616 498 616 542.5 598.5 c 128,-1,16
 587 581 587 581 629.5 554 c 128,-1,17
 672 527 672 527 705.5 496 c 128,-1,18
 739 465 739 465 759.5 417.5 c 128,-1,19
 780 370 780 370 780 312 c 0,20,21
 780 247 780 247 754.5 188.5 c 128,-1,22
 729 130 729 130 681 83 c 128,-1,23
 633 36 633 36 556 8 c 128,-1,24
 479 -20 479 -20 383 -20 c 0,25,26
 223 -20 223 -20 62 50 c 1,27,-1
 90 245 l 1,28,-1
 114 261 l 1,29,30
 181 203 181 203 261.5 170.5 c 128,-1,31
 342 138 342 138 409 138 c 0,32,33
 483 138 483 138 527 178.5 c 128,-1,34
 571 219 571 219 571 273 c 0,35,36
 571 308 571 308 550.5 336.5 c 128,-1,37
 530 365 530 365 497 384.5 c 128,-1,38
 464 404 464 404 421 424.5 c 128,-1,39
 378 445 378 445 333.5 463.5 c 128,-1,40
 289 482 289 482 246.5 509.5 c 128,-1,41
 204 537 204 537 170.5 568.5 c 128,-1,42
 137 600 137 600 116.5 649 c 128,-1,43
 96 698 96 698 96 757 c 0,44,45
 96 897 96 897 200 986.5 c 128,-1,46
 304 1076 304 1076 482 1076 c 0,0,1
EndSplineSet
Substitution2: "'case' Case-Sensitive Forms lookup 28 subtable" S
Substitution2: "'ordn' Ordinals lookup 22 subtable" s.sups
Substitution2: "'sups' Superscript lookup 16 subtable" s.sups
AlternateSubs2: "'aalt' Access All Alternates lookup 1 subtable" s.sups S
EndChar

StartChar: t
Encoding: 116 116 87
Width: 749
GlyphClass: 2
Flags: W
AnchorPoint: "Anchor-1" 431 0 basechar 0
AnchorPoint: "Anchor-0" 0 0 basechar 0
LayerCount: 2
Fore
SplineSet
536 177 m 0,0,1
 613 177 613 177 698 218 c 1,2,-1
 720 202 l 1,3,-1
 698 55 l 1,4,5
 572 -4 572 -4 464 -13 c 1,6,7
 321 9 321 9 257 82 c 128,-1,8
 193 155 193 155 193 291 c 1,9,-1
 202 457 l 1,10,-1
 199 904 l 1,11,-1
 55 904 l 1,12,-1
 46 917 l 1,13,-1
 57 1053 l 1,14,-1
 197 1053 l 1,15,-1
 197 1221 l 1,16,-1
 403 1298 l 1,17,-1
 424 1280 l 1,18,-1
 420 1053 l 1,19,-1
 713 1053 l 1,20,-1
 722 1037 l 1,21,-1
 711 904 l 1,22,-1
 416 904 l 1,23,-1
 403 328 l 2,24,25
 402 244 402 244 433 210.5 c 128,-1,26
 464 177 464 177 536 177 c 0,0,1
EndSplineSet
Substitution2: "'case' Case-Sensitive Forms lookup 28 subtable" T
Substitution2: "'ordn' Ordinals lookup 22 subtable" t.sups
Substitution2: "'sups' Superscript lookup 16 subtable" t.sups
AlternateSubs2: "'aalt' Access All Alternates lookup 1 subtable" t.sups T
EndChar

StartChar: u
Encoding: 117 117 88
Width: 1180
GlyphClass: 2
Flags: W
AnchorPoint: "Anchor-1" 0 0 basechar 0
AnchorPoint: "Anchor-0" 589 1057 basechar 0
LayerCount: 2
Fore
SplineSet
1002 1062 m 1,0,-1
 987 245 l 2,1,2
 987 203 987 203 1000.5 186.5 c 128,-1,3
 1014 170 1014 170 1048 170 c 0,4,5
 1076 170 1076 170 1119 179 c 1,6,-1
 1140 162 l 1,7,-1
 1117 35 l 1,8,9
 1051 -6 1051 -6 972 -16 c 1,10,11
 902 -9 902 -9 859.5 33.5 c 128,-1,12
 817 76 817 76 803 147 c 1,13,-1
 784 147 l 1,14,15
 650 26 650 26 510 -13 c 1,16,17
 336 -13 336 -13 245 67 c 128,-1,18
 154 147 154 147 156 296 c 2,19,-1
 160 582 l 1,20,-1
 151 1042 l 1,21,-1
 383 1062 l 1,22,-1
 372 361 l 2,23,24
 370 275 370 275 410.5 227 c 128,-1,25
 451 179 451 179 530 179 c 0,26,27
 656 179 656 179 780 296 c 1,28,-1
 780 1042 l 1,29,-1
 1002 1062 l 1,0,-1
EndSplineSet
Substitution2: "'case' Case-Sensitive Forms lookup 28 subtable" U
Substitution2: "'ordn' Ordinals lookup 22 subtable" u.sups
Substitution2: "'sups' Superscript lookup 16 subtable" u.sups
AlternateSubs2: "'aalt' Access All Alternates lookup 1 subtable" u.sups U
EndChar

StartChar: v
Encoding: 118 118 89
Width: 992
GlyphClass: 2
Flags: W
LayerCount: 2
Fore
SplineSet
287 908 m 1,0,-1
 486 225 l 1,1,-1
 503 225 l 1,2,-1
 736 897 l 1,3,-1
 775 1057 l 1,4,-1
 982 1057 l 1,5,-1
 608 0 l 1,6,-1
 355 0 l 1,7,-1
 41 1053 l 1,8,-1
 256 1064 l 1,9,-1
 287 908 l 1,0,-1
EndSplineSet
Substitution2: "Single Substitution lookup 41 subtable" V.ss01
Substitution2: "'ss01' Style Set 1 lookup 35 subtable" V.ss01
Substitution2: "'case' Case-Sensitive Forms lookup 28 subtable" V
Substitution2: "'ordn' Ordinals lookup 22 subtable" v.sups
Substitution2: "'sups' Superscript lookup 16 subtable" v.sups
AlternateSubs2: "'aalt' Access All Alternates lookup 1 subtable" v.sups V V.ss01
EndChar

StartChar: w
Encoding: 119 119 90
Width: 1570
GlyphClass: 2
Flags: W
AnchorPoint: "Anchor-1" 0 0 basechar 0
AnchorPoint: "Anchor-0" 796 1057 basechar 0
LayerCount: 2
Fore
SplineSet
278 915 m 1,0,-1
 445 243 l 1,1,-1
 461 243 l 1,2,-1
 656 904 l 1,3,-1
 696 1057 l 1,4,-1
 920 1057 l 1,5,-1
 945 915 l 1,6,-1
 1114 243 l 1,7,-1
 1129 243 l 1,8,-1
 1324 904 l 1,9,-1
 1360 1057 l 1,10,-1
 1560 1057 l 1,11,-1
 1221 0 l 1,12,-1
 998 0 l 1,13,-1
 803 762 l 1,14,-1
 784 762 l 1,15,-1
 558 0 l 1,16,-1
 328 0 l 1,17,-1
 41 1053 l 1,18,-1
 254 1064 l 1,19,-1
 278 915 l 1,0,-1
EndSplineSet
Substitution2: "'case' Case-Sensitive Forms lookup 28 subtable" W
Substitution2: "'ordn' Ordinals lookup 22 subtable" w.sups
Substitution2: "'sups' Superscript lookup 16 subtable" w.sups
AlternateSubs2: "'aalt' Access All Alternates lookup 1 subtable" w.sups W
EndChar

StartChar: x
Encoding: 120 120 91
Width: 1022
GlyphClass: 2
Flags: W
LayerCount: 2
Fore
SplineSet
339 952 m 1,0,-1
 528 668 l 1,1,-1
 704 956 l 1,2,-1
 759 1057 l 1,3,-1
 968 1057 l 1,4,-1
 652 539 l 1,5,-1
 989 9 l 1,6,-1
 744 -11 l 1,7,-1
 692 108 l 1,8,-1
 497 403 l 1,9,-1
 302 96 l 1,10,-1
 254 0 l 1,11,-1
 46 0 l 1,12,-1
 370 534 l 1,13,-1
 46 1051 l 1,14,-1
 293 1064 l 1,15,-1
 339 952 l 1,0,-1
EndSplineSet
Substitution2: "Single Substitution lookup 41 subtable" X.ss01
Substitution2: "'ss01' Style Set 1 lookup 35 subtable" X.ss01
Substitution2: "'case' Case-Sensitive Forms lookup 28 subtable" X
Substitution2: "'ordn' Ordinals lookup 22 subtable" x.sups
Substitution2: "'sups' Superscript lookup 16 subtable" x.sups
AlternateSubs2: "'aalt' Access All Alternates lookup 1 subtable" x.sups X X.ss01
EndChar

StartChar: y
Encoding: 121 121 92
Width: 996
GlyphClass: 2
Flags: W
AnchorPoint: "Anchor-1" 0 0 basechar 0
AnchorPoint: "Anchor-0" 507 1057 basechar 0
LayerCount: 2
Fore
SplineSet
273 915 m 1,0,-1
 495 248 l 1,1,-1
 514 248 l 1,2,-1
 738 893 l 1,3,-1
 773 1057 l 1,4,-1
 982 1057 l 1,5,-1
 622 55 l 2,6,7
 548 -153 548 -153 423 -266 c 128,-1,8
 298 -379 298 -379 78 -438 c 1,9,-1
 57 -438 l 1,10,11
 -5 -379 -5 -379 -50 -293 c 1,12,-1
 -44 -269 l 1,13,14
 119 -238 119 -238 222 -175.5 c 128,-1,15
 325 -113 325 -113 399 0 c 1,16,-1
 11 1053 l 1,17,-1
 239 1064 l 1,18,-1
 273 915 l 1,0,-1
EndSplineSet
Substitution2: "'case' Case-Sensitive Forms lookup 28 subtable" Y
Substitution2: "'ordn' Ordinals lookup 22 subtable" y.sups
Substitution2: "'sups' Superscript lookup 16 subtable" y.sups
AlternateSubs2: "'aalt' Access All Alternates lookup 1 subtable" y.sups Y
EndChar

StartChar: z
Encoding: 122 122 93
Width: 956
GlyphClass: 2
Flags: W
AnchorPoint: "Anchor-1" 0 0 basechar 0
AnchorPoint: "Anchor-0" 477 1057 basechar 0
LayerCount: 2
Fore
SplineSet
307 1057 m 1,0,-1
 771 1057 l 1,1,-1
 871 1060 l 1,2,-1
 876 920 l 1,3,-1
 317 156 l 1,4,-1
 692 156 l 1,5,-1
 876 175 l 1,6,-1
 890 156 l 1,7,-1
 871 -4 l 1,8,-1
 635 0 l 1,9,-1
 195 0 l 1,10,-1
 71 -4 l 1,11,-1
 68 133 l 1,12,-1
 631 902 l 1,13,-1
 273 902 l 1,14,-1
 96 883 l 1,15,-1
 83 902 l 1,16,-1
 99 1062 l 1,17,-1
 307 1057 l 1,0,-1
EndSplineSet
Substitution2: "'case' Case-Sensitive Forms lookup 28 subtable" Z
Substitution2: "'ordn' Ordinals lookup 22 subtable" z.sups
Substitution2: "'sups' Superscript lookup 16 subtable" z.sups
AlternateSubs2: "'aalt' Access All Alternates lookup 1 subtable" z.sups Z
EndChar

StartChar: braceleft
Encoding: 123 123 94
Width: 666
GlyphClass: 2
Flags: W
LayerCount: 2
Fore
SplineSet
507 1504 m 0,0,1
 550 1504 550 1504 637 1486 c 1,2,-1
 647 1468 l 1,3,-1
 626 1344 l 1,4,5
 572 1355 572 1355 543 1355 c 0,6,7
 474 1355 474 1355 441.5 1317 c 128,-1,8
 409 1279 409 1279 409 1200 c 0,9,10
 409 1146 409 1146 434 1021.5 c 128,-1,11
 459 897 459 897 459 849 c 0,12,13
 459 679 459 679 302 613 c 1,14,-1
 302 601 l 1,15,16
 379 569 379 569 419 508 c 128,-1,17
 459 447 459 447 459 367 c 0,18,19
 459 316 459 316 434 192 c 128,-1,20
 409 68 409 68 409 13 c 0,21,22
 409 -68 409 -68 442 -107.5 c 128,-1,23
 475 -147 475 -147 543 -147 c 0,24,25
 572 -147 572 -147 626 -136 c 1,26,-1
 647 -254 l 1,27,-1
 637 -273 l 1,28,29
 579 -291 579 -291 507 -291 c 0,30,31
 368 -291 368 -291 295.5 -224 c 128,-1,32
 223 -157 223 -157 223 -28 c 0,33,34
 223 43 223 43 246 177 c 128,-1,35
 269 311 269 311 269 357 c 0,36,37
 269 435 269 435 226 481.5 c 128,-1,38
 183 528 183 528 94 548 c 1,39,-1
 94 663 l 1,40,41
 269 701 269 701 269 853 c 0,42,43
 269 900 269 900 246 1035 c 128,-1,44
 223 1170 223 1170 223 1241 c 0,45,46
 223 1370 223 1370 295.5 1437 c 128,-1,47
 368 1504 368 1504 507 1504 c 0,0,1
EndSplineSet
EndChar

StartChar: bar
Encoding: 124 124 95
Width: 712
GlyphClass: 2
Flags: W
LayerCount: 2
Fore
SplineSet
447 1819 m 1,0,-1
 445 663 l 1,1,-1
 445 -587 l 1,2,-1
 284 -599 l 1,3,-1
 267 -576 l 1,4,-1
 267 647 l 1,5,-1
 269 1821 l 1,6,-1
 431 1835 l 1,7,-1
 447 1819 l 1,0,-1
EndSplineSet
EndChar

StartChar: braceright
Encoding: 125 125 96
Width: 666
GlyphClass: 2
Flags: W
LayerCount: 2
Fore
SplineSet
160 -291 m 0,0,1
 100 -291 100 -291 30 -273 c 1,2,-1
 20 -254 l 1,3,-1
 41 -133 l 1,4,5
 92 -144 92 -144 124 -144 c 0,6,7
 259 -144 259 -144 259 13 c 0,8,9
 259 67 259 67 233.5 192 c 128,-1,10
 208 317 208 317 208 365 c 0,11,12
 208 448 208 448 248 508.5 c 128,-1,13
 288 569 288 569 365 601 c 1,14,-1
 365 613 l 1,15,16
 327 629 327 629 297.5 652.5 c 128,-1,17
 268 676 268 676 248 705.5 c 128,-1,18
 228 735 228 735 218 770 c 128,-1,19
 208 805 208 805 208 844 c 0,20,21
 208 897 208 897 233.5 1021 c 128,-1,22
 259 1145 259 1145 259 1200 c 0,23,24
 259 1280 259 1280 226 1318.5 c 128,-1,25
 193 1357 193 1357 124 1357 c 0,26,27
 92 1357 92 1357 41 1346 c 1,28,-1
 20 1468 l 1,29,-1
 30 1486 l 1,30,31
 100 1504 100 1504 160 1504 c 0,32,33
 253 1504 253 1504 316.5 1474.5 c 128,-1,34
 380 1445 380 1445 412.5 1386 c 128,-1,35
 445 1327 445 1327 445 1241 c 0,36,37
 445 1170 445 1170 420.5 1035.5 c 128,-1,38
 396 901 396 901 396 856 c 0,39,40
 396 699 396 699 573 665 c 1,41,-1
 573 551 l 1,42,43
 396 509 396 509 396 357 c 0,44,45
 396 312 396 312 420.5 177.5 c 128,-1,46
 445 43 445 43 445 -28 c 0,47,48
 445 -157 445 -157 372.5 -224 c 128,-1,49
 300 -291 300 -291 160 -291 c 0,0,1
EndSplineSet
EndChar

StartChar: asciitilde
Encoding: 126 126 97
Width: 1100
GlyphClass: 2
Flags: W
LayerCount: 2
Fore
SplineSet
342 569 m 0,0,1
 332 569 332 569 323 566 c 128,-1,2
 314 563 314 563 302.5 556 c 128,-1,3
 291 549 291 549 282.5 542.5 c 128,-1,4
 274 536 274 536 259.5 522.5 c 128,-1,5
 245 509 245 509 236.5 500.5 c 128,-1,6
 228 492 228 492 210.5 474 c 128,-1,7
 193 456 193 456 184 447 c 1,8,-1
 158 447 l 1,9,-1
 96 525 l 1,10,-1
 96 548 l 1,11,-1
 271 734 l 1,12,-1
 296 748 l 1,13,14
 347 739 347 739 534.5 685 c 128,-1,15
 722 631 722 631 764 631 c 0,16,17
 771 631 771 631 778 632.5 c 128,-1,18
 785 634 785 634 793 638.5 c 128,-1,19
 801 643 801 643 808 647 c 128,-1,20
 815 651 815 651 824.5 659.5 c 128,-1,21
 834 668 834 668 841 673.5 c 128,-1,22
 848 679 848 679 860 691 c 128,-1,23
 872 703 872 703 879 709.5 c 128,-1,24
 886 716 886 716 900 730.5 c 128,-1,25
 914 745 914 745 922 753 c 1,26,-1
 945 753 l 1,27,-1
 1007 674 l 1,28,-1
 1007 652 l 1,29,-1
 832 464 l 1,30,-1
 808 455 l 1,31,32
 759 461 759 461 656.5 490 c 128,-1,33
 554 519 554 519 463.5 544 c 128,-1,34
 373 569 373 569 342 569 c 0,0,1
EndSplineSet
EndChar

StartChar: exclamdown
Encoding: 161 161 99
Width: 595
GlyphClass: 2
Flags: W
LayerCount: 2
Fore
SplineSet
326 821 m 0,0,1
 268 821 268 821 236 854.5 c 128,-1,2
 204 888 204 888 204 948 c 0,3,4
 204 1010 204 1010 239 1046.5 c 128,-1,5
 274 1083 274 1083 333 1083 c 0,6,7
 393 1083 393 1083 426 1049 c 128,-1,8
 459 1015 459 1015 459 954 c 0,9,10
 459 894 459 894 422.5 857.5 c 128,-1,11
 386 821 386 821 326 821 c 0,0,1
168 -422 m 1,12,-1
 232 551 l 1,13,-1
 367 569 l 1,14,-1
 392 541 l 1,15,-1
 399 -413 l 1,16,-1
 379 -440 l 1,17,-1
 195 -451 l 1,18,-1
 168 -422 l 1,12,-1
EndSplineSet
EndChar

StartChar: cent
Encoding: 162 162 100
Width: 878
GlyphClass: 2
Flags: W
LayerCount: 2
Fore
SplineSet
840 298 m 1,0,-1
 821 158 l 1,1,2
 694 87 694 87 541 81 c 1,3,-1
 514 -278 l 1,4,-1
 399 -278 l 1,5,-1
 381 -256 l 1,6,-1
 405 94 l 1,7,8
 251 130 251 130 164.5 266 c 128,-1,9
 78 402 78 402 78 610 c 0,10,11
 78 851 78 851 186.5 996 c 128,-1,12
 295 1141 295 1141 486 1163 c 1,13,-1
 510 1497 l 1,14,-1
 624 1497 l 1,15,-1
 644 1477 l 1,16,-1
 622 1163 l 1,17,18
 745 1148 745 1148 838 1092 c 1,19,-1
 803 943 l 1,20,-1
 780 939 l 1,21,22
 701 988 701 988 613 1005 c 1,23,-1
 553 236 l 1,24,-1
 560 236 l 2,25,26
 691 236 691 236 819 309 c 1,27,-1
 840 298 l 1,0,-1
261 628 m 0,28,29
 261 497 261 497 302 405.5 c 128,-1,30
 343 314 343 314 418 271 c 1,31,-1
 473 1000 l 1,32,33
 372 972 372 972 316.5 874.5 c 128,-1,34
 261 777 261 777 261 628 c 0,28,29
EndSplineSet
EndChar

StartChar: sterling
Encoding: 163 163 101
Width: 981
GlyphClass: 2
Flags: W
LayerCount: 2
Fore
SplineSet
915 162 m 1,0,-1
 899 -4 l 1,1,-1
 647 0 l 1,2,-1
 59 0 l 1,3,-1
 48 13 l 1,4,-1
 62 138 l 1,5,6
 145 157 145 157 186 215.5 c 128,-1,7
 227 274 227 274 227 376 c 2,8,-1
 227 650 l 1,9,-1
 59 650 l 1,10,-1
 50 663 l 1,11,-1
 62 777 l 1,12,-1
 225 777 l 1,13,-1
 225 970 l 1,14,15
 223 1159 223 1159 330 1261 c 128,-1,16
 437 1363 437 1363 635 1363 c 0,17,18
 747 1363 747 1363 890 1324 c 1,19,-1
 876 1151 l 1,20,-1
 862 1138 l 1,21,22
 731 1213 731 1213 619 1213 c 0,23,24
 522 1213 522 1213 472 1160 c 128,-1,25
 422 1107 422 1107 422 1002 c 2,26,-1
 422 777 l 1,27,-1
 713 777 l 1,28,-1
 722 764 l 1,29,-1
 711 650 l 1,30,-1
 420 650 l 1,31,-1
 420 394 l 2,32,33
 420 315 420 315 397.5 262 c 128,-1,34
 375 209 375 209 328 170 c 1,35,-1
 328 162 l 1,36,-1
 685 162 l 1,37,-1
 906 179 l 1,38,-1
 915 162 l 1,0,-1
EndSplineSet
EndChar

StartChar: currency
Encoding: 164 164 102
Width: 996
GlyphClass: 2
Flags: W
LayerCount: 2
Fore
SplineSet
941 1160 m 1,0,-1
 941 1138 l 1,1,-1
 784 993 l 1,2,3
 842 910 842 910 842 812 c 0,4,5
 842 721 842 721 786 640 c 1,6,-1
 945 500 l 1,7,-1
 948 477 l 1,8,-1
 847 370 l 1,9,-1
 823 372 l 1,10,-1
 681 528 l 1,11,12
 600 468 600 468 497 468 c 0,13,14
 402 468 402 468 326 523 c 1,15,-1
 186 367 l 1,16,-1
 162 367 l 1,17,-1
 55 468 l 1,18,-1
 57 491 l 1,19,-1
 213 631 l 1,20,21
 153 712 153 712 153 812 c 0,22,23
 153 909 153 909 208 989 c 1,24,-1
 53 1129 l 1,25,-1
 53 1151 l 1,26,-1
 151 1257 l 1,27,-1
 175 1254 l 1,28,-1
 319 1099 l 1,29,30
 397 1156 397 1156 497 1156 c 0,31,32
 592 1156 592 1156 670 1103 c 1,33,-1
 812 1259 l 1,34,-1
 834 1261 l 1,35,-1
 941 1160 l 1,0,-1
497 1025 m 0,36,37
 408 1025 408 1025 347.5 964 c 128,-1,38
 287 903 287 903 287 812 c 256,39,40
 287 721 287 721 347.5 661 c 128,-1,41
 408 601 408 601 497 601 c 0,42,43
 590 601 590 601 650.5 660.5 c 128,-1,44
 711 720 711 720 711 812 c 256,45,46
 711 904 711 904 650.5 964.5 c 128,-1,47
 590 1025 590 1025 497 1025 c 0,36,37
EndSplineSet
EndChar

StartChar: yen
Encoding: 165 165 103
Width: 1146
GlyphClass: 2
Flags: W
LayerCount: 2
Fore
SplineSet
1094 379 m 1,0,-1
 1103 367 l 1,1,-1
 1096 269 l 1,2,-1
 663 269 l 1,3,-1
 668 0 l 1,4,-1
 473 0 l 1,5,-1
 479 269 l 1,6,-1
 64 269 l 1,7,-1
 55 280 l 1,8,-1
 62 379 l 1,9,-1
 482 379 l 1,10,-1
 482 385 l 1,11,-1
 379 576 l 1,12,-1
 64 576 l 1,13,-1
 55 589 l 1,14,-1
 62 688 l 1,15,-1
 319 688 l 1,16,-1
 76 1147 l 1,17,-1
 284 1147 l 1,18,-1
 309 1076 l 1,19,-1
 569 604 l 1,20,-1
 585 604 l 1,21,-1
 865 1068 l 1,22,-1
 899 1147 l 1,23,-1
 1103 1147 l 1,24,-1
 838 688 l 1,25,-1
 1094 688 l 1,26,-1
 1105 676 l 1,27,-1
 1096 576 l 1,28,-1
 771 576 l 1,29,-1
 663 390 l 1,30,-1
 663 379 l 1,31,-1
 1094 379 l 1,0,-1
EndSplineSet
EndChar

StartChar: brokenbar
Encoding: 166 166 104
Width: 712
GlyphClass: 2
Flags: W
LayerCount: 2
Fore
SplineSet
447 1819 m 1,0,-1
 445 858 l 1,1,-1
 284 840 l 1,2,-1
 267 856 l 1,3,-1
 267 1821 l 1,4,-1
 431 1835 l 1,5,-1
 447 1819 l 1,0,-1
445 344 m 1,6,-1
 445 -587 l 1,7,-1
 284 -599 l 1,8,-1
 267 -576 l 1,9,-1
 267 348 l 1,10,-1
 424 367 l 1,11,-1
 445 344 l 1,6,-1
EndSplineSet
EndChar

StartChar: section
Encoding: 167 167 105
Width: 974
GlyphClass: 2
Flags: W
LayerCount: 2
Fore
SplineSet
681 321 m 1,0,1
 796 222 796 222 796 99 c 0,2,3
 796 33 796 33 766 -27 c 128,-1,4
 736 -87 736 -87 684 -132 c 128,-1,5
 632 -177 632 -177 555.5 -203.5 c 128,-1,6
 479 -230 479 -230 392 -230 c 0,7,8
 344 -230 344 -230 287.5 -221 c 128,-1,9
 231 -212 231 -212 174 -195.5 c 128,-1,10
 117 -179 117 -179 71 -158 c 1,11,-1
 101 35 l 1,12,-1
 124 50 l 1,13,14
 193 -11 193 -11 270 -44.5 c 128,-1,15
 347 -78 347 -78 418 -78 c 0,16,17
 499 -78 499 -78 547.5 -36 c 128,-1,18
 596 6 596 6 596 62 c 0,19,20
 596 91 596 91 578.5 119 c 128,-1,21
 561 147 561 147 531.5 171 c 128,-1,22
 502 195 502 195 464 219.5 c 128,-1,23
 426 244 426 244 384 269 c 128,-1,24
 342 294 342 294 299.5 320.5 c 128,-1,25
 257 347 257 347 219 379.5 c 128,-1,26
 181 412 181 412 151.5 447.5 c 128,-1,27
 122 483 122 483 104.5 529 c 128,-1,28
 87 575 87 575 87 626 c 0,29,30
 87 690 87 690 113.5 750 c 128,-1,31
 140 810 140 810 188.5 859.5 c 128,-1,32
 237 909 237 909 302 943 c 1,33,34
 190 1040 190 1040 190 1160 c 0,35,36
 190 1226 190 1226 220 1286 c 128,-1,37
 250 1346 250 1346 302 1390.5 c 128,-1,38
 354 1435 354 1435 428.5 1461.5 c 128,-1,39
 503 1488 503 1488 587 1488 c 0,40,41
 627 1488 627 1488 671.5 1482.5 c 128,-1,42
 716 1477 716 1477 764 1465 c 128,-1,43
 812 1453 812 1453 853 1436 c 1,44,-1
 823 1248 l 1,45,-1
 794 1241 l 1,46,47
 660 1333 660 1333 553 1333 c 0,48,49
 481 1333 481 1333 434.5 1290.5 c 128,-1,50
 388 1248 388 1248 388 1195 c 0,51,52
 388 1162 388 1162 409.5 1131 c 128,-1,53
 431 1100 431 1100 467 1075 c 128,-1,54
 503 1050 503 1050 549 1021.5 c 128,-1,55
 595 993 595 993 642.5 966 c 128,-1,56
 690 939 690 939 736 904 c 128,-1,57
 782 869 782 869 817.5 831.5 c 128,-1,58
 853 794 853 794 875 743 c 128,-1,59
 897 692 897 692 897 635 c 0,60,61
 897 538 897 538 839.5 454.5 c 128,-1,62
 782 371 782 371 681 321 c 1,0,1
284 674 m 0,63,64
 284 658 284 658 288.5 642.5 c 128,-1,65
 293 627 293 627 299.5 613 c 128,-1,66
 306 599 306 599 318 585 c 128,-1,67
 330 571 330 571 341.5 559 c 128,-1,68
 353 547 353 547 370.5 533.5 c 128,-1,69
 388 520 388 520 402.5 509.5 c 128,-1,70
 417 499 417 499 438.5 485 c 128,-1,71
 460 471 460 471 475.5 461.5 c 128,-1,72
 491 452 491 452 515.5 437.5 c 128,-1,73
 540 423 540 423 556 413 c 1,74,75
 700 478 700 478 700 582 c 0,76,77
 700 603 700 603 693 623.5 c 128,-1,78
 686 644 686 644 677.5 660 c 128,-1,79
 669 676 669 676 649.5 695.5 c 128,-1,80
 630 715 630 715 616.5 727 c 128,-1,81
 603 739 603 739 574.5 758.5 c 128,-1,82
 546 778 546 778 531 788 c 128,-1,83
 516 798 516 798 482 819 c 128,-1,84
 448 840 448 840 433 849 c 1,85,86
 284 778 284 778 284 674 c 0,63,64
EndSplineSet
EndChar

StartChar: dieresis
Encoding: 168 168 106
Width: 891
GlyphClass: 2
Flags: W
LayerCount: 2
Fore
SplineSet
264 1525 m 0,0,1
 319 1525 319 1525 349 1494.5 c 128,-1,2
 379 1464 379 1464 379 1408 c 0,3,4
 379 1369 379 1369 364 1340.5 c 128,-1,5
 349 1312 349 1312 321.5 1297 c 128,-1,6
 294 1282 294 1282 256 1282 c 0,7,8
 200 1282 200 1282 170 1313 c 128,-1,9
 140 1344 140 1344 140 1401 c 256,10,11
 140 1458 140 1458 173.5 1491.5 c 128,-1,12
 207 1525 207 1525 264 1525 c 0,0,1
640 1525 m 0,13,14
 676 1525 676 1525 702 1511 c 128,-1,15
 728 1497 728 1497 741.5 1471 c 128,-1,16
 755 1445 755 1445 755 1408 c 0,17,18
 755 1349 755 1349 722.5 1315.5 c 128,-1,19
 690 1282 690 1282 633 1282 c 256,20,21
 576 1282 576 1282 546 1313 c 128,-1,22
 516 1344 516 1344 516 1401 c 128,-1,23
 516 1458 516 1458 549.5 1491.5 c 128,-1,24
 583 1525 583 1525 640 1525 c 0,13,14
EndSplineSet
EndChar

StartChar: copyright
Encoding: 169 169 107
Width: 1572
GlyphClass: 2
Flags: W
LayerCount: 2
Fore
SplineSet
784 1372 m 256,0,1
 936 1372 936 1372 1064 1321.5 c 128,-1,2
 1192 1271 1192 1271 1281 1180 c 128,-1,3
 1370 1089 1370 1089 1419 958.5 c 128,-1,4
 1468 828 1468 828 1468 672 c 128,-1,5
 1468 516 1468 516 1419 385.5 c 128,-1,6
 1370 255 1370 255 1281 164 c 128,-1,7
 1192 73 1192 73 1064 22.5 c 128,-1,8
 936 -28 936 -28 784 -28 c 256,9,10
 632 -28 632 -28 505 22.5 c 128,-1,11
 378 73 378 73 289.5 164 c 128,-1,12
 201 255 201 255 152 385.5 c 128,-1,13
 103 516 103 516 103 672 c 128,-1,14
 103 828 103 828 152 958.5 c 128,-1,15
 201 1089 201 1089 289.5 1180 c 128,-1,16
 378 1271 378 1271 505 1321.5 c 128,-1,17
 632 1372 632 1372 784 1372 c 256,0,1
784 1282 m 128,-1,19
 608 1282 608 1282 474 1206.5 c 128,-1,20
 340 1131 340 1131 266.5 992.5 c 128,-1,21
 193 854 193 854 193 672 c 128,-1,22
 193 490 193 490 266.5 351.5 c 128,-1,23
 340 213 340 213 474 137.5 c 128,-1,24
 608 62 608 62 784 62 c 128,-1,25
 960 62 960 62 1095 137.5 c 128,-1,26
 1230 213 1230 213 1304.5 351.5 c 128,-1,27
 1379 490 1379 490 1379 672 c 128,-1,28
 1379 854 1379 854 1304.5 992.5 c 128,-1,29
 1230 1131 1230 1131 1095 1206.5 c 128,-1,18
 960 1282 960 1282 784 1282 c 128,-1,19
825 1066 m 0,30,31
 932 1066 932 1066 1037 1020 c 1,32,-1
 1007 893 l 1,33,-1
 993 886 l 1,34,35
 958 908 958 908 911 921 c 128,-1,36
 864 934 864 934 821 934 c 0,37,38
 715 934 715 934 662.5 873.5 c 128,-1,39
 610 813 610 813 610 688 c 0,40,41
 610 422 610 422 823 422 c 0,42,43
 868 422 868 422 917.5 434.5 c 128,-1,44
 967 447 967 447 1007 468 c 1,45,-1
 1023 461 l 1,46,-1
 1009 333 l 1,47,48
 913 289 913 289 812 289 c 0,49,50
 631 289 631 289 538 388 c 128,-1,51
 445 487 445 487 445 674 c 0,52,53
 445 862 445 862 543.5 964 c 128,-1,54
 642 1066 642 1066 825 1066 c 0,30,31
EndSplineSet
EndChar

StartChar: ordfeminine
Encoding: 170 170 108
Width: 751
GlyphClass: 2
Flags: W
AnchorPoint: "Anchor-1" 0 0 basechar 0
AnchorPoint: "Anchor-0" 396 708 basechar 0
LayerCount: 2
Fore
SplineSet
390 1491 m 0,0,1
 508 1491 508 1491 572.5 1438.5 c 128,-1,2
 637 1386 637 1386 637 1289 c 0,3,4
 637 1265 637 1265 630.5 1118.5 c 128,-1,5
 624 972 624 972 624 954 c 0,6,7
 624 934 624 934 627 922.5 c 128,-1,8
 630 911 630 911 638 905 c 128,-1,9
 646 899 646 899 659 899 c 0,10,11
 681 899 681 899 698 911 c 1,12,-1
 711 899 l 1,13,-1
 692 792 l 1,14,15
 642 757 642 757 587 757 c 0,16,17
 534 757 534 757 506.5 781.5 c 128,-1,18
 479 806 479 806 466 867 c 1,19,-1
 459 867 l 1,20,21
 382 775 382 775 291 755 c 1,22,23
 240 756 240 756 198.5 770.5 c 128,-1,24
 157 785 157 785 128 812 c 128,-1,25
 99 839 99 839 83.5 878 c 128,-1,26
 68 917 68 917 68 965 c 0,27,28
 68 1115 68 1115 225 1142 c 1,29,-1
 455 1184 l 1,30,-1
 457 1252 l 1,31,32
 457 1353 457 1353 355 1353 c 0,33,34
 272 1353 272 1353 142 1271 c 1,35,-1
 129 1278 l 1,36,-1
 105 1406 l 1,37,38
 243 1491 243 1491 390 1491 c 0,0,1
455 1092 m 1,39,-1
 309 1060 l 1,40,41
 248 1049 248 1049 248 984 c 0,42,43
 248 956 248 956 257.5 935.5 c 128,-1,44
 267 915 267 915 286 904 c 128,-1,45
 305 893 305 893 333 893 c 0,46,47
 393 893 393 893 451 961 c 1,48,-1
 455 1092 l 1,39,-1
EndSplineSet
EndChar

StartChar: guillemetleft
Encoding: 171 171 109
Width: 941
GlyphClass: 2
Flags: W
LayerCount: 2
Fore
SplineSet
46 495 m 1,0,-1
 46 539 l 1,1,-1
 370 941 l 1,2,-1
 479 878 l 1,3,-1
 484 853 l 1,4,-1
 218 521 l 1,5,-1
 484 188 l 1,6,-1
 479 162 l 1,7,-1
 370 101 l 1,8,-1
 46 495 l 1,0,-1
445 495 m 1,9,-1
 445 539 l 1,10,-1
 768 941 l 1,11,-1
 878 878 l 1,12,-1
 883 853 l 1,13,-1
 617 521 l 1,14,-1
 883 188 l 1,15,-1
 878 162 l 1,16,-1
 768 101 l 1,17,-1
 445 495 l 1,9,-1
EndSplineSet
EndChar

StartChar: logicalnot
Encoding: 172 172 110
Width: 1100
GlyphClass: 2
Flags: W
LayerCount: 2
Fore
SplineSet
979 668 m 1,0,-1
 979 129 l 1,1,-1
 838 116 l 1,2,-1
 819 133 l 1,3,-1
 819 523 l 1,4,-1
 76 523 l 1,5,-1
 59 539 l 1,6,-1
 74 683 l 1,7,-1
 965 683 l 1,8,-1
 979 668 l 1,0,-1
EndSplineSet
EndChar

StartChar: softhyphen
Encoding: 173 173 111
Width: 701
GlyphClass: 2
Flags: W
LayerCount: 2
Fore
SplineSet
635 688 m 1,0,-1
 635 541 l 1,1,-1
 85 459 l 1,2,-1
 64 479 l 1,3,-1
 64 626 l 1,4,-1
 615 707 l 1,5,-1
 635 688 l 1,0,-1
EndSplineSet
EndChar

StartChar: registered
Encoding: 174 174 112
Width: 1013
GlyphClass: 2
Flags: W
LayerCount: 2
Fore
SplineSet
507 1611 m 0,0,1
 698 1611 698 1611 813 1495.5 c 128,-1,2
 928 1380 928 1380 928 1191 c 0,3,4
 928 1066 928 1066 876.5 970 c 128,-1,5
 825 874 825 874 729 821 c 128,-1,6
 633 768 633 768 507 768 c 0,7,8
 319 768 319 768 203 884.5 c 128,-1,9
 87 1001 87 1001 87 1191 c 0,10,11
 87 1380 87 1380 202.5 1495.5 c 128,-1,12
 318 1611 318 1611 507 1611 c 0,0,1
510 834 m 0,13,14
 668 834 668 834 765 932.5 c 128,-1,15
 862 1031 862 1031 862 1191 c 0,16,17
 862 1269 862 1269 836.5 1335 c 128,-1,18
 811 1401 811 1401 765 1447 c 128,-1,19
 719 1493 719 1493 653.5 1518 c 128,-1,20
 588 1543 588 1543 510 1543 c 0,21,22
 431 1543 431 1543 365 1518 c 128,-1,23
 299 1493 299 1493 253 1447 c 128,-1,24
 207 1401 207 1401 181.5 1335 c 128,-1,25
 156 1269 156 1269 156 1191 c 0,26,27
 156 1031 156 1031 253 932.5 c 128,-1,28
 350 834 350 834 510 834 c 0,13,14
681 1294 m 0,29,30
 681 1252 681 1252 658 1216.5 c 128,-1,31
 635 1181 635 1181 594 1158 c 1,32,33
 649 1074 649 1074 711 1002 c 1,34,-1
 709 993 l 1,35,36
 674 978 674 978 617 974 c 1,37,-1
 606 982 l 1,38,39
 561 1047 561 1047 514 1136 c 1,40,-1
 440 1136 l 1,41,-1
 440 1127 l 1,42,-1
 445 982 l 1,43,-1
 351 982 l 1,44,-1
 353 1114 l 1,45,-1
 351 1429 l 1,46,-1
 530 1429 l 2,47,48
 578 1429 578 1429 612 1413.5 c 128,-1,49
 646 1398 646 1398 663.5 1367.5 c 128,-1,50
 681 1337 681 1337 681 1294 c 0,29,30
442 1211 m 1,51,-1
 521 1206 l 1,52,53
 553 1219 553 1219 569 1237 c 128,-1,54
 585 1255 585 1255 585 1287 c 0,55,56
 585 1354 585 1354 497 1357 c 1,57,-1
 445 1355 l 1,58,-1
 442 1211 l 1,51,-1
EndSplineSet
EndChar

StartChar: macron
Encoding: 175 175 113
Width: 891
GlyphClass: 2
Flags: W
LayerCount: 2
Fore
SplineSet
784 1464 m 1,0,-1
 773 1328 l 1,1,-1
 127 1328 l 1,2,-1
 110 1346 l 1,3,-1
 122 1480 l 1,4,-1
 768 1480 l 1,5,-1
 784 1464 l 1,0,-1
EndSplineSet
EndChar

StartChar: degree
Encoding: 176 176 114
Width: 672
GlyphClass: 2
Flags: W
LayerCount: 2
Fore
SplineSet
337 1491 m 0,0,1
 397 1491 397 1491 451 1468 c 128,-1,2
 505 1445 505 1445 544 1406 c 128,-1,3
 583 1367 583 1367 605.5 1313 c 128,-1,4
 628 1259 628 1259 628 1200 c 0,5,6
 628 1078 628 1078 543.5 994.5 c 128,-1,7
 459 911 459 911 337 911 c 0,8,9
 256 911 256 911 188.5 949 c 128,-1,10
 121 987 121 987 82.5 1053.5 c 128,-1,11
 44 1120 44 1120 44 1200 c 0,12,13
 44 1321 44 1321 129 1406 c 128,-1,14
 214 1491 214 1491 337 1491 c 0,0,1
335 1383 m 0,15,16
 285 1383 285 1383 242.5 1358.5 c 128,-1,17
 200 1334 200 1334 174.5 1291.5 c 128,-1,18
 149 1249 149 1249 149 1200 c 0,19,20
 149 1124 149 1124 204 1070 c 128,-1,21
 259 1016 259 1016 335 1016 c 0,22,23
 412 1016 412 1016 466.5 1070 c 128,-1,24
 521 1124 521 1124 521 1199.5 c 128,-1,25
 521 1275 521 1275 466.5 1329 c 128,-1,26
 412 1383 412 1383 335 1383 c 0,15,16
EndSplineSet
EndChar

StartChar: plusminus
Encoding: 177 177 115
Width: 1100
GlyphClass: 2
Flags: W
LayerCount: 2
Fore
SplineSet
633 1073 m 1,0,-1
 633 683 l 1,1,-1
 1020 683 l 1,2,-1
 1039 668 l 1,3,-1
 1025 523 l 1,4,-1
 633 523 l 1,5,-1
 633 129 l 1,6,-1
 488 116 l 1,7,-1
 470 133 l 1,8,-1
 470 523 l 1,9,-1
 81 523 l 1,10,-1
 64 539 l 1,11,-1
 78 683 l 1,12,-1
 470 683 l 1,13,-1
 470 1079 l 1,14,-1
 615 1092 l 1,15,-1
 633 1073 l 1,0,-1
1037 -90 m 1,16,-1
 1025 -234 l 1,17,-1
 81 -234 l 1,18,-1
 64 -218 l 1,19,-1
 76 -74 l 1,20,-1
 1020 -74 l 1,21,-1
 1037 -90 l 1,16,-1
EndSplineSet
EndChar

StartChar: twosuperior
Encoding: 178 178 116
Width: 810
GlyphClass: 2
Flags: W
LayerCount: 2
Fore
SplineSet
413 1620 m 0,0,1
 525 1620 525 1620 597.5 1564.5 c 128,-1,2
 670 1509 670 1509 670 1413 c 0,3,4
 670 1368 670 1368 649 1316.5 c 128,-1,5
 628 1265 628 1265 588 1206.5 c 128,-1,6
 548 1148 548 1148 479 1064 c 1,7,-1
 344 893 l 1,8,-1
 348 888 l 1,9,-1
 596 888 l 1,10,-1
 748 895 l 1,11,-1
 755 880 l 1,12,-1
 734 727 l 1,13,-1
 536 734 l 1,14,-1
 156 734 l 1,15,-1
 94 731 l 1,16,-1
 85 738 l 1,17,-1
 85 856 l 1,18,-1
 305 1105 l 1,19,20
 394 1211 394 1211 432 1268 c 128,-1,21
 470 1325 470 1325 470 1370 c 0,22,23
 470 1409 470 1409 443 1434 c 128,-1,24
 416 1459 416 1459 365 1459 c 0,25,26
 312 1459 312 1459 252 1429 c 128,-1,27
 192 1399 192 1399 144 1346 c 1,28,-1
 122 1346 l 1,29,-1
 90 1495 l 1,30,31
 254 1620 254 1620 413 1620 c 0,0,1
EndSplineSet
EndChar

StartChar: threesuperior
Encoding: 179 179 117
Width: 717
GlyphClass: 2
Flags: W
LayerCount: 2
Fore
SplineSet
335 1622 m 0,0,1
 413 1622 413 1622 473 1597 c 128,-1,2
 533 1572 533 1572 566 1525 c 128,-1,3
 599 1478 599 1478 599 1416 c 0,4,5
 599 1356 599 1356 565 1298.5 c 128,-1,6
 531 1241 531 1241 459 1206 c 1,7,-1
 459 1197 l 1,8,9
 628 1152 628 1152 628 991 c 0,10,11
 628 871 628 871 523 796.5 c 128,-1,12
 418 722 418 722 248 722 c 0,13,14
 169 722 169 722 83 741 c 1,15,-1
 71 878 l 1,16,-1
 85 893 l 1,17,18
 174 869 174 869 250 869 c 0,19,20
 308 869 308 869 349.5 884 c 128,-1,21
 391 899 391 899 413.5 927.5 c 128,-1,22
 436 956 436 956 436 996 c 0,23,24
 436 1047 436 1047 400 1076.5 c 128,-1,25
 364 1106 364 1106 296 1108 c 1,26,-1
 188 1108 l 1,27,-1
 179 1119 l 1,28,-1
 181 1250 l 1,29,-1
 250 1250 l 1,30,31
 308 1252 308 1252 353.5 1288.5 c 128,-1,32
 399 1325 399 1325 399 1379 c 0,33,34
 399 1422 399 1422 370.5 1445 c 128,-1,35
 342 1468 342 1468 291 1468 c 0,36,37
 214 1468 214 1468 112 1401 c 1,38,-1
 92 1401 l 1,39,-1
 59 1532 l 1,40,41
 188 1622 188 1622 335 1622 c 0,0,1
EndSplineSet
EndChar

StartChar: acute
Encoding: 180 180 118
Width: 891
GlyphClass: 2
Flags: W
LayerCount: 2
Fore
SplineSet
613 1622 m 1,0,-1
 700 1497 l 1,1,-1
 696 1475 l 1,2,3
 514 1343 514 1343 280 1191 c 1,4,-1
 256 1193 l 1,5,-1
 197 1285 l 1,6,7
 433 1475 433 1475 589 1624 c 1,8,-1
 613 1622 l 1,0,-1
EndSplineSet
EndChar

StartChar: micro
Encoding: 181 181 119
Width: 1180
GlyphClass: 2
Flags: W
LayerCount: 2
Fore
SplineSet
1136 162 m 1,0,-1
 1110 35 l 1,1,2
 1040 -13 1040 -13 963 -13 c 0,3,4
 894 -13 894 -13 853.5 22.5 c 128,-1,5
 813 58 813 58 792 138 c 1,6,-1
 773 138 l 1,7,8
 643 18 643 18 497 -13 c 1,9,10
 427 -13 427 -13 372 7 c 1,11,-1
 372 -424 l 1,12,-1
 151 -424 l 1,13,-1
 160 442 l 1,14,-1
 151 1042 l 1,15,-1
 372 1062 l 1,16,-1
 372 348 l 1,17,18
 374 269 374 269 416.5 224 c 128,-1,19
 459 179 459 179 534 179 c 0,20,21
 653 179 653 179 780 296 c 1,22,-1
 780 1042 l 1,23,-1
 1002 1062 l 1,24,-1
 987 256 l 1,25,26
 983 156 983 156 1046 156 c 0,27,28
 1081 156 1081 156 1114 179 c 1,29,-1
 1136 162 l 1,0,-1
EndSplineSet
EndChar

StartChar: paragraph
Encoding: 182 182 120
Width: 1146
GlyphClass: 2
Flags: W
LayerCount: 2
Fore
SplineSet
1096 1452 m 1,0,-1
 1079 1291 l 1,1,-1
 915 1291 l 1,2,-1
 908 431 l 1,3,-1
 911 302 l 1,4,5
 911 194 911 194 872.5 109.5 c 128,-1,6
 834 25 834 25 746 -48 c 128,-1,7
 658 -121 658 -121 512 -186 c 1,8,-1
 447 -78 l 1,9,-1
 447 -53 l 1,10,11
 576 21 576 21 633 102 c 128,-1,12
 690 183 690 183 690 291 c 2,13,-1
 690 399 l 1,14,-1
 683 1294 l 1,15,-1
 562 1294 l 1,16,17
 447 1280 447 1280 384 1203.5 c 128,-1,18
 321 1127 321 1127 321 998 c 0,19,20
 321 870 321 870 391 776.5 c 128,-1,21
 461 683 461 683 591 637 c 1,22,-1
 512 510 l 1,23,24
 301 555 301 555 188.5 681 c 128,-1,25
 76 807 76 807 76 1005 c 0,26,27
 76 1229 76 1229 212.5 1351 c 128,-1,28
 349 1473 349 1473 601 1473 c 2,29,-1
 1079 1473 l 1,30,-1
 1096 1452 l 1,0,-1
EndSplineSet
EndChar

StartChar: periodcentered
Encoding: 183 183 121
Width: 524
GlyphClass: 2
Flags: W
LayerCount: 2
Fore
SplineSet
267 700 m 0,0,1
 305 700 305 700 332.5 685 c 128,-1,2
 360 670 360 670 374 642 c 128,-1,3
 388 614 388 614 388 576 c 0,4,5
 388 514 388 514 353 477 c 128,-1,6
 318 440 318 440 259 440 c 0,7,8
 198 440 198 440 165.5 473 c 128,-1,9
 133 506 133 506 133 567 c 256,10,11
 133 628 133 628 169 664 c 128,-1,12
 205 700 205 700 267 700 c 0,0,1
EndSplineSet
EndChar

StartChar: cedilla
Encoding: 184 184 122
Width: 891
GlyphClass: 2
Flags: W
LayerCount: 2
Fore
SplineSet
468 -114 m 1,0,-1
 545 -160 l 1,1,2
 595 -187 595 -187 616 -218.5 c 128,-1,3
 637 -250 637 -250 637 -291 c 0,4,5
 637 -362 637 -362 582 -406.5 c 128,-1,6
 527 -451 527 -451 438 -451 c 0,7,8
 338 -451 338 -451 261 -383 c 1,9,-1
 282 -276 l 1,10,-1
 293 -271 l 1,11,12
 360 -342 360 -342 424 -342 c 0,13,14
 455 -342 455 -342 473 -327 c 128,-1,15
 491 -312 491 -312 491 -284 c 0,16,17
 491 -253 491 -253 447 -234 c 1,18,-1
 335 -168 l 1,19,-1
 390 50 l 1,20,-1
 514 50 l 1,21,-1
 468 -114 l 1,0,-1
EndSplineSet
EndChar

StartChar: onesuperior
Encoding: 185 185 123
Width: 607
GlyphClass: 2
Flags: W
LayerCount: 2
Fore
SplineSet
418 1598 m 1,0,-1
 411 1046 l 1,1,-1
 418 734 l 1,2,-1
 218 734 l 1,3,-1
 223 1023 l 1,4,-1
 223 1403 l 1,5,-1
 44 1357 l 1,6,-1
 28 1368 l 1,7,-1
 28 1523 l 1,8,-1
 390 1622 l 1,9,-1
 418 1598 l 1,0,-1
EndSplineSet
EndChar

StartChar: ordmasculine
Encoding: 186 186 124
Width: 784
GlyphClass: 2
Flags: W
AnchorPoint: "Anchor-1" 0 0 basechar 0
AnchorPoint: "Anchor-0" 417 704 basechar 0
LayerCount: 2
Fore
SplineSet
403 1491 m 0,0,1
 507 1491 507 1491 578.5 1450 c 128,-1,2
 650 1409 650 1409 686 1329 c 128,-1,3
 722 1249 722 1249 722 1133 c 0,4,5
 722 949 722 949 635 851 c 128,-1,6
 548 753 548 753 383 753 c 0,7,8
 228 753 228 753 146 844.5 c 128,-1,9
 64 936 64 936 64 1110 c 0,10,11
 64 1202 64 1202 86 1273.5 c 128,-1,12
 108 1345 108 1345 151 1393 c 128,-1,13
 194 1441 194 1441 257.5 1466 c 128,-1,14
 321 1491 321 1491 403 1491 c 0,0,1
394 1353 m 256,15,16
 318 1353 318 1353 284 1301 c 128,-1,17
 250 1249 250 1249 250 1131 c 0,18,19
 250 1002 250 1002 284.5 944 c 128,-1,20
 319 886 319 886 394 886 c 0,21,22
 413 886 413 886 429 889 c 128,-1,23
 445 892 445 892 459 898.5 c 128,-1,24
 473 905 473 905 484 914.5 c 128,-1,25
 495 924 495 924 504.5 937.5 c 128,-1,26
 514 951 514 951 520.5 968.5 c 128,-1,27
 527 986 527 986 531.5 1007.5 c 128,-1,28
 536 1029 536 1029 538.5 1054.5 c 128,-1,29
 541 1080 541 1080 541 1110 c 0,30,31
 541 1239 541 1239 505.5 1296 c 128,-1,32
 470 1353 470 1353 394 1353 c 256,15,16
EndSplineSet
EndChar

StartChar: guillemetright
Encoding: 187 187 125
Width: 930
GlyphClass: 2
Flags: W
LayerCount: 2
Fore
SplineSet
486 548 m 1,0,-1
 486 505 l 1,1,-1
 162 103 l 1,2,-1
 53 165 l 1,3,-1
 48 190 l 1,4,-1
 315 523 l 1,5,-1
 48 856 l 1,6,-1
 53 880 l 1,7,-1
 162 943 l 1,8,-1
 486 548 l 1,0,-1
886 548 m 1,9,-1
 886 505 l 1,10,-1
 562 103 l 1,11,-1
 449 165 l 1,12,-1
 447 190 l 1,13,-1
 713 523 l 1,14,-1
 447 856 l 1,15,-1
 449 880 l 1,16,-1
 562 943 l 1,17,-1
 886 548 l 1,9,-1
EndSplineSet
EndChar

StartChar: onequarter
Encoding: 188 188 126
Width: 1653
GlyphClass: 2
Flags: W
LayerCount: 2
Fore
SplineSet
1317 1468 m 1,0,-1
 243 -208 l 1,1,-1
 140 -149 l 1,2,-1
 129 -119 l 1,3,-1
 1204 1562 l 1,4,-1
 1303 1502 l 1,5,-1
 1317 1468 l 1,0,-1
223 1271 m 1,6,-1
 44 1225 l 1,7,-1
 28 1234 l 1,8,-1
 28 1390 l 1,9,-1
 390 1488 l 1,10,-1
 418 1466 l 1,11,-1
 411 913 l 1,12,-1
 418 601 l 1,13,-1
 218 601 l 1,14,-1
 223 890 l 1,15,-1
 223 1271 l 1,6,-1
1571 211 m 1,16,-1
 1445 216 l 1,17,-1
 1454 13 l 1,18,-1
 1443 0 l 1,19,-1
 1287 -7 l 1,20,-1
 1276 2 l 1,21,-1
 1280 218 l 1,22,-1
 1033 218 l 1,23,-1
 902 211 l 1,24,-1
 888 230 l 1,25,-1
 888 351 l 1,26,-1
 1261 876 l 1,27,-1
 1445 876 l 1,28,-1
 1440 363 l 1,29,-1
 1569 363 l 1,30,-1
 1580 346 l 1,31,-1
 1571 211 l 1,16,-1
1060 363 m 1,32,-1
 1282 363 l 1,33,-1
 1282 661 l 1,34,-1
 1269 661 l 1,35,-1
 1060 363 l 1,32,-1
EndSplineSet
EndChar

StartChar: onehalf
Encoding: 189 189 127
Width: 1696
GlyphClass: 2
Flags: W
LayerCount: 2
Fore
SplineSet
1303 1502 m 1,0,-1
 1317 1468 l 1,1,-1
 243 -208 l 1,2,-1
 140 -149 l 1,3,-1
 129 -119 l 1,4,-1
 1204 1562 l 1,5,-1
 1303 1502 l 1,0,-1
418 1466 m 1,6,-1
 411 913 l 1,7,-1
 418 601 l 1,8,-1
 218 601 l 1,9,-1
 223 890 l 1,10,-1
 223 1271 l 1,11,-1
 44 1225 l 1,12,-1
 28 1234 l 1,13,-1
 28 1390 l 1,14,-1
 390 1488 l 1,15,-1
 418 1466 l 1,6,-1
1298 886 m 0,16,17
 1410 886 1410 886 1483 830 c 128,-1,18
 1556 774 1556 774 1556 679 c 0,19,20
 1556 612 1556 612 1512 534 c 128,-1,21
 1468 456 1468 456 1365 330 c 1,22,-1
 1230 158 l 1,23,-1
 1234 153 l 1,24,-1
 1482 153 l 1,25,-1
 1633 160 l 1,26,-1
 1640 147 l 1,27,-1
 1620 -7 l 1,28,-1
 1422 0 l 1,29,-1
 1042 0 l 1,30,-1
 979 -2 l 1,31,-1
 970 4 l 1,32,-1
 970 122 l 1,33,-1
 1191 372 l 1,34,35
 1236 425 1236 425 1260 455.5 c 128,-1,36
 1284 486 1284 486 1309.5 522 c 128,-1,37
 1335 558 1335 558 1345 584.5 c 128,-1,38
 1355 611 1355 611 1355 635 c 0,39,40
 1355 675 1355 675 1328 700 c 128,-1,41
 1301 725 1301 725 1250 725 c 0,42,43
 1196 725 1196 725 1137 695 c 128,-1,44
 1078 665 1078 665 1030 613 c 1,45,-1
 1007 613 l 1,46,-1
 974 762 l 1,47,48
 1139 886 1139 886 1298 886 c 0,16,17
EndSplineSet
EndChar

StartChar: threequarters
Encoding: 190 190 128
Width: 1740
GlyphClass: 2
Flags: W
LayerCount: 2
Fore
SplineSet
1403 1468 m 1,0,-1
 330 -208 l 1,1,-1
 227 -149 l 1,2,-1
 216 -119 l 1,3,-1
 1291 1562 l 1,4,-1
 1390 1502 l 1,5,-1
 1403 1468 l 1,0,-1
628 858 m 0,6,7
 628 738 628 738 523 663.5 c 128,-1,8
 418 589 418 589 248 589 c 0,9,10
 169 589 169 589 83 608 c 1,11,-1
 71 746 l 1,12,-1
 85 759 l 1,13,14
 174 736 174 736 250 736 c 0,15,16
 293 736 293 736 328 744.5 c 128,-1,17
 363 753 363 753 386.5 769 c 128,-1,18
 410 785 410 785 423 808.5 c 128,-1,19
 436 832 436 832 436 862 c 0,20,21
 436 914 436 914 400 943.5 c 128,-1,22
 364 973 364 973 296 974 c 1,23,-1
 188 974 l 1,24,-1
 179 987 l 1,25,-1
 181 1117 l 1,26,-1
 250 1117 l 2,27,28
 277 1117 277 1117 304 1127 c 128,-1,29
 331 1137 331 1137 352 1154 c 128,-1,30
 373 1171 373 1171 386 1195 c 128,-1,31
 399 1219 399 1219 399 1245 c 0,32,33
 399 1274 399 1274 386 1294 c 128,-1,34
 373 1314 373 1314 349 1324.5 c 128,-1,35
 325 1335 325 1335 291 1335 c 0,36,37
 212 1335 212 1335 112 1269 c 1,38,-1
 92 1269 l 1,39,-1
 59 1399 l 1,40,41
 188 1488 188 1488 335 1488 c 0,42,43
 454 1488 454 1488 526.5 1432.5 c 128,-1,44
 599 1377 599 1377 599 1282 c 0,45,46
 599 1223 599 1223 565 1165.5 c 128,-1,47
 531 1108 531 1108 459 1073 c 1,48,-1
 459 1064 l 1,49,50
 628 1018 628 1018 628 858 c 0,6,7
1659 211 m 1,51,-1
 1532 216 l 1,52,-1
 1541 13 l 1,53,-1
 1530 0 l 1,54,-1
 1374 -7 l 1,55,-1
 1363 2 l 1,56,-1
 1368 218 l 1,57,-1
 1119 218 l 1,58,-1
 989 211 l 1,59,-1
 974 230 l 1,60,-1
 974 351 l 1,61,-1
 1348 876 l 1,62,-1
 1532 876 l 1,63,-1
 1528 363 l 1,64,-1
 1656 363 l 1,65,-1
 1668 346 l 1,66,-1
 1659 211 l 1,51,-1
1147 363 m 1,67,-1
 1370 363 l 1,68,-1
 1370 661 l 1,69,-1
 1355 661 l 1,70,-1
 1147 363 l 1,67,-1
EndSplineSet
EndChar

StartChar: questiondown
Encoding: 191 191 129
Width: 768
GlyphClass: 2
Flags: W
LayerCount: 2
Fore
SplineSet
431 821 m 0,0,1
 392 821 392 821 364 836 c 128,-1,2
 336 851 336 851 321.5 879.5 c 128,-1,3
 307 908 307 908 307 948 c 0,4,5
 307 1010 307 1010 342.5 1046.5 c 128,-1,6
 378 1083 378 1083 438 1083 c 256,7,8
 498 1083 498 1083 530 1049 c 128,-1,9
 562 1015 562 1015 562 954 c 0,10,11
 562 894 562 894 526.5 857.5 c 128,-1,12
 491 821 491 821 431 821 c 0,0,1
608 -442 m 1,13,-1
 582 -455 l 1,14,15
 297 -440 297 -440 142 -344.5 c 128,-1,16
 -13 -249 -13 -249 -13 -90 c 0,17,18
 -13 2 -13 2 38 82 c 128,-1,19
 89 162 89 162 186 221 c 1,20,-1
 365 335 l 1,21,-1
 370 344 l 1,22,-1
 355 556 l 1,23,-1
 521 576 l 1,24,-1
 539 558 l 1,25,-1
 558 289 l 1,26,-1
 545 267 l 1,27,-1
 333 147 l 2,28,29
 197 69 197 69 197 -53 c 0,30,31
 197 -158 197 -158 303.5 -217 c 128,-1,32
 410 -276 410 -276 635 -289 c 1,33,-1
 652 -312 l 1,34,-1
 608 -442 l 1,13,-1
EndSplineSet
EndChar

StartChar: Agrave
Encoding: 192 192 130
Width: 1346
GlyphClass: 2
Flags: W
AnchorPoint: "Anchor-1" 0 0 basechar 0
AnchorPoint: "Anchor-0" 676 1472 basechar 0
LayerCount: 2
Fore
SplineSet
908 1661 m 1,0,-1
 883 1652 l 1,1,2
 570 1773 570 1773 418 1839 c 1,3,-1
 409 1863 l 1,4,-1
 470 2003 l 1,5,-1
 493 2007 l 1,6,7
 626 1929 626 1929 948 1762 c 1,8,-1
 908 1661 l 1,0,-1
1300 0 m 1,9,-1
 1060 0 l 1,10,-1
 1025 165 l 1,11,-1
 961 370 l 1,12,-1
 650 376 l 1,13,-1
 365 370 l 1,14,-1
 298 177 l 1,15,-1
 261 0 l 1,16,-1
 26 0 l 1,17,-1
 548 1473 l 1,18,-1
 828 1473 l 1,19,-1
 1300 0 l 1,9,-1
902 562 m 1,20,-1
 690 1241 l 1,21,-1
 672 1241 l 1,22,-1
 433 562 l 1,23,-1
 668 558 l 1,24,-1
 902 562 l 1,20,-1
EndSplineSet
Position2: "'cpsp' Capital Spacing lookup 0 subtable" dx=16 dy=0 dh=33 dv=0
EndChar

StartChar: Aacute
Encoding: 193 193 131
Width: 1346
GlyphClass: 2
Flags: W
AnchorPoint: "Anchor-1" 0 0 basechar 0
AnchorPoint: "Anchor-0" 676 1472 basechar 0
LayerCount: 2
Fore
SplineSet
505 1659 m 1,0,-1
 466 1760 l 1,1,2
 778 1922 778 1922 920 2005 c 1,3,-1
 943 2000 l 1,4,-1
 1005 1860 l 1,5,-1
 996 1837 l 1,6,7
 853 1775 853 1775 530 1650 c 1,8,-1
 505 1659 l 1,0,-1
1300 0 m 1,9,-1
 1060 0 l 1,10,-1
 1025 165 l 1,11,-1
 961 370 l 1,12,-1
 650 376 l 1,13,-1
 365 370 l 1,14,-1
 298 177 l 1,15,-1
 261 0 l 1,16,-1
 26 0 l 1,17,-1
 548 1473 l 1,18,-1
 828 1473 l 1,19,-1
 1300 0 l 1,9,-1
902 562 m 1,20,-1
 690 1241 l 1,21,-1
 672 1241 l 1,22,-1
 433 562 l 1,23,-1
 668 558 l 1,24,-1
 902 562 l 1,20,-1
EndSplineSet
Position2: "'cpsp' Capital Spacing lookup 0 subtable" dx=16 dy=0 dh=33 dv=0
EndChar

StartChar: Acircumflex
Encoding: 194 194 132
Width: 1346
GlyphClass: 2
Flags: W
AnchorPoint: "Anchor-1" 0 0 basechar 0
AnchorPoint: "Anchor-0" 676 1472 basechar 0
LayerCount: 2
Fore
SplineSet
411 1677 m 1,0,-1
 365 1775 l 1,1,2
 513 1873 513 1873 650 1996 c 1,3,-1
 704 1996 l 1,4,5
 831 1882 831 1882 989 1775 c 1,6,-1
 945 1677 l 1,7,-1
 920 1677 l 1,8,9
 753 1778 753 1778 676 1828 c 1,10,11
 601 1777 601 1777 436 1677 c 1,12,-1
 411 1677 l 1,0,-1
1300 0 m 1,13,-1
 1060 0 l 1,14,-1
 1025 165 l 1,15,-1
 961 370 l 1,16,-1
 650 376 l 1,17,-1
 365 370 l 1,18,-1
 298 177 l 1,19,-1
 261 0 l 1,20,-1
 26 0 l 1,21,-1
 548 1473 l 1,22,-1
 828 1473 l 1,23,-1
 1300 0 l 1,13,-1
902 562 m 1,24,-1
 690 1241 l 1,25,-1
 672 1241 l 1,26,-1
 433 562 l 1,27,-1
 668 558 l 1,28,-1
 902 562 l 1,24,-1
EndSplineSet
Position2: "'cpsp' Capital Spacing lookup 0 subtable" dx=16 dy=0 dh=33 dv=0
EndChar

StartChar: Atilde
Encoding: 195 195 133
Width: 1346
GlyphClass: 2
Flags: W
AnchorPoint: "Anchor-1" 0 0 basechar 0
AnchorPoint: "Anchor-0" 676 1472 basechar 0
LayerCount: 2
Fore
SplineSet
367 1670 m 1,0,-1
 296 1743 l 1,1,-1
 296 1764 l 1,2,-1
 445 1941 l 1,3,-1
 470 1950 l 1,4,5
 504 1945 504 1945 560 1931 c 128,-1,6
 616 1917 616 1917 664.5 1903 c 128,-1,7
 713 1889 713 1889 759.5 1878 c 128,-1,8
 806 1867 806 1867 825 1867 c 0,9,10
 833 1867 833 1867 840.5 1869.5 c 128,-1,11
 848 1872 848 1872 855 1875.5 c 128,-1,12
 862 1879 862 1879 871 1886.5 c 128,-1,13
 880 1894 880 1894 886.5 1900 c 128,-1,14
 893 1906 893 1906 903.5 1917 c 128,-1,15
 914 1928 914 1928 921 1935.5 c 128,-1,16
 928 1943 928 1943 940.5 1956.5 c 128,-1,17
 953 1970 953 1970 961 1979 c 1,18,-1
 984 1979 l 1,19,-1
 1053 1906 l 1,20,-1
 1053 1885 l 1,21,-1
 904 1709 l 1,22,-1
 880 1698 l 1,23,24
 831 1704 831 1704 693.5 1743 c 128,-1,25
 556 1782 556 1782 525 1782 c 0,26,27
 513 1782 513 1782 501.5 1776.5 c 128,-1,28
 490 1771 490 1771 475.5 1758.5 c 128,-1,29
 461 1746 461 1746 450.5 1735.5 c 128,-1,30
 440 1725 440 1725 421 1703.5 c 128,-1,31
 402 1682 402 1682 390 1670 c 1,32,-1
 367 1670 l 1,0,-1
1300 0 m 1,33,-1
 1060 0 l 1,34,-1
 1025 165 l 1,35,-1
 961 370 l 1,36,-1
 650 376 l 1,37,-1
 365 370 l 1,38,-1
 298 177 l 1,39,-1
 261 0 l 1,40,-1
 26 0 l 1,41,-1
 548 1473 l 1,42,-1
 828 1473 l 1,43,-1
 1300 0 l 1,33,-1
902 562 m 1,44,-1
 690 1241 l 1,45,-1
 672 1241 l 1,46,-1
 433 562 l 1,47,-1
 668 558 l 1,48,-1
 902 562 l 1,44,-1
EndSplineSet
Position2: "'cpsp' Capital Spacing lookup 0 subtable" dx=16 dy=0 dh=33 dv=0
EndChar

StartChar: Adieresis
Encoding: 196 196 134
Width: 1346
GlyphClass: 2
Flags: W
AnchorPoint: "Anchor-1" 0 0 basechar 0
AnchorPoint: "Anchor-0" 676 1472 basechar 0
LayerCount: 2
Fore
SplineSet
486 1698 m 0,0,1
 429 1698 429 1698 399.5 1728.5 c 128,-1,2
 370 1759 370 1759 370 1816.5 c 128,-1,3
 370 1874 370 1874 403 1907.5 c 128,-1,4
 436 1941 436 1941 493 1941 c 0,5,6
 548 1941 548 1941 578 1910 c 128,-1,7
 608 1879 608 1879 608 1823 c 0,8,9
 608 1784 608 1784 593.5 1756 c 128,-1,10
 579 1728 579 1728 551.5 1713 c 128,-1,11
 524 1698 524 1698 486 1698 c 0,0,1
862 1698 m 0,12,13
 806 1698 806 1698 776 1728.5 c 128,-1,14
 746 1759 746 1759 746 1816.5 c 128,-1,15
 746 1874 746 1874 779 1907.5 c 128,-1,16
 812 1941 812 1941 869 1941 c 0,17,18
 924 1941 924 1941 954 1910 c 128,-1,19
 984 1879 984 1879 984 1823 c 0,20,21
 984 1765 984 1765 952 1731.5 c 128,-1,22
 920 1698 920 1698 862 1698 c 0,12,13
1300 0 m 1,23,-1
 1060 0 l 1,24,-1
 1025 165 l 1,25,-1
 961 370 l 1,26,-1
 650 376 l 1,27,-1
 365 370 l 1,28,-1
 298 177 l 1,29,-1
 261 0 l 1,30,-1
 26 0 l 1,31,-1
 548 1473 l 1,32,-1
 828 1473 l 1,33,-1
 1300 0 l 1,23,-1
902 562 m 1,34,-1
 690 1241 l 1,35,-1
 672 1241 l 1,36,-1
 433 562 l 1,37,-1
 668 558 l 1,38,-1
 902 562 l 1,34,-1
EndSplineSet
Position2: "'cpsp' Capital Spacing lookup 0 subtable" dx=16 dy=0 dh=33 dv=0
EndChar

StartChar: Aring
Encoding: 197 197 135
Width: 1346
GlyphClass: 2
Flags: W
AnchorPoint: "Anchor-1" 0 0 basechar 0
AnchorPoint: "Anchor-0" 676 1472 basechar 0
LayerCount: 2
Fore
SplineSet
670 1637 m 0,0,1
 579 1637 579 1637 524.5 1689.5 c 128,-1,2
 470 1742 470 1742 470 1837 c 0,3,4
 470 1900 470 1900 494.5 1945.5 c 128,-1,5
 519 1991 519 1991 565.5 2015.5 c 128,-1,6
 612 2040 612 2040 676 2040 c 0,7,8
 774 2040 774 2040 826 1986.5 c 128,-1,9
 878 1933 878 1933 878 1845 c 0,10,11
 878 1747 878 1747 821 1692 c 128,-1,12
 764 1637 764 1637 670 1637 c 0,0,1
672 1933 m 0,13,14
 625 1933 625 1933 600.5 1909.5 c 128,-1,15
 576 1886 576 1886 576 1842 c 0,16,17
 576 1809 576 1809 587.5 1786 c 128,-1,18
 599 1763 599 1763 621 1751.5 c 128,-1,19
 643 1740 643 1740 674 1740 c 0,20,21
 720 1740 720 1740 746.5 1764.5 c 128,-1,22
 773 1789 773 1789 773 1837 c 0,23,24
 773 1881 773 1881 747.5 1907 c 128,-1,25
 722 1933 722 1933 672 1933 c 0,13,14
1300 0 m 1,26,-1
 1060 0 l 1,27,-1
 1025 165 l 1,28,-1
 961 370 l 1,29,-1
 650 376 l 1,30,-1
 365 370 l 1,31,-1
 298 177 l 1,32,-1
 261 0 l 1,33,-1
 26 0 l 1,34,-1
 548 1473 l 1,35,-1
 828 1473 l 1,36,-1
 1300 0 l 1,26,-1
902 562 m 1,37,-1
 690 1241 l 1,38,-1
 672 1241 l 1,39,-1
 433 562 l 1,40,-1
 668 558 l 1,41,-1
 902 562 l 1,37,-1
EndSplineSet
Position2: "'cpsp' Capital Spacing lookup 0 subtable" dx=16 dy=0 dh=33 dv=0
EndChar

StartChar: AE
Encoding: 198 198 136
Width: 1867
GlyphClass: 2
Flags: W
AnchorPoint: "Anchor-1" 0 0 basechar 0
AnchorPoint: "Anchor-0" 1144 1472 basechar 0
LayerCount: 2
Fore
SplineSet
1837 181 m 1,0,-1
 1819 0 l 1,1,-1
 982 0 l 1,2,-1
 970 165 l 1,3,-1
 915 560 l 1,4,-1
 394 431 l 1,5,-1
 264 177 l 1,6,-1
 202 0 l 1,7,-1
 -39 0 l 1,8,-1
 709 1473 l 1,9,-1
 1631 1473 l 1,10,-1
 1644 1452 l 1,11,-1
 1626 1271 l 1,12,-1
 1259 1282 l 1,13,-1
 1048 1282 l 1,14,-1
 1114 794 l 1,15,-1
 1587 902 l 1,16,-1
 1606 886 l 1,17,-1
 1622 718 l 1,18,-1
 1138 613 l 1,19,-1
 1195 188 l 1,20,-1
 1445 188 l 1,21,-1
 1821 202 l 1,22,-1
 1837 181 l 1,0,-1
890 741 m 1,23,-1
 821 1241 l 1,24,-1
 805 1241 l 1,25,-1
 505 650 l 1,26,-1
 890 741 l 1,23,-1
EndSplineSet
Position2: "'cpsp' Capital Spacing lookup 0 subtable" dx=16 dy=0 dh=33 dv=0
EndChar

StartChar: Ccedilla
Encoding: 199 199 137
Width: 1189
GlyphClass: 2
Flags: W
AnchorPoint: "Anchor-1" 711 0 basechar 0
AnchorPoint: "Anchor-0" 720 1472 basechar 0
LayerCount: 2
Fore
SplineSet
741 181 m 0,0,1
 806 181 806 181 870 195.5 c 128,-1,2
 934 210 934 210 994.5 238.5 c 128,-1,3
 1055 267 1055 267 1108 307 c 1,4,-1
 1131 293 l 1,5,-1
 1112 78 l 1,6,7
 939 -6 939 -6 771 -16 c 1,8,-1
 744 -114 l 1,9,-1
 821 -160 l 1,10,11
 871 -187 871 -187 892 -218.5 c 128,-1,12
 913 -250 913 -250 913 -291 c 0,13,14
 913 -362 913 -362 857.5 -406.5 c 128,-1,15
 802 -451 802 -451 713 -451 c 0,16,17
 613 -451 613 -451 536 -383 c 1,18,-1
 558 -276 l 1,19,-1
 569 -271 l 1,20,21
 636 -342 636 -342 700 -342 c 0,22,23
 720 -342 720 -342 734.5 -335.5 c 128,-1,24
 749 -329 749 -329 757.5 -316 c 128,-1,25
 766 -303 766 -303 766 -284 c 0,26,27
 766 -253 766 -253 722 -234 c 1,28,-1
 610 -168 l 1,29,-1
 650 -16 l 1,30,31
 374 9 374 9 226 199 c 128,-1,32
 78 389 78 389 78 722 c 0,33,34
 78 1090 78 1090 254 1289 c 128,-1,35
 430 1488 430 1488 750 1488 c 0,36,37
 974 1488 974 1488 1147 1388 c 1,38,-1
 1103 1179 l 1,39,-1
 1081 1173 l 1,40,41
 930 1291 930 1291 741 1291 c 0,42,43
 538 1291 538 1291 432 1154.5 c 128,-1,44
 326 1018 326 1018 326 748 c 0,45,46
 326 470 326 470 433.5 325.5 c 128,-1,47
 541 181 541 181 741 181 c 0,0,1
EndSplineSet
Position2: "'cpsp' Capital Spacing lookup 0 subtable" dx=16 dy=0 dh=33 dv=0
EndChar

StartChar: Egrave
Encoding: 200 200 138
Width: 1130
GlyphClass: 2
Flags: W
AnchorPoint: "Anchor-1" 656 0 basechar 0
AnchorPoint: "Anchor-0" 637 1472 basechar 0
LayerCount: 2
Fore
SplineSet
869 1661 m 1,0,-1
 844 1652 l 1,1,2
 521 1777 521 1777 379 1839 c 1,3,-1
 370 1863 l 1,4,-1
 431 2003 l 1,5,-1
 455 2007 l 1,6,7
 596 1924 596 1924 908 1762 c 1,8,-1
 869 1661 l 1,0,-1
1068 202 m 1,9,-1
 1083 181 l 1,10,-1
 1066 0 l 1,11,-1
 197 0 l 1,12,-1
 213 442 l 1,13,-1
 197 1473 l 1,14,-1
 1071 1473 l 1,15,-1
 1085 1452 l 1,16,-1
 1066 1271 l 1,17,-1
 718 1280 l 1,18,-1
 438 1278 l 1,19,-1
 431 849 l 1,20,-1
 698 844 l 1,21,-1
 941 851 l 1,22,-1
 956 832 l 1,23,-1
 939 652 l 1,24,-1
 679 659 l 1,25,-1
 429 654 l 1,26,-1
 427 464 l 1,27,-1
 431 193 l 1,28,-1
 713 190 l 1,29,-1
 1068 202 l 1,9,-1
EndSplineSet
Position2: "'cpsp' Capital Spacing lookup 0 subtable" dx=16 dy=0 dh=33 dv=0
EndChar

StartChar: Eacute
Encoding: 201 201 139
Width: 1130
GlyphClass: 2
Flags: W
AnchorPoint: "Anchor-1" 656 0 basechar 0
AnchorPoint: "Anchor-0" 637 1472 basechar 0
LayerCount: 2
Fore
SplineSet
466 1659 m 1,0,-1
 427 1760 l 1,1,2
 739 1922 739 1922 880 2005 c 1,3,-1
 904 2000 l 1,4,-1
 965 1860 l 1,5,-1
 956 1837 l 1,6,7
 814 1775 814 1775 491 1650 c 1,8,-1
 466 1659 l 1,0,-1
1068 202 m 1,9,-1
 1083 181 l 1,10,-1
 1066 0 l 1,11,-1
 197 0 l 1,12,-1
 213 442 l 1,13,-1
 197 1473 l 1,14,-1
 1071 1473 l 1,15,-1
 1085 1452 l 1,16,-1
 1066 1271 l 1,17,-1
 718 1280 l 1,18,-1
 438 1278 l 1,19,-1
 431 849 l 1,20,-1
 698 844 l 1,21,-1
 941 851 l 1,22,-1
 956 832 l 1,23,-1
 939 652 l 1,24,-1
 679 659 l 1,25,-1
 429 654 l 1,26,-1
 427 464 l 1,27,-1
 431 193 l 1,28,-1
 713 190 l 1,29,-1
 1068 202 l 1,9,-1
EndSplineSet
Position2: "'cpsp' Capital Spacing lookup 0 subtable" dx=16 dy=0 dh=33 dv=0
EndChar

StartChar: Ecircumflex
Encoding: 202 202 140
Width: 1130
GlyphClass: 2
Flags: W
AnchorPoint: "Anchor-1" 656 0 basechar 0
AnchorPoint: "Anchor-0" 637 1472 basechar 0
LayerCount: 2
Fore
SplineSet
372 1677 m 1,0,-1
 326 1775 l 1,1,2
 474 1873 474 1873 610 1996 c 1,3,-1
 665 1996 l 1,4,5
 792 1882 792 1882 950 1775 c 1,6,-1
 906 1677 l 1,7,-1
 880 1677 l 1,8,9
 714 1778 714 1778 637 1828 c 1,10,11
 562 1777 562 1777 396 1677 c 1,12,-1
 372 1677 l 1,0,-1
1068 202 m 1,13,-1
 1083 181 l 1,14,-1
 1066 0 l 1,15,-1
 197 0 l 1,16,-1
 213 442 l 1,17,-1
 197 1473 l 1,18,-1
 1071 1473 l 1,19,-1
 1085 1452 l 1,20,-1
 1066 1271 l 1,21,-1
 718 1280 l 1,22,-1
 438 1278 l 1,23,-1
 431 849 l 1,24,-1
 698 844 l 1,25,-1
 941 851 l 1,26,-1
 956 832 l 1,27,-1
 939 652 l 1,28,-1
 679 659 l 1,29,-1
 429 654 l 1,30,-1
 427 464 l 1,31,-1
 431 193 l 1,32,-1
 713 190 l 1,33,-1
 1068 202 l 1,13,-1
EndSplineSet
Position2: "'cpsp' Capital Spacing lookup 0 subtable" dx=16 dy=0 dh=33 dv=0
EndChar

StartChar: Edieresis
Encoding: 203 203 141
Width: 1130
GlyphClass: 2
Flags: W
AnchorPoint: "Anchor-1" 656 0 basechar 0
AnchorPoint: "Anchor-0" 637 1472 basechar 0
LayerCount: 2
Fore
SplineSet
447 1698 m 256,0,1
 390 1698 390 1698 360 1728.5 c 128,-1,2
 330 1759 330 1759 330 1817 c 0,3,4
 330 1874 330 1874 364 1907.5 c 128,-1,5
 398 1941 398 1941 455 1941 c 0,6,7
 510 1941 510 1941 539.5 1910 c 128,-1,8
 569 1879 569 1879 569 1823 c 0,9,10
 569 1765 569 1765 536.5 1731.5 c 128,-1,11
 504 1698 504 1698 447 1698 c 256,0,1
823 1698 m 256,12,13
 766 1698 766 1698 736.5 1728.5 c 128,-1,14
 707 1759 707 1759 707 1816.5 c 128,-1,15
 707 1874 707 1874 740 1907.5 c 128,-1,16
 773 1941 773 1941 830 1941 c 0,17,18
 885 1941 885 1941 915 1910 c 128,-1,19
 945 1879 945 1879 945 1823 c 0,20,21
 945 1765 945 1765 912.5 1731.5 c 128,-1,22
 880 1698 880 1698 823 1698 c 256,12,13
1068 202 m 1,23,-1
 1083 181 l 1,24,-1
 1066 0 l 1,25,-1
 197 0 l 1,26,-1
 213 442 l 1,27,-1
 197 1473 l 1,28,-1
 1071 1473 l 1,29,-1
 1085 1452 l 1,30,-1
 1066 1271 l 1,31,-1
 718 1280 l 1,32,-1
 438 1278 l 1,33,-1
 431 849 l 1,34,-1
 698 844 l 1,35,-1
 941 851 l 1,36,-1
 956 832 l 1,37,-1
 939 652 l 1,38,-1
 679 659 l 1,39,-1
 429 654 l 1,40,-1
 427 464 l 1,41,-1
 431 193 l 1,42,-1
 713 190 l 1,43,-1
 1068 202 l 1,23,-1
EndSplineSet
Position2: "'cpsp' Capital Spacing lookup 0 subtable" dx=16 dy=0 dh=33 dv=0
EndChar

StartChar: Igrave
Encoding: 204 204 142
Width: 639
GlyphClass: 2
Flags: W
AnchorPoint: "Anchor-1" 0 0 basechar 0
AnchorPoint: "Anchor-0" 319 1472 basechar 0
LayerCount: 2
Fore
SplineSet
112 2003 m 1,0,-1
 136 2007 l 1,1,2
 277 1924 277 1924 589 1762 c 1,3,-1
 551 1661 l 1,4,-1
 525 1652 l 1,5,6
 202 1777 202 1777 59 1839 c 1,7,-1
 50 1863 l 1,8,-1
 112 2003 l 1,0,-1
427 464 m 1,9,-1
 436 0 l 1,10,-1
 197 0 l 1,11,-1
 213 442 l 1,12,-1
 197 1473 l 1,13,-1
 440 1473 l 1,14,-1
 427 464 l 1,9,-1
EndSplineSet
Position2: "'cpsp' Capital Spacing lookup 0 subtable" dx=16 dy=0 dh=33 dv=0
EndChar

StartChar: Iacute
Encoding: 205 205 143
Width: 639
GlyphClass: 2
Flags: W
AnchorPoint: "Anchor-1" 0 0 basechar 0
AnchorPoint: "Anchor-0" 319 1472 basechar 0
LayerCount: 2
Fore
SplineSet
585 2000 m 1,0,-1
 647 1860 l 1,1,-1
 637 1837 l 1,2,3
 486 1771 486 1771 172 1650 c 1,4,-1
 147 1659 l 1,5,-1
 108 1760 l 1,6,7
 429 1926 429 1926 562 2005 c 1,8,-1
 585 2000 l 1,0,-1
427 464 m 1,9,-1
 436 0 l 1,10,-1
 197 0 l 1,11,-1
 213 442 l 1,12,-1
 197 1473 l 1,13,-1
 440 1473 l 1,14,-1
 427 464 l 1,9,-1
EndSplineSet
Position2: "'cpsp' Capital Spacing lookup 0 subtable" dx=16 dy=0 dh=33 dv=0
EndChar

StartChar: Icircumflex
Encoding: 206 206 144
Width: 639
GlyphClass: 2
Flags: W
AnchorPoint: "Anchor-1" 0 0 basechar 0
AnchorPoint: "Anchor-0" 319 1472 basechar 0
LayerCount: 2
Fore
SplineSet
53 1677 m 1,0,-1
 7 1775 l 1,1,2
 155 1873 155 1873 291 1996 c 1,3,-1
 346 1996 l 1,4,5
 473 1882 473 1882 631 1775 c 1,6,-1
 587 1677 l 1,7,-1
 562 1677 l 1,8,9
 395 1778 395 1778 319 1828 c 1,10,11
 244 1777 244 1777 78 1677 c 1,12,-1
 53 1677 l 1,0,-1
427 464 m 1,13,-1
 436 0 l 1,14,-1
 197 0 l 1,15,-1
 213 442 l 1,16,-1
 197 1473 l 1,17,-1
 440 1473 l 1,18,-1
 427 464 l 1,13,-1
EndSplineSet
Position2: "'cpsp' Capital Spacing lookup 0 subtable" dx=16 dy=0 dh=33 dv=0
EndChar

StartChar: Idieresis
Encoding: 207 207 145
Width: 639
GlyphClass: 2
Flags: W
AnchorPoint: "Anchor-1" 0 0 basechar 0
AnchorPoint: "Anchor-0" 319 1472 basechar 0
LayerCount: 2
Fore
SplineSet
165 1941 m 0,0,1
 201 1941 201 1941 227 1927 c 128,-1,2
 253 1913 253 1913 266.5 1886.5 c 128,-1,3
 280 1860 280 1860 280 1823 c 0,4,5
 280 1765 280 1765 247.5 1731.5 c 128,-1,6
 215 1698 215 1698 158 1698 c 256,7,8
 101 1698 101 1698 71 1728.5 c 128,-1,9
 41 1759 41 1759 41 1816.5 c 128,-1,10
 41 1874 41 1874 74.5 1907.5 c 128,-1,11
 108 1941 108 1941 165 1941 c 0,0,1
482 1941 m 0,12,13
 537 1941 537 1941 566.5 1910 c 128,-1,14
 596 1879 596 1879 596 1823 c 0,15,16
 596 1764 596 1764 564 1731 c 128,-1,17
 532 1698 532 1698 475 1698 c 0,18,19
 437 1698 437 1698 410.5 1712 c 128,-1,20
 384 1726 384 1726 370.5 1752.5 c 128,-1,21
 357 1779 357 1779 357 1817 c 0,22,23
 357 1845 357 1845 366 1868 c 128,-1,24
 375 1891 375 1891 391 1907 c 128,-1,25
 407 1923 407 1923 430 1932 c 128,-1,26
 453 1941 453 1941 482 1941 c 0,12,13
427 464 m 1,27,-1
 436 0 l 1,28,-1
 197 0 l 1,29,-1
 213 442 l 1,30,-1
 197 1473 l 1,31,-1
 440 1473 l 1,32,-1
 427 464 l 1,27,-1
EndSplineSet
Ligature2: "'liga' Standard Ligatures lookup 30 subtable" dieresis I
Position2: "'cpsp' Capital Spacing lookup 0 subtable" dx=16 dy=0 dh=33 dv=0
EndChar

StartChar: Eth
Encoding: 208 208 146
Width: 1543
GlyphClass: 2
Flags: W
AnchorPoint: "Anchor-1" 0 0 basechar 0
AnchorPoint: "Anchor-0" 779 1472 basechar 0
LayerCount: 2
Fore
SplineSet
252 1473 m 1,0,-1
 810 1482 l 1,1,2
 1127 1482 1127 1482 1296.5 1303 c 128,-1,3
 1466 1124 1466 1124 1466 790 c 0,4,5
 1466 401 1466 401 1280.5 194 c 128,-1,6
 1095 -13 1095 -13 748 -13 c 0,7,8
 528 -13 528 -13 252 0 c 1,9,-1
 267 442 l 1,10,-1
 264 659 l 1,11,-1
 41 659 l 1,12,-1
 30 676 l 1,13,-1
 39 821 l 1,14,-1
 261 821 l 1,15,-1
 252 1473 l 1,0,-1
786 175 m 0,16,17
 997 175 997 175 1109 314.5 c 128,-1,18
 1221 454 1221 454 1221 736 c 0,19,20
 1221 1019 1221 1019 1115 1154 c 128,-1,21
 1009 1289 1009 1289 792 1289 c 0,22,23
 665 1289 665 1289 491 1280 c 1,24,-1
 484 821 l 1,25,-1
 792 821 l 1,26,-1
 803 803 l 1,27,-1
 794 659 l 1,28,-1
 482 659 l 1,29,-1
 479 464 l 1,30,-1
 486 190 l 1,31,32
 666 175 666 175 786 175 c 0,16,17
EndSplineSet
Position2: "'cpsp' Capital Spacing lookup 0 subtable" dx=16 dy=0 dh=33 dv=0
EndChar

StartChar: Ntilde
Encoding: 209 209 147
Width: 1578
GlyphClass: 2
Flags: W
AnchorPoint: "Anchor-1" 781 0 basechar 0
AnchorPoint: "Anchor-0" 784 1472 basechar 0
LayerCount: 2
Fore
SplineSet
1160 1906 m 1,0,-1
 1160 1885 l 1,1,-1
 1011 1709 l 1,2,-1
 989 1698 l 1,3,4
 940 1704 940 1704 801.5 1743 c 128,-1,5
 663 1782 663 1782 633 1782 c 0,6,7
 621 1782 621 1782 609 1776.5 c 128,-1,8
 597 1771 597 1771 583 1758.5 c 128,-1,9
 569 1746 569 1746 558.5 1735.5 c 128,-1,10
 548 1725 548 1725 528.5 1703.5 c 128,-1,11
 509 1682 509 1682 497 1670 c 1,12,-1
 475 1670 l 1,13,-1
 403 1743 l 1,14,-1
 403 1764 l 1,15,-1
 553 1941 l 1,16,-1
 578 1950 l 1,17,18
 627 1943 627 1943 766 1905 c 128,-1,19
 905 1867 905 1867 934 1867 c 0,20,21
 944 1867 944 1867 954.5 1871.5 c 128,-1,22
 965 1876 965 1876 973.5 1881.5 c 128,-1,23
 982 1887 982 1887 995 1900.5 c 128,-1,24
 1008 1914 1008 1914 1016 1922.5 c 128,-1,25
 1024 1931 1024 1931 1041.5 1950 c 128,-1,26
 1059 1969 1059 1969 1068 1979 c 1,27,-1
 1092 1979 l 1,28,-1
 1160 1906 l 1,0,-1
1365 440 m 1,29,-1
 1372 0 l 1,30,-1
 1119 0 l 1,31,-1
 427 1103 l 1,32,-1
 411 1103 l 1,33,-1
 409 493 l 1,34,-1
 418 0 l 1,35,-1
 197 0 l 1,36,-1
 213 436 l 1,37,-1
 202 1473 l 1,38,-1
 455 1473 l 1,39,-1
 1147 370 l 1,40,-1
 1163 370 l 1,41,-1
 1158 1462 l 1,42,-1
 1381 1477 l 1,43,-1
 1365 440 l 1,29,-1
EndSplineSet
Position2: "'cpsp' Capital Spacing lookup 0 subtable" dx=16 dy=0 dh=33 dv=0
EndChar

StartChar: Ograve
Encoding: 210 210 148
Width: 1464
GlyphClass: 2
Flags: W
AnchorPoint: "Anchor-1" 0 0 basechar 0
AnchorPoint: "Anchor-0" 733 1472 basechar 0
LayerCount: 2
Fore
SplineSet
528 2003 m 1,0,-1
 551 2007 l 1,1,2
 692 1924 692 1924 1005 1762 c 1,3,-1
 965 1661 l 1,4,-1
 941 1652 l 1,5,6
 618 1777 618 1777 475 1839 c 1,7,-1
 466 1863 l 1,8,-1
 528 2003 l 1,0,-1
755 1491 m 0,9,10
 1059 1491 1059 1491 1223.5 1302.5 c 128,-1,11
 1388 1114 1388 1114 1388 766 c 0,12,13
 1388 389 1388 389 1212 184.5 c 128,-1,14
 1036 -20 1036 -20 711 -20 c 0,15,16
 408 -20 408 -20 243 173.5 c 128,-1,17
 78 367 78 367 78 722 c 0,18,19
 78 1092 78 1092 254 1291.5 c 128,-1,20
 430 1491 430 1491 755 1491 c 0,9,10
731 1296 m 0,21,22
 521 1296 521 1296 421 1164.5 c 128,-1,23
 321 1033 321 1033 321 753 c 0,24,25
 321 451 321 451 420.5 310.5 c 128,-1,26
 520 170 520 170 729 170 c 256,27,28
 938 170 938 170 1040 304.5 c 128,-1,29
 1142 439 1142 439 1142 722 c 0,30,31
 1142 1020 1142 1020 1042 1158 c 128,-1,32
 942 1296 942 1296 731 1296 c 0,21,22
EndSplineSet
Position2: "'cpsp' Capital Spacing lookup 0 subtable" dx=16 dy=0 dh=33 dv=0
EndChar

StartChar: Oacute
Encoding: 211 211 149
Width: 1464
GlyphClass: 2
Flags: W
AnchorPoint: "Anchor-1" 0 0 basechar 0
AnchorPoint: "Anchor-0" 733 1472 basechar 0
LayerCount: 2
Fore
SplineSet
1000 2000 m 1,0,-1
 1062 1860 l 1,1,-1
 1053 1837 l 1,2,3
 910 1775 910 1775 587 1650 c 1,4,-1
 562 1659 l 1,5,-1
 523 1760 l 1,6,7
 835 1922 835 1922 977 2005 c 1,8,-1
 1000 2000 l 1,0,-1
755 1491 m 0,9,10
 1059 1491 1059 1491 1223.5 1302.5 c 128,-1,11
 1388 1114 1388 1114 1388 766 c 0,12,13
 1388 389 1388 389 1212 184.5 c 128,-1,14
 1036 -20 1036 -20 711 -20 c 0,15,16
 408 -20 408 -20 243 173.5 c 128,-1,17
 78 367 78 367 78 722 c 0,18,19
 78 1092 78 1092 254 1291.5 c 128,-1,20
 430 1491 430 1491 755 1491 c 0,9,10
731 1296 m 0,21,22
 521 1296 521 1296 421 1164.5 c 128,-1,23
 321 1033 321 1033 321 753 c 0,24,25
 321 451 321 451 420.5 310.5 c 128,-1,26
 520 170 520 170 729 170 c 256,27,28
 938 170 938 170 1040 304.5 c 128,-1,29
 1142 439 1142 439 1142 722 c 0,30,31
 1142 1020 1142 1020 1042 1158 c 128,-1,32
 942 1296 942 1296 731 1296 c 0,21,22
EndSplineSet
Position2: "'cpsp' Capital Spacing lookup 0 subtable" dx=16 dy=0 dh=33 dv=0
EndChar

StartChar: Ocircumflex
Encoding: 212 212 150
Width: 1464
GlyphClass: 2
Flags: W
AnchorPoint: "Anchor-1" 0 0 basechar 0
AnchorPoint: "Anchor-0" 733 1472 basechar 0
LayerCount: 2
Fore
SplineSet
468 1677 m 1,0,-1
 422 1775 l 1,1,2
 570 1873 570 1873 707 1996 c 1,3,-1
 762 1996 l 1,4,5
 888 1882 888 1882 1046 1775 c 1,6,-1
 1002 1677 l 1,7,-1
 977 1677 l 1,8,9
 810 1778 810 1778 734 1828 c 1,10,11
 658 1777 658 1777 493 1677 c 1,12,-1
 468 1677 l 1,0,-1
755 1491 m 0,13,14
 1059 1491 1059 1491 1223.5 1302.5 c 128,-1,15
 1388 1114 1388 1114 1388 766 c 0,16,17
 1388 389 1388 389 1212 184.5 c 128,-1,18
 1036 -20 1036 -20 711 -20 c 0,19,20
 408 -20 408 -20 243 173.5 c 128,-1,21
 78 367 78 367 78 722 c 0,22,23
 78 1092 78 1092 254 1291.5 c 128,-1,24
 430 1491 430 1491 755 1491 c 0,13,14
731 1296 m 0,25,26
 521 1296 521 1296 421 1164.5 c 128,-1,27
 321 1033 321 1033 321 753 c 0,28,29
 321 451 321 451 420.5 310.5 c 128,-1,30
 520 170 520 170 729 170 c 256,31,32
 938 170 938 170 1040 304.5 c 128,-1,33
 1142 439 1142 439 1142 722 c 0,34,35
 1142 1020 1142 1020 1042 1158 c 128,-1,36
 942 1296 942 1296 731 1296 c 0,25,26
EndSplineSet
Position2: "'cpsp' Capital Spacing lookup 0 subtable" dx=16 dy=0 dh=33 dv=0
EndChar

StartChar: Otilde
Encoding: 213 213 151
Width: 1464
GlyphClass: 2
Flags: W
AnchorPoint: "Anchor-1" 0 0 basechar 0
AnchorPoint: "Anchor-0" 733 1472 basechar 0
LayerCount: 2
Fore
SplineSet
1110 1906 m 1,0,-1
 1110 1885 l 1,1,-1
 961 1709 l 1,2,-1
 939 1698 l 1,3,4
 890 1704 890 1704 751.5 1743 c 128,-1,5
 613 1782 613 1782 582 1782 c 0,6,7
 570 1782 570 1782 558.5 1776.5 c 128,-1,8
 547 1771 547 1771 532.5 1758.5 c 128,-1,9
 518 1746 518 1746 508 1735.5 c 128,-1,10
 498 1725 498 1725 478.5 1703.5 c 128,-1,11
 459 1682 459 1682 447 1670 c 1,12,-1
 424 1670 l 1,13,-1
 353 1743 l 1,14,-1
 353 1764 l 1,15,-1
 503 1941 l 1,16,-1
 528 1950 l 1,17,18
 569 1944 569 1944 647 1923 c 128,-1,19
 725 1902 725 1902 792 1884.5 c 128,-1,20
 859 1867 859 1867 883 1867 c 0,21,22
 891 1867 891 1867 899 1869.5 c 128,-1,23
 907 1872 907 1872 916.5 1878.5 c 128,-1,24
 926 1885 926 1885 934 1891 c 128,-1,25
 942 1897 942 1897 953.5 1909.5 c 128,-1,26
 965 1922 965 1922 972.5 1929.5 c 128,-1,27
 980 1937 980 1937 995 1953.5 c 128,-1,28
 1010 1970 1010 1970 1018 1979 c 1,29,-1
 1042 1979 l 1,30,-1
 1110 1906 l 1,0,-1
755 1491 m 0,31,32
 1059 1491 1059 1491 1223.5 1302.5 c 128,-1,33
 1388 1114 1388 1114 1388 766 c 0,34,35
 1388 389 1388 389 1212 184.5 c 128,-1,36
 1036 -20 1036 -20 711 -20 c 0,37,38
 408 -20 408 -20 243 173.5 c 128,-1,39
 78 367 78 367 78 722 c 0,40,41
 78 1092 78 1092 254 1291.5 c 128,-1,42
 430 1491 430 1491 755 1491 c 0,31,32
731 1296 m 0,43,44
 521 1296 521 1296 421 1164.5 c 128,-1,45
 321 1033 321 1033 321 753 c 0,46,47
 321 451 321 451 420.5 310.5 c 128,-1,48
 520 170 520 170 729 170 c 256,49,50
 938 170 938 170 1040 304.5 c 128,-1,51
 1142 439 1142 439 1142 722 c 0,52,53
 1142 1020 1142 1020 1042 1158 c 128,-1,54
 942 1296 942 1296 731 1296 c 0,43,44
EndSplineSet
Position2: "'cpsp' Capital Spacing lookup 0 subtable" dx=16 dy=0 dh=33 dv=0
EndChar

StartChar: Odieresis
Encoding: 214 214 152
Width: 1464
GlyphClass: 2
Flags: W
AnchorPoint: "Anchor-1" 0 0 basechar 0
AnchorPoint: "Anchor-0" 733 1472 basechar 0
LayerCount: 2
Fore
SplineSet
551 1941 m 0,0,1
 606 1941 606 1941 635.5 1910 c 128,-1,2
 665 1879 665 1879 665 1823 c 0,3,4
 665 1784 665 1784 650.5 1756 c 128,-1,5
 636 1728 636 1728 608.5 1713 c 128,-1,6
 581 1698 581 1698 543 1698 c 0,7,8
 486 1698 486 1698 456.5 1728.5 c 128,-1,9
 427 1759 427 1759 427 1817 c 0,10,11
 427 1874 427 1874 460.5 1907.5 c 128,-1,12
 494 1941 494 1941 551 1941 c 0,0,1
926 1941 m 0,13,14
 981 1941 981 1941 1011.5 1910 c 128,-1,15
 1042 1879 1042 1879 1042 1823 c 0,16,17
 1042 1794 1042 1794 1033.5 1770.5 c 128,-1,18
 1025 1747 1025 1747 1009.5 1731 c 128,-1,19
 994 1715 994 1715 971 1706.5 c 128,-1,20
 948 1698 948 1698 920 1698 c 0,21,22
 863 1698 863 1698 833 1728.5 c 128,-1,23
 803 1759 803 1759 803 1816.5 c 128,-1,24
 803 1874 803 1874 836 1907.5 c 128,-1,25
 869 1941 869 1941 926 1941 c 0,13,14
755 1491 m 0,26,27
 1059 1491 1059 1491 1223.5 1302.5 c 128,-1,28
 1388 1114 1388 1114 1388 766 c 0,29,30
 1388 389 1388 389 1212 184.5 c 128,-1,31
 1036 -20 1036 -20 711 -20 c 0,32,33
 408 -20 408 -20 243 173.5 c 128,-1,34
 78 367 78 367 78 722 c 0,35,36
 78 1092 78 1092 254 1291.5 c 128,-1,37
 430 1491 430 1491 755 1491 c 0,26,27
731 1296 m 0,38,39
 521 1296 521 1296 421 1164.5 c 128,-1,40
 321 1033 321 1033 321 753 c 0,41,42
 321 451 321 451 420.5 310.5 c 128,-1,43
 520 170 520 170 729 170 c 256,44,45
 938 170 938 170 1040 304.5 c 128,-1,46
 1142 439 1142 439 1142 722 c 0,47,48
 1142 1020 1142 1020 1042 1158 c 128,-1,49
 942 1296 942 1296 731 1296 c 0,38,39
EndSplineSet
Ligature2: "'liga' Standard Ligatures lookup 30 subtable" dieresis O
Position2: "'cpsp' Capital Spacing lookup 0 subtable" dx=16 dy=0 dh=33 dv=0
EndChar

StartChar: multiply
Encoding: 215 215 153
Width: 1100
GlyphClass: 2
Flags: W
LayerCount: 2
Fore
SplineSet
941 904 m 1,0,-1
 941 878 l 1,1,-1
 665 604 l 1,2,-1
 941 328 l 1,3,-1
 941 305 l 1,4,-1
 830 211 l 1,5,-1
 551 488 l 1,6,-1
 271 208 l 1,7,-1
 160 305 l 1,8,-1
 160 326 l 1,9,-1
 438 604 l 1,10,-1
 160 878 l 1,11,-1
 160 904 l 1,12,-1
 271 996 l 1,13,-1
 551 718 l 1,14,-1
 830 996 l 1,15,-1
 941 904 l 1,0,-1
EndSplineSet
EndChar

StartChar: Oslash
Encoding: 216 216 154
Width: 1464
GlyphClass: 2
Flags: W
AnchorPoint: "Anchor-1" 0 0 basechar 0
AnchorPoint: "Anchor-0" 731 1475 basechar 0
LayerCount: 2
Fore
SplineSet
1225 1594 m 1,0,-1
 1129 1388 l 1,1,2
 1256 1300 1256 1300 1322 1142.5 c 128,-1,3
 1388 985 1388 985 1388 766 c 0,4,5
 1388 389 1388 389 1212 184.5 c 128,-1,6
 1036 -20 1036 -20 711 -20 c 0,7,8
 582 -20 582 -20 479 13 c 1,9,-1
 355 -250 l 1,10,-1
 221 -195 l 1,11,-1
 208 -175 l 1,12,-1
 333 90 l 1,13,14
 208 182 208 182 143 342 c 128,-1,15
 78 502 78 502 78 722 c 0,16,17
 78 1092 78 1092 254 1291.5 c 128,-1,18
 430 1491 430 1491 755 1491 c 0,19,20
 869 1491 869 1491 977 1462 c 1,21,-1
 1076 1672 l 1,22,-1
 1208 1620 l 1,23,-1
 1225 1594 l 1,0,-1
321 753 m 0,24,25
 321 438 321 438 431 298 c 1,26,-1
 888 1273 l 1,27,28
 823 1296 823 1296 731 1296 c 0,29,30
 521 1296 521 1296 421 1164.5 c 128,-1,31
 321 1033 321 1033 321 753 c 0,24,25
729 170 m 0,32,33
 938 170 938 170 1040 304.5 c 128,-1,34
 1142 439 1142 439 1142 722 c 0,35,36
 1142 1043 1142 1043 1028 1177 c 1,37,-1
 567 197 l 1,38,39
 636 170 636 170 729 170 c 0,32,33
EndSplineSet
Position2: "'cpsp' Capital Spacing lookup 0 subtable" dx=16 dy=0 dh=33 dv=0
EndChar

StartChar: Ugrave
Encoding: 217 217 155
Width: 1447
GlyphClass: 2
Flags: W
AnchorPoint: "Anchor-1" 0 0 basechar 0
AnchorPoint: "Anchor-0" 729 1472 basechar 0
LayerCount: 2
Fore
SplineSet
523 2003 m 1,0,-1
 545 2007 l 1,1,2
 678 1929 678 1929 1000 1762 c 1,3,-1
 961 1661 l 1,4,-1
 936 1652 l 1,5,6
 613 1777 613 1777 470 1839 c 1,7,-1
 461 1863 l 1,8,-1
 523 2003 l 1,0,-1
1285 725 m 1,9,-1
 1282 551 l 1,10,11
 1286 280 1286 280 1135 131 c 128,-1,12
 984 -18 984 -18 704 -18 c 0,13,14
 438 -18 438 -18 295.5 125 c 128,-1,15
 153 268 153 268 158 532 c 1,16,-1
 160 736 l 1,17,-1
 158 1473 l 1,18,-1
 392 1473 l 1,19,-1
 383 564 l 2,20,21
 381 373 381 373 465 278.5 c 128,-1,22
 549 184 549 184 720 184 c 0,23,24
 1067 184 1067 184 1064 541 c 1,25,-1
 1053 1473 l 1,26,-1
 1291 1473 l 1,27,-1
 1285 725 l 1,9,-1
EndSplineSet
Position2: "'cpsp' Capital Spacing lookup 0 subtable" dx=16 dy=0 dh=33 dv=0
EndChar

StartChar: Uacute
Encoding: 218 218 156
Width: 1447
GlyphClass: 2
Flags: W
AnchorPoint: "Anchor-1" 0 0 basechar 0
AnchorPoint: "Anchor-0" 729 1472 basechar 0
LayerCount: 2
Fore
SplineSet
996 2000 m 1,0,-1
 1057 1860 l 1,1,-1
 1048 1837 l 1,2,3
 906 1775 906 1775 582 1650 c 1,4,-1
 558 1659 l 1,5,-1
 519 1760 l 1,6,7
 831 1922 831 1922 972 2005 c 1,8,-1
 996 2000 l 1,0,-1
1285 725 m 1,9,-1
 1282 551 l 1,10,11
 1286 280 1286 280 1135 131 c 128,-1,12
 984 -18 984 -18 704 -18 c 0,13,14
 438 -18 438 -18 295.5 125 c 128,-1,15
 153 268 153 268 158 532 c 1,16,-1
 160 736 l 1,17,-1
 158 1473 l 1,18,-1
 392 1473 l 1,19,-1
 383 564 l 2,20,21
 381 373 381 373 465 278.5 c 128,-1,22
 549 184 549 184 720 184 c 0,23,24
 1067 184 1067 184 1064 541 c 1,25,-1
 1053 1473 l 1,26,-1
 1291 1473 l 1,27,-1
 1285 725 l 1,9,-1
EndSplineSet
Position2: "'cpsp' Capital Spacing lookup 0 subtable" dx=16 dy=0 dh=33 dv=0
EndChar

StartChar: Ucircumflex
Encoding: 219 219 157
Width: 1447
GlyphClass: 2
Flags: W
AnchorPoint: "Anchor-1" 0 0 basechar 0
AnchorPoint: "Anchor-0" 729 1472 basechar 0
LayerCount: 2
Fore
SplineSet
464 1677 m 1,0,-1
 418 1775 l 1,1,2
 566 1873 566 1873 702 1996 c 1,3,-1
 757 1996 l 1,4,5
 884 1882 884 1882 1042 1775 c 1,6,-1
 998 1677 l 1,7,-1
 972 1677 l 1,8,9
 805 1778 805 1778 729 1828 c 1,10,11
 654 1777 654 1777 488 1677 c 1,12,-1
 464 1677 l 1,0,-1
1285 725 m 1,13,-1
 1282 551 l 1,14,15
 1286 280 1286 280 1135 131 c 128,-1,16
 984 -18 984 -18 704 -18 c 0,17,18
 438 -18 438 -18 295.5 125 c 128,-1,19
 153 268 153 268 158 532 c 1,20,-1
 160 736 l 1,21,-1
 158 1473 l 1,22,-1
 392 1473 l 1,23,-1
 383 564 l 2,24,25
 381 373 381 373 465 278.5 c 128,-1,26
 549 184 549 184 720 184 c 0,27,28
 1067 184 1067 184 1064 541 c 1,29,-1
 1053 1473 l 1,30,-1
 1291 1473 l 1,31,-1
 1285 725 l 1,13,-1
EndSplineSet
Position2: "'cpsp' Capital Spacing lookup 0 subtable" dx=16 dy=0 dh=33 dv=0
EndChar

StartChar: Udieresis
Encoding: 220 220 158
Width: 1447
GlyphClass: 2
Flags: W
AnchorPoint: "Anchor-1" 0 0 basechar 0
AnchorPoint: "Anchor-0" 729 1472 basechar 0
LayerCount: 2
Fore
SplineSet
545 1941 m 0,0,1
 601 1941 601 1941 631 1910 c 128,-1,2
 661 1879 661 1879 661 1823 c 0,3,4
 661 1784 661 1784 646.5 1756 c 128,-1,5
 632 1728 632 1728 604.5 1713 c 128,-1,6
 577 1698 577 1698 539 1698 c 0,7,8
 482 1698 482 1698 452 1728.5 c 128,-1,9
 422 1759 422 1759 422 1816.5 c 128,-1,10
 422 1874 422 1874 455 1907.5 c 128,-1,11
 488 1941 488 1941 545 1941 c 0,0,1
922 1941 m 0,12,13
 977 1941 977 1941 1007 1910 c 128,-1,14
 1037 1879 1037 1879 1037 1823 c 0,15,16
 1037 1765 1037 1765 1004.5 1731.5 c 128,-1,17
 972 1698 972 1698 915 1698 c 256,18,19
 858 1698 858 1698 828.5 1728.5 c 128,-1,20
 799 1759 799 1759 799 1816.5 c 128,-1,21
 799 1874 799 1874 832 1907.5 c 128,-1,22
 865 1941 865 1941 922 1941 c 0,12,13
1285 725 m 1,23,-1
 1282 551 l 1,24,25
 1286 280 1286 280 1135 131 c 128,-1,26
 984 -18 984 -18 704 -18 c 0,27,28
 438 -18 438 -18 295.5 125 c 128,-1,29
 153 268 153 268 158 532 c 1,30,-1
 160 736 l 1,31,-1
 158 1473 l 1,32,-1
 392 1473 l 1,33,-1
 383 564 l 2,34,35
 381 373 381 373 465 278.5 c 128,-1,36
 549 184 549 184 720 184 c 0,37,38
 1067 184 1067 184 1064 541 c 1,39,-1
 1053 1473 l 1,40,-1
 1291 1473 l 1,41,-1
 1285 725 l 1,23,-1
EndSplineSet
Position2: "'cpsp' Capital Spacing lookup 0 subtable" dx=16 dy=0 dh=33 dv=0
EndChar

StartChar: Yacute
Encoding: 221 221 159
Width: 1239
GlyphClass: 2
Flags: W
AnchorPoint: "Anchor-1" 0 0 basechar 0
AnchorPoint: "Anchor-0" 610 1472 basechar 0
LayerCount: 2
Fore
SplineSet
438 1659 m 1,0,-1
 399 1760 l 1,1,2
 720 1926 720 1926 853 2005 c 1,3,-1
 876 2000 l 1,4,-1
 939 1860 l 1,5,-1
 928 1837 l 1,6,7
 777 1771 777 1771 464 1650 c 1,8,-1
 438 1659 l 1,0,-1
711 422 m 1,9,-1
 720 0 l 1,10,-1
 482 0 l 1,11,-1
 497 422 l 1,12,-1
 495 514 l 1,13,-1
 26 1473 l 1,14,-1
 278 1473 l 1,15,-1
 307 1381 l 1,16,-1
 601 764 l 1,17,-1
 619 764 l 1,18,-1
 941 1376 l 1,19,-1
 977 1473 l 1,20,-1
 1228 1473 l 1,21,-1
 713 516 l 1,22,-1
 711 422 l 1,9,-1
EndSplineSet
Ligature2: "'liga' Standard Ligatures lookup 30 subtable" acute Y
Position2: "'cpsp' Capital Spacing lookup 0 subtable" dx=16 dy=0 dh=33 dv=0
EndChar

StartChar: Thorn
Encoding: 222 222 160
Width: 1237
GlyphClass: 2
Flags: W
LayerCount: 2
Fore
SplineSet
438 1228 m 1,0,-1
 704 1230 l 1,1,2
 929 1230 929 1230 1049 1116.5 c 128,-1,3
 1169 1003 1169 1003 1169 786 c 0,4,5
 1169 534 1169 534 1020.5 396.5 c 128,-1,6
 872 259 872 259 596 259 c 1,7,-1
 433 254 l 1,8,-1
 438 0 l 1,9,-1
 199 0 l 1,10,-1
 211 442 l 1,11,-1
 202 1228 l 1,12,-1
 199 1473 l 1,13,-1
 440 1473 l 1,14,-1
 438 1228 l 1,0,-1
429 447 m 1,15,-1
 661 440 l 1,16,17
 922 494 922 494 922 771 c 0,18,19
 922 906 922 906 851.5 972.5 c 128,-1,20
 781 1039 781 1039 637 1046 c 1,21,-1
 436 1039 l 1,22,-1
 429 464 l 1,23,-1
 429 447 l 1,15,-1
EndSplineSet
Position2: "'cpsp' Capital Spacing lookup 0 subtable" dx=16 dy=0 dh=33 dv=0
EndChar

StartChar: germandbls
Encoding: 223 223 161
Width: 1333
GlyphClass: 2
Flags: W
LayerCount: 2
Fore
SplineSet
869 851 m 0,0,1
 869 810 869 810 888.5 775 c 128,-1,2
 908 740 908 740 940 715 c 128,-1,3
 972 690 972 690 1012.5 663.5 c 128,-1,4
 1053 637 1053 637 1095.5 614.5 c 128,-1,5
 1138 592 1138 592 1178.5 561.5 c 128,-1,6
 1219 531 1219 531 1251 498 c 128,-1,7
 1283 465 1283 465 1302.5 417 c 128,-1,8
 1322 369 1322 369 1322 312 c 0,9,10
 1322 246 1322 246 1295.5 186.5 c 128,-1,11
 1269 127 1269 127 1220 80.5 c 128,-1,12
 1171 34 1171 34 1094.5 7 c 128,-1,13
 1018 -20 1018 -20 924 -20 c 0,14,15
 768 -20 768 -20 613 50 c 1,16,-1
 640 245 l 1,17,-1
 663 261 l 1,18,19
 729 202 729 202 803.5 170 c 128,-1,20
 878 138 878 138 945 138 c 0,21,22
 997 138 997 138 1035 156 c 128,-1,23
 1073 174 1073 174 1092.5 204.5 c 128,-1,24
 1112 235 1112 235 1112 273 c 0,25,26
 1112 312 1112 312 1087.5 346.5 c 128,-1,27
 1063 381 1063 381 1023 408.5 c 128,-1,28
 983 436 983 436 935.5 463.5 c 128,-1,29
 888 491 888 491 840 524 c 128,-1,30
 792 557 792 557 752.5 595.5 c 128,-1,31
 713 634 713 634 688 689.5 c 128,-1,32
 663 745 663 745 663 812 c 0,33,34
 663 862 663 862 677 904 c 128,-1,35
 691 946 691 946 714 975.5 c 128,-1,36
 737 1005 737 1005 764 1032 c 128,-1,37
 791 1059 791 1059 818.5 1084.5 c 128,-1,38
 846 1110 846 1110 868.5 1136.5 c 128,-1,39
 891 1163 891 1163 905.5 1198.5 c 128,-1,40
 920 1234 920 1234 920 1276 c 0,41,42
 920 1358 920 1358 865 1402.5 c 128,-1,43
 810 1447 810 1447 713 1447 c 0,44,45
 594 1447 594 1447 526.5 1377 c 128,-1,46
 459 1307 459 1307 457 1169 c 2,47,-1
 447 461 l 1,48,-1
 461 0 l 1,49,-1
 230 0 l 1,50,-1
 243 436 l 1,51,-1
 239 904 l 1,52,-1
 81 904 l 1,53,-1
 71 917 l 1,54,-1
 85 1053 l 1,55,-1
 236 1053 l 1,56,-1
 236 1142 l 2,57,58
 236 1366 236 1366 368 1490.5 c 128,-1,59
 500 1615 500 1615 725 1615 c 0,60,61
 913 1615 913 1615 1013.5 1530.5 c 128,-1,62
 1114 1446 1114 1446 1114 1307 c 0,63,64
 1114 1258 1114 1258 1100.5 1214.5 c 128,-1,65
 1087 1171 1087 1171 1065.5 1139.5 c 128,-1,66
 1044 1108 1044 1108 1018 1079.5 c 128,-1,67
 992 1051 992 1051 965.5 1025 c 128,-1,68
 939 999 939 999 917.5 973.5 c 128,-1,69
 896 948 896 948 882.5 917 c 128,-1,70
 869 886 869 886 869 851 c 0,0,1
EndSplineSet
Substitution2: "Single Substitution lookup 41 subtable" germandbls.calt
Substitution2: "'case' Case-Sensitive Forms lookup 28 subtable" Germandbls
Substitution2: "'aalt' Access All Alternates lookup 0 subtable" Germandbls
EndChar

StartChar: agrave
Encoding: 224 224 162
Width: 1077
GlyphClass: 2
Flags: W
AnchorPoint: "Anchor-1" 0 0 basechar 0
AnchorPoint: "Anchor-0" 520 1057 basechar 0
LayerCount: 2
Fore
SplineSet
355 1622 m 1,0,-1
 379 1624 l 1,1,2
 535 1475 535 1475 771 1285 c 1,3,-1
 711 1193 l 1,4,-1
 688 1191 l 1,5,6
 464 1336 464 1336 273 1475 c 1,7,-1
 269 1497 l 1,8,-1
 355 1622 l 1,0,-1
543 1079 m 0,9,10
 647 1079 647 1079 724 1045 c 128,-1,11
 801 1011 801 1011 843.5 946 c 128,-1,12
 886 881 886 881 886 792 c 0,13,14
 886 751 886 751 872 518.5 c 128,-1,15
 858 286 858 286 858 248 c 0,16,17
 858 203 858 203 871.5 186.5 c 128,-1,18
 885 170 885 170 922 170 c 0,19,20
 947 170 947 170 993 179 c 1,21,-1
 1014 162 l 1,22,-1
 991 35 l 1,23,24
 927 -5 927 -5 847 -16 c 1,25,26
 776 -9 776 -9 731.5 35.5 c 128,-1,27
 687 80 687 80 679 153 c 1,28,-1
 663 153 l 1,29,30
 542 29 542 29 424 -18 c 1,31,32
 265 -16 265 -16 175 64 c 128,-1,33
 85 144 85 144 85 282 c 0,34,35
 85 388 85 388 141 449.5 c 128,-1,36
 197 511 197 511 307 536 c 2,37,-1
 670 617 l 1,38,-1
 672 741 l 2,39,40
 672 798 672 798 652.5 836.5 c 128,-1,41
 633 875 633 875 596.5 894 c 128,-1,42
 560 913 560 913 507 913 c 0,43,44
 456 913 456 913 404 897 c 128,-1,45
 352 881 352 881 297 849 c 128,-1,46
 242 817 242 817 179 766 c 1,47,-1
 160 777 l 1,48,-1
 131 941 l 1,49,50
 333 1079 333 1079 543 1079 c 0,9,10
670 482 m 1,51,-1
 372 411 l 2,52,53
 331 402 331 402 312 379.5 c 128,-1,54
 293 357 293 357 293 312 c 0,55,56
 293 243 293 243 331 204 c 128,-1,57
 369 165 369 165 433 165 c 0,58,59
 491 165 491 165 547 200.5 c 128,-1,60
 603 236 603 236 663 305 c 1,61,-1
 670 482 l 1,51,-1
EndSplineSet
Substitution2: "'case' Case-Sensitive Forms lookup 28 subtable" Agrave
Substitution2: "'aalt' Access All Alternates lookup 0 subtable" Agrave
EndChar

StartChar: aacute
Encoding: 225 225 163
Width: 1077
GlyphClass: 2
Flags: W
AnchorPoint: "Anchor-1" 0 0 basechar 0
AnchorPoint: "Anchor-0" 520 1057 basechar 0
LayerCount: 2
Fore
SplineSet
746 1622 m 1,0,-1
 832 1497 l 1,1,-1
 828 1475 l 1,2,3
 637 1336 637 1336 413 1191 c 1,4,-1
 390 1193 l 1,5,-1
 330 1285 l 1,6,7
 566 1475 566 1475 722 1624 c 1,8,-1
 746 1622 l 1,0,-1
543 1079 m 0,9,10
 647 1079 647 1079 724 1045 c 128,-1,11
 801 1011 801 1011 843.5 946 c 128,-1,12
 886 881 886 881 886 792 c 0,13,14
 886 751 886 751 872 518.5 c 128,-1,15
 858 286 858 286 858 248 c 0,16,17
 858 203 858 203 871.5 186.5 c 128,-1,18
 885 170 885 170 922 170 c 0,19,20
 947 170 947 170 993 179 c 1,21,-1
 1014 162 l 1,22,-1
 991 35 l 1,23,24
 927 -5 927 -5 847 -16 c 1,25,26
 776 -9 776 -9 731.5 35.5 c 128,-1,27
 687 80 687 80 679 153 c 1,28,-1
 663 153 l 1,29,30
 542 29 542 29 424 -18 c 1,31,32
 265 -16 265 -16 175 64 c 128,-1,33
 85 144 85 144 85 282 c 0,34,35
 85 388 85 388 141 449.5 c 128,-1,36
 197 511 197 511 307 536 c 2,37,-1
 670 617 l 1,38,-1
 672 741 l 2,39,40
 672 798 672 798 652.5 836.5 c 128,-1,41
 633 875 633 875 596.5 894 c 128,-1,42
 560 913 560 913 507 913 c 0,43,44
 456 913 456 913 404 897 c 128,-1,45
 352 881 352 881 297 849 c 128,-1,46
 242 817 242 817 179 766 c 1,47,-1
 160 777 l 1,48,-1
 131 941 l 1,49,50
 333 1079 333 1079 543 1079 c 0,9,10
670 482 m 1,51,-1
 372 411 l 2,52,53
 331 402 331 402 312 379.5 c 128,-1,54
 293 357 293 357 293 312 c 0,55,56
 293 243 293 243 331 204 c 128,-1,57
 369 165 369 165 433 165 c 0,58,59
 491 165 491 165 547 200.5 c 128,-1,60
 603 236 603 236 663 305 c 1,61,-1
 670 482 l 1,51,-1
EndSplineSet
Substitution2: "'case' Case-Sensitive Forms lookup 28 subtable" Aacute
Substitution2: "'aalt' Access All Alternates lookup 0 subtable" Aacute
EndChar

StartChar: acircumflex
Encoding: 226 226 164
Width: 1077
GlyphClass: 2
Flags: W
AnchorPoint: "Anchor-1" 0 0 basechar 0
AnchorPoint: "Anchor-0" 520 1057 basechar 0
LayerCount: 2
Fore
SplineSet
256 1202 m 1,0,-1
 195 1294 l 1,1,2
 319 1412 319 1412 493 1608 c 1,3,-1
 553 1608 l 1,4,5
 725 1412 725 1412 849 1294 c 1,6,-1
 786 1202 l 1,7,-1
 764 1202 l 1,8,9
 600 1346 600 1346 523 1431 c 1,10,11
 451 1354 451 1354 282 1202 c 1,12,-1
 256 1202 l 1,0,-1
543 1079 m 0,13,14
 647 1079 647 1079 724 1045 c 128,-1,15
 801 1011 801 1011 843.5 946 c 128,-1,16
 886 881 886 881 886 792 c 0,17,18
 886 751 886 751 872 518.5 c 128,-1,19
 858 286 858 286 858 248 c 0,20,21
 858 203 858 203 871.5 186.5 c 128,-1,22
 885 170 885 170 922 170 c 0,23,24
 947 170 947 170 993 179 c 1,25,-1
 1014 162 l 1,26,-1
 991 35 l 1,27,28
 927 -5 927 -5 847 -16 c 1,29,30
 776 -9 776 -9 731.5 35.5 c 128,-1,31
 687 80 687 80 679 153 c 1,32,-1
 663 153 l 1,33,34
 542 29 542 29 424 -18 c 1,35,36
 265 -16 265 -16 175 64 c 128,-1,37
 85 144 85 144 85 282 c 0,38,39
 85 388 85 388 141 449.5 c 128,-1,40
 197 511 197 511 307 536 c 2,41,-1
 670 617 l 1,42,-1
 672 741 l 2,43,44
 672 798 672 798 652.5 836.5 c 128,-1,45
 633 875 633 875 596.5 894 c 128,-1,46
 560 913 560 913 507 913 c 0,47,48
 456 913 456 913 404 897 c 128,-1,49
 352 881 352 881 297 849 c 128,-1,50
 242 817 242 817 179 766 c 1,51,-1
 160 777 l 1,52,-1
 131 941 l 1,53,54
 333 1079 333 1079 543 1079 c 0,13,14
670 482 m 1,55,-1
 372 411 l 2,56,57
 331 402 331 402 312 379.5 c 128,-1,58
 293 357 293 357 293 312 c 0,59,60
 293 243 293 243 331 204 c 128,-1,61
 369 165 369 165 433 165 c 0,62,63
 491 165 491 165 547 200.5 c 128,-1,64
 603 236 603 236 663 305 c 1,65,-1
 670 482 l 1,55,-1
EndSplineSet
Substitution2: "'case' Case-Sensitive Forms lookup 28 subtable" Acircumflex
Substitution2: "'aalt' Access All Alternates lookup 0 subtable" Acircumflex
EndChar

StartChar: atilde
Encoding: 227 227 165
Width: 1077
GlyphClass: 2
Flags: W
AnchorPoint: "Anchor-1" 0 0 basechar 0
AnchorPoint: "Anchor-0" 520 1057 basechar 0
LayerCount: 2
Fore
SplineSet
897 1491 m 1,0,-1
 897 1471 l 1,1,-1
 748 1294 l 1,2,-1
 725 1282 l 1,3,4
 683 1288 683 1288 605.5 1309.5 c 128,-1,5
 528 1331 528 1331 461.5 1349.5 c 128,-1,6
 395 1368 395 1368 370 1368 c 0,7,8
 358 1368 358 1368 346 1362.5 c 128,-1,9
 334 1357 334 1357 320 1344.5 c 128,-1,10
 306 1332 306 1332 295 1320.5 c 128,-1,11
 284 1309 284 1309 265 1288 c 128,-1,12
 246 1267 246 1267 234 1254 c 1,13,-1
 211 1254 l 1,14,-1
 140 1328 l 1,15,-1
 140 1348 l 1,16,-1
 289 1525 l 1,17,-1
 315 1534 l 1,18,19
 364 1528 364 1528 502.5 1490 c 128,-1,20
 641 1452 641 1452 670 1452 c 0,21,22
 678 1452 678 1452 686.5 1454.5 c 128,-1,23
 695 1457 695 1457 704 1463.5 c 128,-1,24
 713 1470 713 1470 721 1476.5 c 128,-1,25
 729 1483 729 1483 740.5 1494.5 c 128,-1,26
 752 1506 752 1506 760 1515 c 128,-1,27
 768 1524 768 1524 782 1539.5 c 128,-1,28
 796 1555 796 1555 805 1565 c 1,29,-1
 828 1565 l 1,30,-1
 897 1491 l 1,0,-1
543 1079 m 0,31,32
 647 1079 647 1079 724 1045 c 128,-1,33
 801 1011 801 1011 843.5 946 c 128,-1,34
 886 881 886 881 886 792 c 0,35,36
 886 751 886 751 872 518.5 c 128,-1,37
 858 286 858 286 858 248 c 0,38,39
 858 203 858 203 871.5 186.5 c 128,-1,40
 885 170 885 170 922 170 c 0,41,42
 947 170 947 170 993 179 c 1,43,-1
 1014 162 l 1,44,-1
 991 35 l 1,45,46
 927 -5 927 -5 847 -16 c 1,47,48
 776 -9 776 -9 731.5 35.5 c 128,-1,49
 687 80 687 80 679 153 c 1,50,-1
 663 153 l 1,51,52
 542 29 542 29 424 -18 c 1,53,54
 265 -16 265 -16 175 64 c 128,-1,55
 85 144 85 144 85 282 c 0,56,57
 85 388 85 388 141 449.5 c 128,-1,58
 197 511 197 511 307 536 c 2,59,-1
 670 617 l 1,60,-1
 672 741 l 2,61,62
 672 798 672 798 652.5 836.5 c 128,-1,63
 633 875 633 875 596.5 894 c 128,-1,64
 560 913 560 913 507 913 c 0,65,66
 456 913 456 913 404 897 c 128,-1,67
 352 881 352 881 297 849 c 128,-1,68
 242 817 242 817 179 766 c 1,69,-1
 160 777 l 1,70,-1
 131 941 l 1,71,72
 333 1079 333 1079 543 1079 c 0,31,32
670 482 m 1,73,-1
 372 411 l 2,74,75
 331 402 331 402 312 379.5 c 128,-1,76
 293 357 293 357 293 312 c 0,77,78
 293 243 293 243 331 204 c 128,-1,79
 369 165 369 165 433 165 c 0,80,81
 491 165 491 165 547 200.5 c 128,-1,82
 603 236 603 236 663 305 c 1,83,-1
 670 482 l 1,73,-1
EndSplineSet
Substitution2: "'case' Case-Sensitive Forms lookup 28 subtable" Atilde
Substitution2: "'aalt' Access All Alternates lookup 0 subtable" Atilde
EndChar

StartChar: adieresis
Encoding: 228 228 166
Width: 1077
GlyphClass: 2
Flags: W
AnchorPoint: "Anchor-1" 0 0 basechar 0
AnchorPoint: "Anchor-0" 520 1057 basechar 0
LayerCount: 2
Fore
SplineSet
337 1525 m 0,0,1
 392 1525 392 1525 421.5 1494.5 c 128,-1,2
 451 1464 451 1464 451 1408 c 0,3,4
 451 1349 451 1349 419 1315.5 c 128,-1,5
 387 1282 387 1282 330 1282 c 128,-1,6
 273 1282 273 1282 243 1313 c 128,-1,7
 213 1344 213 1344 213 1401 c 128,-1,8
 213 1458 213 1458 246.5 1491.5 c 128,-1,9
 280 1525 280 1525 337 1525 c 0,0,1
713 1525 m 0,10,11
 750 1525 750 1525 776 1511 c 128,-1,12
 802 1497 802 1497 815 1471 c 128,-1,13
 828 1445 828 1445 828 1408 c 0,14,15
 828 1349 828 1349 796 1315.5 c 128,-1,16
 764 1282 764 1282 707 1282 c 128,-1,17
 650 1282 650 1282 619.5 1313 c 128,-1,18
 589 1344 589 1344 589 1401 c 128,-1,19
 589 1458 589 1458 622.5 1491.5 c 128,-1,20
 656 1525 656 1525 713 1525 c 0,10,11
543 1079 m 0,21,22
 647 1079 647 1079 724 1045 c 128,-1,23
 801 1011 801 1011 843.5 946 c 128,-1,24
 886 881 886 881 886 792 c 0,25,26
 886 751 886 751 872 518.5 c 128,-1,27
 858 286 858 286 858 248 c 0,28,29
 858 203 858 203 871.5 186.5 c 128,-1,30
 885 170 885 170 922 170 c 0,31,32
 947 170 947 170 993 179 c 1,33,-1
 1014 162 l 1,34,-1
 991 35 l 1,35,36
 927 -5 927 -5 847 -16 c 1,37,38
 776 -9 776 -9 731.5 35.5 c 128,-1,39
 687 80 687 80 679 153 c 1,40,-1
 663 153 l 1,41,42
 542 29 542 29 424 -18 c 1,43,44
 265 -16 265 -16 175 64 c 128,-1,45
 85 144 85 144 85 282 c 0,46,47
 85 388 85 388 141 449.5 c 128,-1,48
 197 511 197 511 307 536 c 2,49,-1
 670 617 l 1,50,-1
 672 741 l 2,51,52
 672 798 672 798 652.5 836.5 c 128,-1,53
 633 875 633 875 596.5 894 c 128,-1,54
 560 913 560 913 507 913 c 0,55,56
 456 913 456 913 404 897 c 128,-1,57
 352 881 352 881 297 849 c 128,-1,58
 242 817 242 817 179 766 c 1,59,-1
 160 777 l 1,60,-1
 131 941 l 1,61,62
 333 1079 333 1079 543 1079 c 0,21,22
670 482 m 1,63,-1
 372 411 l 2,64,65
 331 402 331 402 312 379.5 c 128,-1,66
 293 357 293 357 293 312 c 0,67,68
 293 243 293 243 331 204 c 128,-1,69
 369 165 369 165 433 165 c 0,70,71
 491 165 491 165 547 200.5 c 128,-1,72
 603 236 603 236 663 305 c 1,73,-1
 670 482 l 1,63,-1
EndSplineSet
Substitution2: "'case' Case-Sensitive Forms lookup 28 subtable" Adieresis
Substitution2: "'aalt' Access All Alternates lookup 0 subtable" Adieresis
EndChar

StartChar: aring
Encoding: 229 229 167
Width: 1077
GlyphClass: 2
Flags: W
AnchorPoint: "Anchor-1" 0 0 basechar 0
AnchorPoint: "Anchor-0" 520 1057 basechar 0
LayerCount: 2
Fore
SplineSet
521 1624 m 0,0,1
 618 1624 618 1624 670 1571 c 128,-1,2
 722 1518 722 1518 722 1429 c 0,3,4
 722 1331 722 1331 665 1277 c 128,-1,5
 608 1223 608 1223 514 1223 c 0,6,7
 423 1223 423 1223 369 1275.5 c 128,-1,8
 315 1328 315 1328 315 1422 c 0,9,10
 315 1518 315 1518 369 1571 c 128,-1,11
 423 1624 423 1624 521 1624 c 0,0,1
516 1519 m 0,12,13
 485 1519 485 1519 463 1508 c 128,-1,14
 441 1497 441 1497 430.5 1476.5 c 128,-1,15
 420 1456 420 1456 420 1427 c 0,16,17
 420 1393 420 1393 432 1370.5 c 128,-1,18
 444 1348 444 1348 465.5 1337 c 128,-1,19
 487 1326 487 1326 519 1326 c 0,20,21
 565 1326 565 1326 591 1350 c 128,-1,22
 617 1374 617 1374 617 1422 c 0,23,24
 617 1451 617 1451 606.5 1472.5 c 128,-1,25
 596 1494 596 1494 573 1506.5 c 128,-1,26
 550 1519 550 1519 516 1519 c 0,12,13
543 1079 m 0,27,28
 647 1079 647 1079 724 1045 c 128,-1,29
 801 1011 801 1011 843.5 946 c 128,-1,30
 886 881 886 881 886 792 c 0,31,32
 886 751 886 751 872 518.5 c 128,-1,33
 858 286 858 286 858 248 c 0,34,35
 858 203 858 203 871.5 186.5 c 128,-1,36
 885 170 885 170 922 170 c 0,37,38
 947 170 947 170 993 179 c 1,39,-1
 1014 162 l 1,40,-1
 991 35 l 1,41,42
 927 -5 927 -5 847 -16 c 1,43,44
 776 -9 776 -9 731.5 35.5 c 128,-1,45
 687 80 687 80 679 153 c 1,46,-1
 663 153 l 1,47,48
 542 29 542 29 424 -18 c 1,49,50
 265 -16 265 -16 175 64 c 128,-1,51
 85 144 85 144 85 282 c 0,52,53
 85 388 85 388 141 449.5 c 128,-1,54
 197 511 197 511 307 536 c 2,55,-1
 670 617 l 1,56,-1
 672 741 l 2,57,58
 672 798 672 798 652.5 836.5 c 128,-1,59
 633 875 633 875 596.5 894 c 128,-1,60
 560 913 560 913 507 913 c 0,61,62
 456 913 456 913 404 897 c 128,-1,63
 352 881 352 881 297 849 c 128,-1,64
 242 817 242 817 179 766 c 1,65,-1
 160 777 l 1,66,-1
 131 941 l 1,67,68
 333 1079 333 1079 543 1079 c 0,27,28
670 482 m 1,69,-1
 372 411 l 2,70,71
 331 402 331 402 312 379.5 c 128,-1,72
 293 357 293 357 293 312 c 0,73,74
 293 243 293 243 331 204 c 128,-1,75
 369 165 369 165 433 165 c 0,76,77
 491 165 491 165 547 200.5 c 128,-1,78
 603 236 603 236 663 305 c 1,79,-1
 670 482 l 1,69,-1
EndSplineSet
Substitution2: "'case' Case-Sensitive Forms lookup 28 subtable" Aring
Substitution2: "'aalt' Access All Alternates lookup 0 subtable" Aring
EndChar

StartChar: ae
Encoding: 230 230 168
Width: 1570
GlyphClass: 2
Flags: W
AnchorPoint: "Anchor-1" 0 0 basechar 0
AnchorPoint: "Anchor-0" 794 1057 basechar 0
LayerCount: 2
Fore
SplineSet
1129 1076 m 0,0,1
 1308 1076 1308 1076 1411 957.5 c 128,-1,2
 1514 839 1514 839 1504 619 c 1,3,-1
 1482 587 l 1,4,-1
 849 495 l 1,5,6
 857 324 857 324 929 238.5 c 128,-1,7
 1001 153 1001 153 1140 153 c 0,8,9
 1211 153 1211 153 1289 179.5 c 128,-1,10
 1367 206 1367 206 1436 252 c 1,11,-1
 1459 239 l 1,12,-1
 1427 57 l 1,13,14
 1360 21 1360 21 1278.5 0.5 c 128,-1,15
 1197 -20 1197 -20 1121 -20 c 0,16,17
 992 -20 992 -20 893.5 35 c 128,-1,18
 795 90 795 90 738 195 c 1,19,20
 612 47 612 47 438 -18 c 1,21,22
 329 -17 329 -17 248.5 18 c 128,-1,23
 168 53 168 53 124.5 120.5 c 128,-1,24
 81 188 81 188 81 282 c 0,25,26
 81 390 81 390 137 459 c 128,-1,27
 193 528 193 528 302 543 c 2,28,-1
 659 594 l 1,29,-1
 659 741 l 2,30,31
 659 913 659 913 495 913 c 0,32,33
 449 913 449 913 399.5 897 c 128,-1,34
 350 881 350 881 294.5 849 c 128,-1,35
 239 817 239 817 175 766 c 1,36,-1
 156 777 l 1,37,-1
 124 941 l 1,38,39
 322 1079 322 1079 523 1079 c 0,40,41
 628 1079 628 1079 698 1039.5 c 128,-1,42
 768 1000 768 1000 803 934 c 1,43,44
 833 968 833 968 870 995 c 128,-1,45
 907 1022 907 1022 948 1040 c 128,-1,46
 989 1058 989 1058 1035 1067 c 128,-1,47
 1081 1076 1081 1076 1129 1076 c 0,0,1
1099 917 m 0,48,49
 993 917 993 917 920 833.5 c 128,-1,50
 847 750 847 750 847 631 c 2,51,-1
 847 624 l 1,52,-1
 1296 698 l 1,53,54
 1295 769 1295 769 1270 818.5 c 128,-1,55
 1245 868 1245 868 1201 892.5 c 128,-1,56
 1157 917 1157 917 1099 917 c 0,48,49
433 168 m 0,57,58
 472 168 472 168 507.5 182 c 128,-1,59
 543 196 543 196 582.5 227 c 128,-1,60
 622 258 622 258 679 315 c 1,61,62
 663 413 663 413 661 466 c 1,63,-1
 392 418 l 2,64,65
 336 408 336 408 312.5 380 c 128,-1,66
 289 352 289 352 289 305 c 0,67,68
 289 238 289 238 328 203 c 128,-1,69
 367 168 367 168 433 168 c 0,57,58
EndSplineSet
Substitution2: "'case' Case-Sensitive Forms lookup 28 subtable" AE
Substitution2: "'aalt' Access All Alternates lookup 0 subtable" AE
EndChar

StartChar: ccedilla
Encoding: 231 231 169
Width: 882
GlyphClass: 2
Flags: W
AnchorPoint: "Anchor-1" 518 0 basechar 0
AnchorPoint: "Anchor-0" 545 1057 basechar 0
LayerCount: 2
Fore
SplineSet
578 165 m 0,0,1
 692 165 692 165 823 234 c 1,2,-1
 847 221 l 1,3,-1
 821 32 l 1,4,5
 699 -14 699 -14 578 -20 c 1,6,-1
 551 -114 l 1,7,-1
 628 -160 l 1,8,9
 678 -187 678 -187 699 -218.5 c 128,-1,10
 720 -250 720 -250 720 -291 c 0,11,12
 720 -362 720 -362 665 -406.5 c 128,-1,13
 610 -451 610 -451 521 -451 c 0,14,15
 420 -451 420 -451 344 -383 c 1,16,-1
 365 -276 l 1,17,-1
 376 -271 l 1,18,19
 443 -342 443 -342 507 -342 c 0,20,21
 537 -342 537 -342 555 -327 c 128,-1,22
 573 -312 573 -312 573 -284 c 0,23,24
 573 -253 573 -253 530 -234 c 1,25,-1
 418 -168 l 1,26,-1
 457 -13 l 1,27,28
 280 14 280 14 182.5 153.5 c 128,-1,29
 85 293 85 293 85 519 c 0,30,31
 85 779 85 779 214 929 c 128,-1,32
 343 1079 343 1079 569 1079 c 0,33,34
 606 1079 606 1079 644 1074.5 c 128,-1,35
 682 1070 682 1070 718.5 1062 c 128,-1,36
 755 1054 755 1054 789 1043 c 128,-1,37
 823 1032 823 1032 851 1018 c 1,38,-1
 812 823 l 1,39,-1
 790 814 l 1,40,41
 671 886 671 886 564 886 c 0,42,43
 442 886 442 886 373.5 794.5 c 128,-1,44
 305 703 305 703 305 536 c 0,45,46
 305 360 305 360 376 262.5 c 128,-1,47
 447 165 447 165 578 165 c 0,0,1
EndSplineSet
Substitution2: "'case' Case-Sensitive Forms lookup 28 subtable" Ccedilla
Substitution2: "'aalt' Access All Alternates lookup 0 subtable" Ccedilla
EndChar

StartChar: egrave
Encoding: 232 232 170
Width: 1055
GlyphClass: 2
Flags: W
AnchorPoint: "Anchor-1" 94 0 basechar 0
AnchorPoint: "Anchor-0" 568 1057 basechar 0
LayerCount: 2
Fore
SplineSet
759 1193 m 1,0,-1
 736 1191 l 1,1,2
 512 1336 512 1336 321 1475 c 1,3,-1
 317 1497 l 1,4,-1
 403 1622 l 1,5,-1
 427 1624 l 1,6,7
 583 1475 583 1475 819 1285 c 1,8,-1
 759 1193 l 1,0,-1
928 519 m 1,9,-1
 300 519 l 1,10,11
 304 345 304 345 379.5 252.5 c 128,-1,12
 455 160 455 160 604 160 c 0,13,14
 675 160 675 160 756.5 185.5 c 128,-1,15
 838 211 838 211 913 256 c 1,16,-1
 936 243 l 1,17,-1
 906 57 l 1,18,19
 748 -20 748 -20 585 -20 c 0,20,21
 349 -20 349 -20 217 125 c 128,-1,22
 85 270 85 270 85 523 c 0,23,24
 85 780 85 780 223 928 c 128,-1,25
 361 1076 361 1076 594 1076 c 0,26,27
 775 1076 775 1076 876 968 c 128,-1,28
 977 860 977 860 977 670 c 0,29,30
 977 593 977 593 968 556 c 1,31,-1
 928 519 l 1,9,-1
764 672 m 1,32,-1
 768 700 l 1,33,34
 768 808 768 808 717.5 861.5 c 128,-1,35
 667 915 667 915 578 915 c 0,36,37
 473 915 473 915 404 849 c 128,-1,38
 335 783 335 783 312 661 c 1,39,-1
 764 672 l 1,32,-1
EndSplineSet
Substitution2: "'case' Case-Sensitive Forms lookup 28 subtable" Egrave
Substitution2: "'aalt' Access All Alternates lookup 0 subtable" Egrave
EndChar

StartChar: eacute
Encoding: 233 233 171
Width: 1055
GlyphClass: 2
Flags: W
AnchorPoint: "Anchor-1" 94 0 basechar 0
AnchorPoint: "Anchor-0" 568 1057 basechar 0
LayerCount: 2
Fore
SplineSet
438 1193 m 1,0,-1
 379 1285 l 1,1,2
 614 1475 614 1475 771 1624 c 1,3,-1
 794 1622 l 1,4,-1
 880 1497 l 1,5,-1
 876 1475 l 1,6,7
 685 1336 685 1336 461 1191 c 1,8,-1
 438 1193 l 1,0,-1
928 519 m 1,9,-1
 300 519 l 1,10,11
 304 345 304 345 379.5 252.5 c 128,-1,12
 455 160 455 160 604 160 c 0,13,14
 675 160 675 160 756.5 185.5 c 128,-1,15
 838 211 838 211 913 256 c 1,16,-1
 936 243 l 1,17,-1
 906 57 l 1,18,19
 748 -20 748 -20 585 -20 c 0,20,21
 349 -20 349 -20 217 125 c 128,-1,22
 85 270 85 270 85 523 c 0,23,24
 85 780 85 780 223 928 c 128,-1,25
 361 1076 361 1076 594 1076 c 0,26,27
 775 1076 775 1076 876 968 c 128,-1,28
 977 860 977 860 977 670 c 0,29,30
 977 593 977 593 968 556 c 1,31,-1
 928 519 l 1,9,-1
764 672 m 1,32,-1
 768 700 l 1,33,34
 768 808 768 808 717.5 861.5 c 128,-1,35
 667 915 667 915 578 915 c 0,36,37
 473 915 473 915 404 849 c 128,-1,38
 335 783 335 783 312 661 c 1,39,-1
 764 672 l 1,32,-1
EndSplineSet
Substitution2: "'case' Case-Sensitive Forms lookup 28 subtable" Eacute
Substitution2: "'aalt' Access All Alternates lookup 0 subtable" Eacute
EndChar

StartChar: ecircumflex
Encoding: 234 234 172
Width: 1055
GlyphClass: 2
Flags: W
AnchorPoint: "Anchor-1" 94 0 basechar 0
AnchorPoint: "Anchor-0" 568 1057 basechar 0
LayerCount: 2
Fore
SplineSet
305 1202 m 1,0,-1
 243 1294 l 1,1,2
 367 1412 367 1412 541 1608 c 1,3,-1
 601 1608 l 1,4,5
 773 1412 773 1412 897 1294 c 1,6,-1
 834 1202 l 1,7,-1
 812 1202 l 1,8,9
 648 1346 648 1346 571 1431 c 1,10,11
 499 1354 499 1354 330 1202 c 1,12,-1
 305 1202 l 1,0,-1
928 519 m 1,13,-1
 300 519 l 1,14,15
 304 345 304 345 379.5 252.5 c 128,-1,16
 455 160 455 160 604 160 c 0,17,18
 675 160 675 160 756.5 185.5 c 128,-1,19
 838 211 838 211 913 256 c 1,20,-1
 936 243 l 1,21,-1
 906 57 l 1,22,23
 748 -20 748 -20 585 -20 c 0,24,25
 349 -20 349 -20 217 125 c 128,-1,26
 85 270 85 270 85 523 c 0,27,28
 85 780 85 780 223 928 c 128,-1,29
 361 1076 361 1076 594 1076 c 0,30,31
 775 1076 775 1076 876 968 c 128,-1,32
 977 860 977 860 977 670 c 0,33,34
 977 593 977 593 968 556 c 1,35,-1
 928 519 l 1,13,-1
764 672 m 1,36,-1
 768 700 l 1,37,38
 768 808 768 808 717.5 861.5 c 128,-1,39
 667 915 667 915 578 915 c 0,40,41
 473 915 473 915 404 849 c 128,-1,42
 335 783 335 783 312 661 c 1,43,-1
 764 672 l 1,36,-1
EndSplineSet
Substitution2: "'case' Case-Sensitive Forms lookup 28 subtable" Ecircumflex
Substitution2: "'aalt' Access All Alternates lookup 0 subtable" Ecircumflex
EndChar

StartChar: edieresis
Encoding: 235 235 173
Width: 1055
GlyphClass: 2
Flags: W
AnchorPoint: "Anchor-1" 94 0 basechar 0
AnchorPoint: "Anchor-0" 568 1057 basechar 0
LayerCount: 2
Fore
SplineSet
379 1282 m 128,-1,1
 322 1282 322 1282 291.5 1313 c 128,-1,2
 261 1344 261 1344 261 1401 c 128,-1,3
 261 1458 261 1458 294.5 1491.5 c 128,-1,4
 328 1525 328 1525 385 1525 c 0,5,6
 440 1525 440 1525 470 1494.5 c 128,-1,7
 500 1464 500 1464 500 1408 c 0,8,9
 500 1349 500 1349 468 1315.5 c 128,-1,0
 436 1282 436 1282 379 1282 c 128,-1,1
755 1282 m 128,-1,11
 698 1282 698 1282 667.5 1313 c 128,-1,12
 637 1344 637 1344 637 1401 c 128,-1,13
 637 1458 637 1458 670.5 1491.5 c 128,-1,14
 704 1525 704 1525 762 1525 c 0,15,16
 817 1525 817 1525 846.5 1494.5 c 128,-1,17
 876 1464 876 1464 876 1408 c 0,18,19
 876 1349 876 1349 844 1315.5 c 128,-1,10
 812 1282 812 1282 755 1282 c 128,-1,11
928 519 m 1,20,-1
 300 519 l 1,21,22
 304 345 304 345 379.5 252.5 c 128,-1,23
 455 160 455 160 604 160 c 0,24,25
 675 160 675 160 756.5 185.5 c 128,-1,26
 838 211 838 211 913 256 c 1,27,-1
 936 243 l 1,28,-1
 906 57 l 1,29,30
 748 -20 748 -20 585 -20 c 0,31,32
 349 -20 349 -20 217 125 c 128,-1,33
 85 270 85 270 85 523 c 0,34,35
 85 780 85 780 223 928 c 128,-1,36
 361 1076 361 1076 594 1076 c 0,37,38
 775 1076 775 1076 876 968 c 128,-1,39
 977 860 977 860 977 670 c 0,40,41
 977 593 977 593 968 556 c 1,42,-1
 928 519 l 1,20,-1
764 672 m 1,43,-1
 768 700 l 1,44,45
 768 808 768 808 717.5 861.5 c 128,-1,46
 667 915 667 915 578 915 c 0,47,48
 473 915 473 915 404 849 c 128,-1,49
 335 783 335 783 312 661 c 1,50,-1
 764 672 l 1,43,-1
EndSplineSet
Substitution2: "'case' Case-Sensitive Forms lookup 28 subtable" Edieresis
Substitution2: "'aalt' Access All Alternates lookup 0 subtable" Edieresis
EndChar

StartChar: igrave
Encoding: 236 236 174
Width: 561
GlyphClass: 2
Flags: W
AnchorPoint: "Anchor-1" 0 0 basechar 0
AnchorPoint: "Anchor-0" 284 1057 basechar 0
LayerCount: 2
Fore
SplineSet
119 1622 m 1,0,-1
 142 1624 l 1,1,2
 299 1475 299 1475 534 1285 c 1,3,-1
 475 1193 l 1,4,-1
 451 1191 l 1,5,6
 228 1336 228 1336 37 1475 c 1,7,-1
 32 1497 l 1,8,-1
 119 1622 l 1,0,-1
381 464 m 1,9,-1
 396 0 l 1,10,-1
 162 0 l 1,11,-1
 177 442 l 1,12,-1
 165 1042 l 1,13,-1
 399 1062 l 1,14,-1
 381 464 l 1,9,-1
EndSplineSet
Substitution2: "'case' Case-Sensitive Forms lookup 28 subtable" Igrave
Substitution2: "'aalt' Access All Alternates lookup 0 subtable" Igrave
EndChar

StartChar: iacute
Encoding: 237 237 175
Width: 561
GlyphClass: 2
Flags: W
AnchorPoint: "Anchor-1" 0 0 basechar 0
AnchorPoint: "Anchor-0" 284 1057 basechar 0
LayerCount: 2
Fore
SplineSet
510 1622 m 1,0,-1
 596 1497 l 1,1,-1
 591 1475 l 1,2,3
 400 1336 400 1336 177 1191 c 1,4,-1
 153 1193 l 1,5,-1
 94 1285 l 1,6,7
 329 1475 329 1475 486 1624 c 1,8,-1
 510 1622 l 1,0,-1
381 464 m 1,9,-1
 396 0 l 1,10,-1
 162 0 l 1,11,-1
 177 442 l 1,12,-1
 165 1042 l 1,13,-1
 399 1062 l 1,14,-1
 381 464 l 1,9,-1
EndSplineSet
Substitution2: "'case' Case-Sensitive Forms lookup 28 subtable" Iacute
Substitution2: "'aalt' Access All Alternates lookup 0 subtable" Iacute
EndChar

StartChar: icircumflex
Encoding: 238 238 176
Width: 561
GlyphClass: 2
Flags: W
AnchorPoint: "Anchor-1" 0 0 basechar 0
AnchorPoint: "Anchor-0" 284 1057 basechar 0
LayerCount: 2
Fore
SplineSet
20 1202 m 1,0,-1
 -41 1294 l 1,1,2
 82 1412 82 1412 256 1608 c 1,3,-1
 317 1608 l 1,4,5
 489 1412 489 1412 613 1294 c 1,6,-1
 551 1202 l 1,7,-1
 528 1202 l 1,8,9
 363 1346 363 1346 287 1431 c 1,10,11
 215 1354 215 1354 46 1202 c 1,12,-1
 20 1202 l 1,0,-1
381 464 m 1,13,-1
 396 0 l 1,14,-1
 162 0 l 1,15,-1
 177 442 l 1,16,-1
 165 1042 l 1,17,-1
 399 1062 l 1,18,-1
 381 464 l 1,13,-1
EndSplineSet
Substitution2: "'case' Case-Sensitive Forms lookup 28 subtable" Icircumflex
Substitution2: "'aalt' Access All Alternates lookup 0 subtable" Icircumflex
EndChar

StartChar: idieresis
Encoding: 239 239 177
Width: 561
GlyphClass: 2
Flags: W
AnchorPoint: "Anchor-1" 0 0 basechar 0
AnchorPoint: "Anchor-0" 284 1057 basechar 0
LayerCount: 2
Fore
SplineSet
131 1525 m 0,0,1
 159 1525 159 1525 180.5 1517 c 128,-1,2
 202 1509 202 1509 216 1494 c 128,-1,3
 230 1479 230 1479 237.5 1457.5 c 128,-1,4
 245 1436 245 1436 245 1408 c 0,5,6
 245 1349 245 1349 213 1315.5 c 128,-1,7
 181 1282 181 1282 124 1282 c 128,-1,8
 67 1282 67 1282 37 1313 c 128,-1,9
 7 1344 7 1344 7 1401 c 128,-1,10
 7 1458 7 1458 40.5 1491.5 c 128,-1,11
 74 1525 74 1525 131 1525 c 0,0,1
447 1525 m 0,12,13
 502 1525 502 1525 532 1494.5 c 128,-1,14
 562 1464 562 1464 562 1408 c 0,15,16
 562 1349 562 1349 529.5 1315.5 c 128,-1,17
 497 1282 497 1282 440 1282 c 256,18,19
 383 1282 383 1282 353.5 1313 c 128,-1,20
 324 1344 324 1344 324 1401 c 0,21,22
 324 1439 324 1439 338.5 1467 c 128,-1,23
 353 1495 353 1495 381 1510 c 128,-1,24
 409 1525 409 1525 447 1525 c 0,12,13
381 464 m 1,25,-1
 396 0 l 1,26,-1
 162 0 l 1,27,-1
 177 442 l 1,28,-1
 165 1042 l 1,29,-1
 399 1062 l 1,30,-1
 381 464 l 1,25,-1
EndSplineSet
Ligature2: "'liga' Standard Ligatures lookup 30 subtable" dieresis i
Substitution2: "'case' Case-Sensitive Forms lookup 28 subtable" Idieresis
Substitution2: "'aalt' Access All Alternates lookup 0 subtable" Idieresis
EndChar

StartChar: eth
Encoding: 240 240 178
Width: 1127
GlyphClass: 2
Flags: W
LayerCount: 2
Fore
SplineSet
917 1477 m 1,0,-1
 696 1357 l 1,1,2
 863 1198 863 1198 949 997.5 c 128,-1,3
 1035 797 1035 797 1035 567 c 0,4,5
 1035 286 1035 286 910 133 c 128,-1,6
 785 -20 785 -20 553 -20 c 0,7,8
 336 -20 336 -20 213 119.5 c 128,-1,9
 90 259 90 259 90 514 c 0,10,11
 90 770 90 770 213.5 911.5 c 128,-1,12
 337 1053 337 1053 564 1053 c 0,13,14
 648 1053 648 1053 720 1033 c 1,15,16
 646 1161 646 1161 523 1266 c 1,17,-1
 250 1119 l 1,18,-1
 227 1129 l 1,19,-1
 179 1230 l 1,20,-1
 405 1351 l 1,21,22
 277 1429 277 1429 142 1486 c 1,23,-1
 142 1516 l 1,24,-1
 282 1622 l 1,25,-1
 296 1622 l 1,26,27
 458 1547 458 1547 587 1447 c 1,28,-1
 849 1587 l 1,29,-1
 869 1580 l 1,30,-1
 917 1477 l 1,0,-1
569 136 m 0,31,32
 704 136 704 136 767 234.5 c 128,-1,33
 830 333 830 333 830 548 c 0,34,35
 830 682 830 682 805 805 c 1,36,37
 706 895 706 895 576 895 c 0,38,39
 293 895 293 895 293 514 c 0,40,41
 293 323 293 323 364 229.5 c 128,-1,42
 435 136 435 136 569 136 c 0,31,32
EndSplineSet
Substitution2: "'case' Case-Sensitive Forms lookup 28 subtable" Eth
Substitution2: "'aalt' Access All Alternates lookup 0 subtable" Eth
EndChar

StartChar: ntilde
Encoding: 241 241 179
Width: 1191
GlyphClass: 2
Flags: W
AnchorPoint: "Anchor-1" 603 0 basechar 0
AnchorPoint: "Anchor-0" 632 1057 basechar 0
LayerCount: 2
Fore
SplineSet
324 1254 m 1,0,-1
 252 1328 l 1,1,-1
 252 1348 l 1,2,-1
 401 1525 l 1,3,-1
 427 1534 l 1,4,5
 476 1528 476 1528 614.5 1490 c 128,-1,6
 753 1452 753 1452 782 1452 c 0,7,8
 790 1452 790 1452 798.5 1454.5 c 128,-1,9
 807 1457 807 1457 816 1463.5 c 128,-1,10
 825 1470 825 1470 833 1476.5 c 128,-1,11
 841 1483 841 1483 852.5 1494.5 c 128,-1,12
 864 1506 864 1506 872 1515 c 128,-1,13
 880 1524 880 1524 894 1539.5 c 128,-1,14
 908 1555 908 1555 917 1565 c 1,15,-1
 941 1565 l 1,16,-1
 1009 1491 l 1,17,-1
 1009 1471 l 1,18,-1
 860 1294 l 1,19,-1
 838 1282 l 1,20,21
 789 1289 789 1289 650.5 1328.5 c 128,-1,22
 512 1368 512 1368 482 1368 c 0,23,24
 470 1368 470 1368 458 1362.5 c 128,-1,25
 446 1357 446 1357 432 1344.5 c 128,-1,26
 418 1332 418 1332 407 1320.5 c 128,-1,27
 396 1309 396 1309 377 1288 c 128,-1,28
 358 1267 358 1267 346 1254 c 1,29,-1
 324 1254 l 1,0,-1
808 0 m 1,30,-1
 823 696 l 2,31,32
 825 783 825 783 783.5 831.5 c 128,-1,33
 742 880 742 880 661 880 c 0,34,35
 525 880 525 880 385 744 c 1,36,-1
 383 464 l 1,37,-1
 396 0 l 1,38,-1
 162 0 l 1,39,-1
 177 442 l 1,40,-1
 165 1042 l 1,41,-1
 388 1062 l 1,42,-1
 385 908 l 1,43,-1
 401 908 l 1,44,45
 534 1025 534 1025 683 1071 c 1,46,47
 859 1071 859 1071 950 991 c 128,-1,48
 1041 911 1041 911 1039 762 c 2,49,-1
 1033 464 l 1,50,-1
 1044 0 l 1,51,-1
 808 0 l 1,30,-1
EndSplineSet
Substitution2: "'case' Case-Sensitive Forms lookup 28 subtable" Ntilde
Substitution2: "'aalt' Access All Alternates lookup 0 subtable" Ntilde
EndChar

StartChar: ograve
Encoding: 242 242 180
Width: 1127
GlyphClass: 2
Flags: W
AnchorPoint: "Anchor-1" 0 0 basechar 0
AnchorPoint: "Anchor-0" 566 1057 basechar 0
LayerCount: 2
Fore
SplineSet
401 1622 m 1,0,-1
 424 1624 l 1,1,2
 581 1475 581 1475 816 1285 c 1,3,-1
 757 1193 l 1,4,-1
 734 1191 l 1,5,6
 510 1336 510 1336 319 1475 c 1,7,-1
 315 1497 l 1,8,-1
 401 1622 l 1,0,-1
578 1079 m 0,9,10
 800 1079 800 1079 921 939.5 c 128,-1,11
 1042 800 1042 800 1042 545 c 0,12,13
 1042 273 1042 273 913.5 126.5 c 128,-1,14
 785 -20 785 -20 548 -20 c 0,15,16
 401 -20 401 -20 297 42 c 128,-1,17
 193 104 193 104 139 223.5 c 128,-1,18
 85 343 85 343 85 512 c 0,19,20
 85 784 85 784 212.5 931.5 c 128,-1,21
 340 1079 340 1079 578 1079 c 0,9,10
562 915 m 0,22,23
 302 915 302 915 302 562 c 0,24,25
 302 346 302 346 367 243 c 128,-1,26
 432 140 432 140 562 140 c 256,27,28
 692 140 692 140 756.5 226.5 c 128,-1,29
 821 313 821 313 821 493 c 0,30,31
 821 637 821 637 792 731 c 128,-1,32
 763 825 763 825 706 870 c 128,-1,33
 649 915 649 915 562 915 c 0,22,23
EndSplineSet
Substitution2: "'case' Case-Sensitive Forms lookup 28 subtable" Ograve
Substitution2: "'aalt' Access All Alternates lookup 0 subtable" Ograve
EndChar

StartChar: oacute
Encoding: 243 243 181
Width: 1127
GlyphClass: 2
Flags: W
AnchorPoint: "Anchor-1" 0 0 basechar 0
AnchorPoint: "Anchor-0" 566 1057 basechar 0
LayerCount: 2
Fore
SplineSet
792 1622 m 1,0,-1
 878 1497 l 1,1,-1
 874 1475 l 1,2,3
 683 1336 683 1336 459 1191 c 1,4,-1
 436 1193 l 1,5,-1
 376 1285 l 1,6,7
 612 1475 612 1475 768 1624 c 1,8,-1
 792 1622 l 1,0,-1
578 1079 m 0,9,10
 800 1079 800 1079 921 939.5 c 128,-1,11
 1042 800 1042 800 1042 545 c 0,12,13
 1042 273 1042 273 913.5 126.5 c 128,-1,14
 785 -20 785 -20 548 -20 c 0,15,16
 401 -20 401 -20 297 42 c 128,-1,17
 193 104 193 104 139 223.5 c 128,-1,18
 85 343 85 343 85 512 c 0,19,20
 85 784 85 784 212.5 931.5 c 128,-1,21
 340 1079 340 1079 578 1079 c 0,9,10
562 915 m 0,22,23
 302 915 302 915 302 562 c 0,24,25
 302 346 302 346 367 243 c 128,-1,26
 432 140 432 140 562 140 c 256,27,28
 692 140 692 140 756.5 226.5 c 128,-1,29
 821 313 821 313 821 493 c 0,30,31
 821 637 821 637 792 731 c 128,-1,32
 763 825 763 825 706 870 c 128,-1,33
 649 915 649 915 562 915 c 0,22,23
EndSplineSet
Substitution2: "'case' Case-Sensitive Forms lookup 28 subtable" Oacute
Substitution2: "'aalt' Access All Alternates lookup 0 subtable" Oacute
EndChar

StartChar: ocircumflex
Encoding: 244 244 182
Width: 1127
GlyphClass: 2
Flags: W
AnchorPoint: "Anchor-1" 0 0 basechar 0
AnchorPoint: "Anchor-0" 566 1057 basechar 0
LayerCount: 2
Fore
SplineSet
302 1202 m 1,0,-1
 241 1294 l 1,1,2
 365 1412 365 1412 539 1608 c 1,3,-1
 599 1608 l 1,4,5
 771 1412 771 1412 895 1294 c 1,6,-1
 832 1202 l 1,7,-1
 810 1202 l 1,8,9
 646 1346 646 1346 569 1431 c 1,10,11
 497 1354 497 1354 328 1202 c 1,12,-1
 302 1202 l 1,0,-1
578 1079 m 0,13,14
 800 1079 800 1079 921 939.5 c 128,-1,15
 1042 800 1042 800 1042 545 c 0,16,17
 1042 273 1042 273 913.5 126.5 c 128,-1,18
 785 -20 785 -20 548 -20 c 0,19,20
 401 -20 401 -20 297 42 c 128,-1,21
 193 104 193 104 139 223.5 c 128,-1,22
 85 343 85 343 85 512 c 0,23,24
 85 784 85 784 212.5 931.5 c 128,-1,25
 340 1079 340 1079 578 1079 c 0,13,14
562 915 m 0,26,27
 302 915 302 915 302 562 c 0,28,29
 302 346 302 346 367 243 c 128,-1,30
 432 140 432 140 562 140 c 256,31,32
 692 140 692 140 756.5 226.5 c 128,-1,33
 821 313 821 313 821 493 c 0,34,35
 821 637 821 637 792 731 c 128,-1,36
 763 825 763 825 706 870 c 128,-1,37
 649 915 649 915 562 915 c 0,26,27
EndSplineSet
Substitution2: "'case' Case-Sensitive Forms lookup 28 subtable" Ocircumflex
Substitution2: "'aalt' Access All Alternates lookup 0 subtable" Ocircumflex
EndChar

StartChar: otilde
Encoding: 245 245 183
Width: 1127
GlyphClass: 2
Flags: W
AnchorPoint: "Anchor-1" 0 0 basechar 0
AnchorPoint: "Anchor-0" 566 1057 basechar 0
LayerCount: 2
Fore
SplineSet
943 1491 m 1,0,-1
 943 1471 l 1,1,-1
 794 1294 l 1,2,-1
 771 1282 l 1,3,4
 729 1288 729 1288 651.5 1309.5 c 128,-1,5
 574 1331 574 1331 507 1349.5 c 128,-1,6
 440 1368 440 1368 416 1368 c 0,7,8
 404 1368 404 1368 392 1362.5 c 128,-1,9
 380 1357 380 1357 366 1344.5 c 128,-1,10
 352 1332 352 1332 341 1320.5 c 128,-1,11
 330 1309 330 1309 311 1288 c 128,-1,12
 292 1267 292 1267 280 1254 c 1,13,-1
 256 1254 l 1,14,-1
 186 1328 l 1,15,-1
 186 1348 l 1,16,-1
 335 1525 l 1,17,-1
 361 1534 l 1,18,19
 402 1529 402 1529 480 1508 c 128,-1,20
 558 1487 558 1487 625 1469.5 c 128,-1,21
 692 1452 692 1452 716 1452 c 0,22,23
 724 1452 724 1452 732.5 1454.5 c 128,-1,24
 741 1457 741 1457 750 1463.5 c 128,-1,25
 759 1470 759 1470 767 1476.5 c 128,-1,26
 775 1483 775 1483 786.5 1494.5 c 128,-1,27
 798 1506 798 1506 806 1515 c 128,-1,28
 814 1524 814 1524 828 1539.5 c 128,-1,29
 842 1555 842 1555 851 1565 c 1,30,-1
 874 1565 l 1,31,-1
 943 1491 l 1,0,-1
578 1079 m 0,32,33
 800 1079 800 1079 921 939.5 c 128,-1,34
 1042 800 1042 800 1042 545 c 0,35,36
 1042 273 1042 273 913.5 126.5 c 128,-1,37
 785 -20 785 -20 548 -20 c 0,38,39
 401 -20 401 -20 297 42 c 128,-1,40
 193 104 193 104 139 223.5 c 128,-1,41
 85 343 85 343 85 512 c 0,42,43
 85 784 85 784 212.5 931.5 c 128,-1,44
 340 1079 340 1079 578 1079 c 0,32,33
562 915 m 0,45,46
 302 915 302 915 302 562 c 0,47,48
 302 346 302 346 367 243 c 128,-1,49
 432 140 432 140 562 140 c 256,50,51
 692 140 692 140 756.5 226.5 c 128,-1,52
 821 313 821 313 821 493 c 0,53,54
 821 637 821 637 792 731 c 128,-1,55
 763 825 763 825 706 870 c 128,-1,56
 649 915 649 915 562 915 c 0,45,46
EndSplineSet
Substitution2: "'case' Case-Sensitive Forms lookup 28 subtable" Otilde
Substitution2: "'aalt' Access All Alternates lookup 0 subtable" Otilde
EndChar

StartChar: odieresis
Encoding: 246 246 184
Width: 1127
GlyphClass: 2
Flags: W
AnchorPoint: "Anchor-1" 0 0 basechar 0
AnchorPoint: "Anchor-0" 566 1057 basechar 0
LayerCount: 2
Fore
SplineSet
383 1525 m 0,0,1
 438 1525 438 1525 467.5 1494.5 c 128,-1,2
 497 1464 497 1464 497 1408 c 0,3,4
 497 1349 497 1349 465 1315.5 c 128,-1,5
 433 1282 433 1282 376 1282 c 0,6,7
 338 1282 338 1282 312 1296 c 128,-1,8
 286 1310 286 1310 272.5 1336.5 c 128,-1,9
 259 1363 259 1363 259 1401 c 0,10,11
 259 1458 259 1458 292.5 1491.5 c 128,-1,12
 326 1525 326 1525 383 1525 c 0,0,1
759 1525 m 0,13,14
 796 1525 796 1525 821.5 1511 c 128,-1,15
 847 1497 847 1497 860.5 1471 c 128,-1,16
 874 1445 874 1445 874 1408 c 0,17,18
 874 1349 874 1349 842 1315.5 c 128,-1,19
 810 1282 810 1282 753 1282 c 0,20,21
 715 1282 715 1282 688.5 1296 c 128,-1,22
 662 1310 662 1310 648.5 1336.5 c 128,-1,23
 635 1363 635 1363 635 1401 c 0,24,25
 635 1458 635 1458 668.5 1491.5 c 128,-1,26
 702 1525 702 1525 759 1525 c 0,13,14
578 1079 m 0,27,28
 800 1079 800 1079 921 939.5 c 128,-1,29
 1042 800 1042 800 1042 545 c 0,30,31
 1042 273 1042 273 913.5 126.5 c 128,-1,32
 785 -20 785 -20 548 -20 c 0,33,34
 401 -20 401 -20 297 42 c 128,-1,35
 193 104 193 104 139 223.5 c 128,-1,36
 85 343 85 343 85 512 c 0,37,38
 85 784 85 784 212.5 931.5 c 128,-1,39
 340 1079 340 1079 578 1079 c 0,27,28
562 915 m 0,40,41
 302 915 302 915 302 562 c 0,42,43
 302 346 302 346 367 243 c 128,-1,44
 432 140 432 140 562 140 c 256,45,46
 692 140 692 140 756.5 226.5 c 128,-1,47
 821 313 821 313 821 493 c 0,48,49
 821 637 821 637 792 731 c 128,-1,50
 763 825 763 825 706 870 c 128,-1,51
 649 915 649 915 562 915 c 0,40,41
EndSplineSet
Ligature2: "'liga' Standard Ligatures lookup 30 subtable" dieresis o
Substitution2: "'case' Case-Sensitive Forms lookup 28 subtable" Odieresis
Substitution2: "'aalt' Access All Alternates lookup 0 subtable" Odieresis
EndChar

StartChar: divide
Encoding: 247 247 185
Width: 1100
GlyphClass: 2
Flags: W
LayerCount: 2
Fore
SplineSet
594 1124 m 0,0,1
 646 1124 646 1124 676.5 1093 c 128,-1,2
 707 1062 707 1062 707 1009 c 0,3,4
 707 971 707 971 692.5 943.5 c 128,-1,5
 678 916 678 916 651 901 c 128,-1,6
 624 886 624 886 587 886 c 0,7,8
 532 886 532 886 502.5 916.5 c 128,-1,9
 473 947 473 947 473 1002 c 0,10,11
 473 1058 473 1058 505 1091 c 128,-1,12
 537 1124 537 1124 594 1124 c 0,0,1
1057 668 m 1,13,-1
 1044 523 l 1,14,-1
 99 523 l 1,15,-1
 83 539 l 1,16,-1
 96 683 l 1,17,-1
 1039 683 l 1,18,-1
 1057 668 l 1,13,-1
594 333 m 0,19,20
 646 333 646 333 676.5 302 c 128,-1,21
 707 271 707 271 707 218 c 0,22,23
 707 161 707 161 674.5 127.5 c 128,-1,24
 642 94 642 94 586.5 94 c 128,-1,25
 531 94 531 94 502 123.5 c 128,-1,26
 473 153 473 153 473 208 c 0,27,28
 473 265 473 265 505 299 c 128,-1,29
 537 333 537 333 594 333 c 0,19,20
EndSplineSet
EndChar

StartChar: oslash
Encoding: 248 248 186
Width: 1127
GlyphClass: 2
Flags: W
AnchorPoint: "Anchor-1" 0 0 basechar 0
AnchorPoint: "Anchor-0" 564 1057 basechar 0
LayerCount: 2
Fore
SplineSet
1000 1200 m 1,0,-1
 883 977 l 1,1,2
 1042 838 1042 838 1042 545 c 0,3,4
 1042 273 1042 273 913.5 126.5 c 128,-1,5
 785 -20 785 -20 548 -20 c 0,6,7
 458 -20 458 -20 379 4 c 1,8,-1
 234 -273 l 1,9,-1
 110 -213 l 1,10,-1
 103 -190 l 1,11,-1
 245 81 l 1,12,13
 85 217 85 217 85 512 c 0,14,15
 85 784 85 784 212.5 931.5 c 128,-1,16
 340 1079 340 1079 578 1079 c 0,17,18
 674 1079 674 1079 753 1051 c 1,19,-1
 874 1282 l 1,20,-1
 989 1225 l 1,21,-1
 1000 1200 l 1,0,-1
302 562 m 0,22,23
 302 382 302 382 348 278 c 1,24,-1
 670 893 l 1,25,26
 623 915 623 915 562 915 c 0,27,28
 302 915 302 915 302 562 c 0,22,23
562 140 m 0,29,30
 692 140 692 140 756.5 226.5 c 128,-1,31
 821 313 821 313 821 493 c 0,32,33
 821 675 821 675 777 771 c 1,34,-1
 459 160 l 1,35,36
 505 140 505 140 562 140 c 0,29,30
EndSplineSet
Substitution2: "'case' Case-Sensitive Forms lookup 28 subtable" Oslash
Substitution2: "'aalt' Access All Alternates lookup 0 subtable" Oslash
EndChar

StartChar: ugrave
Encoding: 249 249 187
Width: 1180
GlyphClass: 2
Flags: W
AnchorPoint: "Anchor-1" 0 0 basechar 0
AnchorPoint: "Anchor-0" 589 1057 basechar 0
LayerCount: 2
Fore
SplineSet
424 1622 m 1,0,-1
 447 1624 l 1,1,2
 597 1481 597 1481 840 1285 c 1,3,-1
 780 1193 l 1,4,-1
 757 1191 l 1,5,6
 523 1343 523 1343 342 1475 c 1,7,-1
 337 1497 l 1,8,-1
 424 1622 l 1,0,-1
1002 1062 m 1,9,-1
 987 245 l 2,10,11
 987 203 987 203 1000.5 186.5 c 128,-1,12
 1014 170 1014 170 1048 170 c 0,13,14
 1076 170 1076 170 1119 179 c 1,15,-1
 1140 162 l 1,16,-1
 1117 35 l 1,17,18
 1051 -6 1051 -6 972 -16 c 1,19,20
 902 -9 902 -9 859.5 33.5 c 128,-1,21
 817 76 817 76 803 147 c 1,22,-1
 784 147 l 1,23,24
 650 26 650 26 510 -13 c 1,25,26
 336 -13 336 -13 245 67 c 128,-1,27
 154 147 154 147 156 296 c 2,28,-1
 160 582 l 1,29,-1
 151 1042 l 1,30,-1
 383 1062 l 1,31,-1
 372 361 l 2,32,33
 370 275 370 275 410.5 227 c 128,-1,34
 451 179 451 179 530 179 c 0,35,36
 656 179 656 179 780 296 c 1,37,-1
 780 1042 l 1,38,-1
 1002 1062 l 1,9,-1
EndSplineSet
Substitution2: "'case' Case-Sensitive Forms lookup 28 subtable" Ugrave
Substitution2: "'aalt' Access All Alternates lookup 0 subtable" Ugrave
EndChar

StartChar: uacute
Encoding: 250 250 188
Width: 1180
GlyphClass: 2
Flags: W
AnchorPoint: "Anchor-1" 0 0 basechar 0
AnchorPoint: "Anchor-0" 589 1057 basechar 0
LayerCount: 2
Fore
SplineSet
814 1622 m 1,0,-1
 902 1497 l 1,1,-1
 897 1475 l 1,2,3
 715 1343 715 1343 482 1191 c 1,4,-1
 459 1193 l 1,5,-1
 399 1285 l 1,6,7
 642 1481 642 1481 792 1624 c 1,8,-1
 814 1622 l 1,0,-1
1002 1062 m 1,9,-1
 987 245 l 2,10,11
 987 203 987 203 1000.5 186.5 c 128,-1,12
 1014 170 1014 170 1048 170 c 0,13,14
 1076 170 1076 170 1119 179 c 1,15,-1
 1140 162 l 1,16,-1
 1117 35 l 1,17,18
 1051 -6 1051 -6 972 -16 c 1,19,20
 902 -9 902 -9 859.5 33.5 c 128,-1,21
 817 76 817 76 803 147 c 1,22,-1
 784 147 l 1,23,24
 650 26 650 26 510 -13 c 1,25,26
 336 -13 336 -13 245 67 c 128,-1,27
 154 147 154 147 156 296 c 2,28,-1
 160 582 l 1,29,-1
 151 1042 l 1,30,-1
 383 1062 l 1,31,-1
 372 361 l 2,32,33
 370 275 370 275 410.5 227 c 128,-1,34
 451 179 451 179 530 179 c 0,35,36
 656 179 656 179 780 296 c 1,37,-1
 780 1042 l 1,38,-1
 1002 1062 l 1,9,-1
EndSplineSet
Substitution2: "'case' Case-Sensitive Forms lookup 28 subtable" Uacute
Substitution2: "'aalt' Access All Alternates lookup 0 subtable" Uacute
EndChar

